<?xml version="1.0" encoding="UTF-8" standalone="no"?>
<!-- Created with Inkscape (http://www.inkscape.org/) -->

<svg
   xmlns:dc="http://purl.org/dc/elements/1.1/"
   xmlns:cc="http://creativecommons.org/ns#"
   xmlns:rdf="http://www.w3.org/1999/02/22-rdf-syntax-ns#"
   xmlns:svg="http://www.w3.org/2000/svg"
   xmlns="http://www.w3.org/2000/svg"
   xmlns:sodipodi="http://sodipodi.sourceforge.net/DTD/sodipodi-0.dtd"
   xmlns:inkscape="http://www.inkscape.org/namespaces/inkscape"
   width="62.457127mm"
   height="92.043106mm"
   viewBox="0 0 221.30478 326.13699"
   id="svg52873"
   version="1.1"
   inkscape:version="0.91 r13725"
   sodipodi:docname="beriola.svg">
  <defs
     id="defs52875" />
  <sodipodi:namedview
     id="base"
     pagecolor="#ffffff"
     bordercolor="#666666"
     borderopacity="1.0"
     inkscape:pageopacity="0.0"
     inkscape:pageshadow="2"
     inkscape:zoom="0.088388348"
     inkscape:cx="297.38479"
     inkscape:cy="152.8856"
     inkscape:document-units="px"
     inkscape:current-layer="layer1"
     showgrid="false"
     fit-margin-top="0"
     fit-margin-left="0"
     fit-margin-right="0"
     fit-margin-bottom="0"
     inkscape:window-width="1598"
     inkscape:window-height="879"
     inkscape:window-x="0"
     inkscape:window-y="19"
     inkscape:window-maximized="1" />
  <metadata
     id="metadata52878">
    <rdf:RDF>
      <cc:Work
         rdf:about="">
        <dc:format>image/svg+xml</dc:format>
        <dc:type
           rdf:resource="http://purl.org/dc/dcmitype/StillImage" />
        <dc:title></dc:title>
      </cc:Work>
    </rdf:RDF>
  </metadata>
  <g
     inkscape:label="Capa 1"
     inkscape:groupmode="layer"
     id="layer1"
     transform="translate(2452.9983,-832.88096)">
    <g
       id="g28834"
       transform="matrix(0.59178272,0,0,0.59178272,-2218.034,664.38239)">
      <path
         inkscape:connector-curvature="0"
         id="path2907"
         d="m -152.4096,499.477 -4.25683,-0.0264 4.17903,-0.022 c 3.92807,-0.022 3.696,-0.022 -3.86828,-0.0633 -6.97224,-0.0352 -18.81708,-0.10593 -60.45842,-0.35514 -4.75393,-0.0308 -13.69086,-0.0752 -19.85876,-0.10373 -10.94556,-0.0506 -22.1254,-0.11955 -31.17704,-0.19076 -2.9321,-0.022 -4.41902,-0.0523 -4.28277,-0.0835 0.10989,-0.0264 0.36481,-0.0932 0.55864,-0.149 0.31646,-0.0919 1.51945,-0.28525 3.02352,-0.48581 0.31646,-0.0396 1.16694,-0.16878 1.89524,-0.28174 1.43067,-0.22196 3.01736,-0.44163 3.76368,-0.5222 0.25932,-0.0264 1.03993,-0.0501 1.73965,-0.0453 0.79335,0 1.87811,-0.0396 2.88111,-0.10637 0.88521,-0.0602 2.06359,-0.13229 2.61871,-0.16042 0.83203,-0.0396 1.08212,-0.0734 1.42803,-0.18065 0.23295,-0.0712 0.44656,-0.14812 0.48172,-0.17054 0.0483,-0.022 0.20218,-0.34415 0.37799,-0.71436 l 0.31646,-0.67314 0,-1.15319 c 0,-0.63419 0.0528,-1.38873 0.0571,-1.67671 0.0483,-0.28789 0.0483,-0.57504 0.0483,-0.63802 -0.0483,-0.0888 -0.22416,-0.20834 -0.91817,-0.52981 l -0.88961,-0.41535 -0.31646,-0.41536 c -0.17581,-0.22855 -0.3692,-0.55551 -0.43513,-0.72684 -0.0703,-0.17098 -0.14065,-0.36305 -0.17142,-0.42547 -0.0571,-0.13185 -0.2725,-0.1991 -0.80433,-0.25141 -0.41756,-0.0395 -0.43514,-0.0523 -0.98455,-0.69854 -0.54765,-0.64492 -0.8395,-1.11425 -0.90938,-1.4627 -0.0483,-0.16219 -0.0967,-0.32218 -0.13186,-0.35646 -0.0484,-0.0352 -0.25053,-0.0813 -0.46678,-0.10549 -0.36481,-0.0396 -0.42634,-0.0668 -0.92301,-0.39513 -0.59907,-0.39734 -1.56164,-1.18124 -2.21654,-1.80541 -0.24613,-0.23119 -0.67072,-0.5695 -0.95026,-0.75164 -0.73753,-0.48075 -0.73005,-0.46572 -0.77225,-1.56129 -0.0484,-0.49983 -0.0747,-1.10708 -0.12746,-1.34979 -0.0484,-0.24306 -0.0967,-0.62826 -0.10988,-0.85668 -0.0528,-0.38239 0,-0.46472 0.1846,-1.0383 0.21537,-0.62189 0.21537,-0.62431 0.21537,-1.41475 l 0,-0.79181 0.20658,-0.20614 c 0.10988,-0.1134 0.29008,-0.3336 0.39557,-0.48981 0.189,-0.28877 0.36041,-0.39338 0.64039,-0.39514 0.24614,0 0.36481,-0.058 0.36481,-0.16702 0,-0.0567 -0.0615,-0.32525 -0.13625,-0.59552 -0.0747,-0.27031 -0.12307,-0.50084 -0.10988,-0.51209 0,-0.009 0.21536,0 0.45667,0.0308 0.56523,0.0646 0.58193,0.0642 0.69885,-0.022 0.0791,-0.0607 0.10988,-0.189 0.15823,-0.79177 0.0483,-0.39557 0.0659,-0.91544 0.0703,-1.15494 0,-0.31822 0.0484,-0.57684 0.15384,-0.9605 0.18899,-0.6636 0.25492,-0.82328 0.30766,-0.80179 0.0484,0.009 0.29009,0.12263 0.59469,0.25097 l 0.5516,0.23383 -0.0483,0.20789 c -0.0659,0.3802 -0.0484,0.56612 0.25932,1.24598 0.39118,0.90635 0.41755,0.90714 0.82499,0.022 0.24614,-0.52783 0.32086,-0.76571 0.40437,-1.24444 0.0615,-0.32525 0.10988,-0.59745 0.11867,-0.60431 0,-0.004 0.1846,0.0453 0.39997,0.10988 0.21097,0.0672 0.56655,0.13933 0.78588,0.15955 0.38678,0.0352 0.40876,0.0308 0.69006,-0.12966 0.16262,-0.0919 0.32525,-0.21888 0.3648,-0.28349 0.0483,-0.0642 0.12307,-0.40569 0.18021,-0.7581 0.0571,-0.35294 0.10988,-0.65006 0.12746,-0.66101 0,-0.009 0.17142,0.004 0.34723,0.0308 0.31646,0.0501 0.34723,0.0453 0.84829,-0.15867 0.28569,-0.11516 0.87862,-0.38151 1.31859,-0.59183 0.44128,-0.21009 0.81928,-0.38238 0.84345,-0.38238 0.0571,0 0.85005,0.3459 1.3744,0.59529 0.20219,0.0967 0.66281,0.39865 1.02059,0.67077 0.35602,0.27206 0.86851,0.60452 1.13574,0.73867 0.43074,0.21668 0.53227,0.29712 0.90806,0.71652 0.50634,0.56611 1.0307,1.42139 1.52868,2.49498 0.25493,0.5498 0.36921,0.86121 0.39118,1.06431 0.0571,0.54695 0.0923,0.59917 0.54897,0.85717 0.22416,0.12878 0.45667,0.23471 0.50766,0.23471 0.0483,0 0.19339,-0.13581 0.32525,-0.30152 0.25493,-0.32657 0.65797,-0.68461 0.77313,-0.68461 0.0483,0 0.21097,0.0861 0.38239,0.19076 0.25493,0.15691 0.37799,0.19691 0.67643,0.22152 0.31646,0.0264 0.43074,0.0673 0.88521,0.31998 0.2857,0.15955 0.64787,0.33184 0.80478,0.38283 0.47645,0.15471 0.73753,0.3147 1.06278,0.64562 0.17141,0.17361 0.33404,0.31558 0.36481,0.31558 0.0483,0 0.1846,-0.13449 0.34283,-0.29844 l 0.2813,-0.29844 0.19778,-1.42776 c 0.10989,-0.78526 0.30328,-2.1987 0.43074,-3.14104 0.12307,-0.94231 0.36041,-2.60109 0.51469,-3.68615 0.14944,-1.08511 0.29448,-2.10139 0.31206,-2.25847 0.0483,-0.25844 0.36481,-2.74512 0.57051,-4.17939 0.11867,-0.85409 0.38239,-2.70072 0.44173,-3.12034 l 0.0483,-0.36876 -0.29009,-0.79955 c -0.15823,-0.43962 -0.30328,-0.84266 -0.32086,-0.89545 -0.0483,-0.13098 -0.84301,-0.49684 -1.79811,-0.81893 l -0.77269,-0.26064 -0.94103,0.0352 c -1.0575,0.0396 -1.03685,0.0453 -2.48289,-0.42502 -0.62765,-0.20394 -0.74808,-0.26196 -1.02718,-0.49785 -0.25053,-0.21142 -0.29888,-0.27954 -0.25053,-0.32701 0.0483,-0.0352 0.46194,-0.27735 0.94938,-0.54335 0.487,-0.26591 1.3032,-0.71599 1.81701,-1.00054 0.51425,-0.28437 1.29661,-0.7163 1.73921,-0.95949 0.44173,-0.24306 1.0852,-0.59943 1.42759,-0.79181 0.34283,-0.19251 1.19595,-0.6658 1.89524,-1.05205 2.31412,-1.27762 7.02762,-3.88684 7.47594,-4.13869 0.24174,-0.13669 1.13046,-0.62786 1.9726,-1.09245 1.53747,-0.84758 2.97473,-1.64317 3.89422,-2.15549 1.07772,-0.60043 4.73416,-2.6227 5.29587,-2.92927 0.32965,-0.17933 0.77269,-0.42547 0.98631,-0.547 0.21536,-0.12131 1.0786,-0.60096 1.92117,-1.06524 0.84214,-0.46423 1.83547,-1.01351 2.20599,-1.22057 0.36921,-0.20745 1.13091,-0.62633 1.68779,-0.93162 0.55688,-0.30503 1.06146,-0.60892 1.12124,-0.67455 0.17141,-0.19075 0.23295,-0.93461 0.23295,-3.09893 0,-1.57342 0,-1.98153 -0.0791,-2.23637 -0.0483,-0.17141 -0.0659,-0.32393 -0.0483,-0.33931 0,-0.0132 0.44128,0.17801 0.94322,0.42942 l 0.91642,0.4572 -0.1846,0.0967 c -0.20219,0.10285 -0.46195,0.46173 -0.55469,0.7683 -0.0483,0.15339 -0.0483,0.298 0.12307,0.93452 0.0967,0.41404 0.19779,0.9841 0.21537,1.26681 0.0483,0.60119 0.0967,0.68777 0.54282,0.83523 l 0.2769,0.0923 0.47161,-0.2457 c 0.25932,-0.13494 0.63644,-0.3503 0.83599,-0.47777 0.20218,-0.12746 0.73093,-0.46374 1.18013,-0.74706 l 0.81576,-0.51548 1.57176,9e-5 c 1.27551,1.3e-4 1.7269,0.022 2.39191,0.10548 l 0.81972,0.10549 0.36041,-0.10856 c 0.91158,-0.27163 1.50802,-0.31778 2.02622,-0.15648 0.18021,0.0558 0.60831,0.14944 0.95202,0.2079 1.2843,0.21713 3.50172,0.56937 4.10344,0.65077 0.34283,0.0453 1.07904,0.15163 1.63592,0.23382 1.2909,0.19076 2.7976,0.40349 4.95788,0.69938 0.94235,0.12878 2.71804,0.3736 3.94608,0.54238 3.56238,0.49082 3.1646,0.47377 4.73504,0.20702 0.67555,-0.11516 1.32649,-0.13054 1.40605,-0.0352 0.0483,0.0352 0.13625,0.20525 0.23295,0.37623 0.0967,0.17098 0.42195,0.72034 0.71379,1.22004 0.29449,0.49983 0.6149,1.04876 0.71336,1.22013 0.17141,0.29581 1.28562,1.91841 1.857,2.69972 0.14505,0.19954 0.77753,1.08765 1.40254,1.97286 0.62457,0.88521 1.46626,2.07669 1.86887,2.64781 0.39997,0.57117 1.13047,1.59909 1.61615,2.28445 0.48655,0.68531 0.96476,1.36284 1.06541,1.5056 0.10109,0.14241 0.58809,0.83198 1.08388,1.53158 0.49667,0.6996 1.28869,1.82101 1.76251,2.49208 0.70852,1.00305 2.62706,3.71551 3.16372,4.47154 0.0747,0.10373 0.27251,0.38371 0.44173,0.62312 0.17141,0.23954 0.70368,0.99179 1.18804,1.6728 1.01487,1.42701 1.15728,1.72 1.04124,2.15175 -0.0835,0.31383 -1.66493,0.80412 -4.71701,1.46429 -0.5982,0.12966 -1.01004,0.24394 -1.04608,0.29053 -0.0483,0.069 -0.15384,1.87081 -0.13625,2.40918 0,0.0998 0.0483,1.05786 0.0571,2.12864 0.0483,1.16993 0.0967,2.40277 0.15384,3.08913 0.0747,0.80206 0.10988,1.53651 0.10988,2.46611 0,1.14906 0,1.39594 0.10988,1.86909 0.10549,0.50726 0.10989,0.74606 0.14065,3.44142 0.0483,3.0323 0.0483,2.99261 0.24614,2.9956 0.0483,0 0.10109,0.0993 0.15383,0.22021 0.0923,0.20042 0.0967,0.35162 0.0967,1.75222 0,1.23644 -0.0483,1.70365 -0.11428,2.41551 -0.34283,2.72051 -0.25932,6.28134 0.23295,9.8842 0.0791,0.60193 0.0967,0.6571 0.27251,0.8689 0.44172,0.53649 1.18233,1.31125 1.30188,1.35977 0.0703,0.0308 1.63724,0.11384 3.47887,0.189 1.84206,0.0747 3.89773,0.15999 4.56845,0.18856 2.53872,0.109 3.76368,0.13449 3.8006,0.0787 0.0791,-0.12043 0.0967,0.0352 0.0483,0.57152 -0.0483,0.54761 -0.0483,0.55403 -0.0615,0.20218 l 0,-0.36393 -0.0484,0.51922 c -0.0483,0.32701 -0.0483,0.52554 0,0.53649 0.0615,0.022 0.0703,0.11911 0,0.0998 -0.0483,-0.004 -1.95458,-0.0264 -4.29639,-0.0396 z m -93.43313,-2.73998 c 0.29448,-0.0501 0.44172,-0.17317 0.50765,-0.42722 0.0483,-0.0712 0.1011,-0.22504 0.18461,-0.34195 l 0.14944,-0.21186 0.3692,0.17713 c 0.47205,0.22504 0.60567,0.20482 0.98103,-0.14328 0.30767,-0.2835 0.32964,-0.29273 0.5393,-0.18416 0.16702,0.0848 0.31646,0.0453 0.54501,-0.14065 0.0791,-0.0637 0.21537,-0.1534 0.29888,-0.20043 0.11867,-0.0642 0.18021,-0.15867 0.25932,-0.38942 0.0967,-0.28262 0.11868,-0.3147 0.378,-0.44217 0.14944,-0.0756 0.29448,-0.16921 0.31646,-0.20789 0.0659,-0.0998 0.0571,-0.36789 0,-0.63877 -0.0528,-0.20174 -0.0528,-0.25888 0.0483,-0.42898 0.0483,-0.10768 0.10989,-0.3481 0.14065,-0.53372 0.0483,-0.18592 0.1011,-0.46722 0.17582,-0.62602 0.11427,-0.25448 0.12746,-0.30811 0.0659,-0.4557 -0.0527,-0.13186 -0.0527,-0.18548 0,-0.25624 0.13186,-0.18065 0.378,-0.71569 0.378,-0.82241 0,-0.18372 -0.19779,-0.38326 -0.378,-0.38326 -0.12746,0 -0.22415,0.0659 -0.47688,0.32481 -0.17581,0.17889 -0.42195,0.39689 -0.55381,0.48528 -0.16702,0.11032 -0.25053,0.21537 -0.28569,0.33624 -0.0483,0.15779 -0.0923,0.18988 -0.42634,0.31382 -0.24175,0.0888 -0.50195,0.23955 -0.72567,0.42063 -0.43513,0.35382 -0.9274,0.6276 -1.42099,0.79682 -0.4615,0.15735 -1.51593,0.3903 -1.91898,0.42327 -0.27251,0.022 -0.31646,0.004 -0.72918,-0.23647 -0.47161,-0.27734 -0.92301,-0.4237 -1.31331,-0.4237 -0.14944,0 -0.32964,-0.0453 -0.48699,-0.12307 -0.15384,-0.0787 -0.38679,-0.13494 -0.64215,-0.15735 -0.21537,-0.022 -0.47162,-0.0708 -0.55865,-0.11516 -0.14504,-0.0738 -0.17581,-0.0721 -0.35601,0.0132 -0.12747,0.0611 -0.22416,0.1657 -0.29009,0.29404 -0.0879,0.1868 -0.0967,0.25361 -0.0483,1.03843 0.0483,0.4612 0.0703,0.97215 0.0835,1.13495 0.0483,0.29053 0.0483,0.29756 -0.14065,0.38151 -0.15383,0.0817 -0.16702,0.0954 -0.13625,0.33492 0.0483,0.40612 0.34283,1.01891 0.59907,1.25793 0.24614,0.22899 0.25054,0.22943 1.04608,0.10109 0.1846,-0.0308 0.32965,-0.0264 0.41755,0.004 0.2857,0.12043 2.77431,0.15383 3.41953,0.0453 z m 68.79846,-6.49029 c 1.41088,-0.24833 2.43454,-0.71573 3.56062,-1.6281 1.30188,-1.05403 2.40377,-2.82924 2.98615,-4.80839 0.25493,-0.8755 0.24614,-0.83559 0.41316,-1.88158 0.0483,-0.15691 0.0747,-0.47276 0.10988,-0.70096 0.0835,-0.54976 0.0835,-2.86964 0,-3.42661 -0.0483,-0.22855 -0.0835,-0.56721 -0.10988,-0.75278 -0.10989,-0.79453 -0.23295,-1.49268 -0.30328,-1.72743 -0.0483,-0.0923 -0.0967,-0.34942 -0.14944,-0.57169 l -0.10109,-0.40393 0.24174,-0.13757 c 0.13186,-0.0756 0.38679,-0.22372 0.56479,-0.32965 0.18021,-0.10592 0.47645,-0.25844 0.66897,-0.33887 l 0.34722,-0.14681 0.17582,0.2057 c 0.0967,0.11296 0.25492,0.33404 0.34722,0.49131 0.23735,0.39821 0.36042,0.40788 0.52348,0.0453 0.24614,-0.53913 1.18629,-2.62407 1.53571,-3.3914 0.64875,-1.42477 0.66633,-1.48095 0.47689,-1.55927 -0.0703,-0.0308 -4.33858,-0.27646 -4.87261,-0.28218 -0.30327,-0.004 -0.34283,0.0923 -0.30767,0.74518 l 0.0483,0.57697 -0.14505,0.16614 c -0.11867,0.13757 -0.83861,0.56712 -0.87246,0.5222 0,-0.004 -0.19779,-0.35206 -0.41755,-0.76623 -2.11633,-3.90406 -5.31126,-6.74056 -8.61431,-7.64889 -0.62369,-0.17141 -0.93796,-0.24218 -1.07816,-0.24349 -0.0659,0 -0.21098,-0.0352 -0.32526,-0.0756 -0.28129,-0.10109 -1.28605,-0.10241 -1.70492,-0.004 -0.17582,0.0396 -0.46151,0.10285 -0.63205,0.1367 -0.84213,0.1635 -2.04644,0.71269 -2.79496,1.27471 -0.77576,0.5819 -1.67196,1.57853 -2.2306,2.48013 -0.32965,0.53666 -0.78764,1.54077 -1.02674,2.26629 -0.14065,0.42547 -0.25493,0.82012 -0.25493,0.87634 0,0.0563 -0.0483,0.15559 -0.0483,0.22152 -0.0967,0.24394 -0.24174,1.05333 -0.35163,2.01427 -0.0659,0.52339 -0.0483,2.50825 0.0528,3.11511 0.0967,0.82201 0.15823,1.29586 0.22416,1.58353 0.0483,0.14241 0.0747,0.36481 0.10109,0.49333 0.0967,0.47724 0.17581,0.82064 0.34723,1.42148 0.14944,0.51227 0.16702,0.62786 0.10988,0.68254 -0.0659,0.0642 -0.47206,0.34151 -2.50927,1.70893 -1.14321,0.76803 -1.16914,0.78834 -1.16782,0.93263 0,0.10329 0.34283,0.67441 0.81136,1.3548 0.34284,0.49434 0.84082,1.01241 0.97708,1.01241 0.22415,0 0.6083,-0.218 1.31638,-0.74799 0.40437,-0.30547 0.97048,-0.66808 1.32078,-0.8507 l 0.61051,-0.31822 0.15823,0.32217 c 0.31206,0.61556 1.23463,2.09014 1.63416,2.60636 1.27068,1.64085 2.69036,2.99064 4.14783,3.94367 0.82104,0.53719 2.35367,1.20017 3.19273,1.38152 0.15384,0.0352 0.35163,0.0817 0.43514,0.10681 0.0791,0.0264 0.24613,0.0453 0.36041,0.0501 0.11428,0 0.25493,0.0264 0.31646,0.0501 0.12746,0.0576 1.55637,0.0264 1.94667,-0.0453 z m -2.41169,-3.46542 c -0.0571,-0.0396 -0.21098,-0.0765 -0.34283,-0.0765 -0.62238,0 -2.09348,-0.58488 -2.95847,-1.17684 -0.32525,-0.22284 -0.44656,-0.31251 -1.04695,-0.777 -0.38679,-0.3002 -1.15684,-1.12014 -1.639,-1.74752 -0.40437,-0.52581 -1.57176,-2.37987 -1.57176,-2.49595 0,-0.0132 0.2857,-0.19603 0.636,-0.4026 0.34723,-0.20614 0.85796,-0.5077 1.12959,-0.66967 0.2725,-0.16219 0.90147,-0.53609 1.40165,-0.83137 0.5015,-0.29492 1.1964,-0.70781 1.54758,-0.91668 0.35162,-0.20877 0.6527,-0.37975 0.66984,-0.37975 0.17142,0 1.75724,1.47813 1.93436,1.80629 0.0703,0.13361 0.17142,0.25097 0.21977,0.26064 0.0703,0.0132 2.78353,-1.50192 3.88059,-2.16974 0.42195,-0.25536 2.32467,-1.34979 2.40027,-1.37879 0.14064,-0.0528 0.31206,0.75365 0.39118,1.82953 0.0483,0.26548 0.0703,0.50665 0.10109,0.5426 0.0483,0.0453 0.0659,0.25449 0.0659,0.66694 0,0.41272 -0.0528,0.62268 -0.0659,0.66703 -0.0483,0.0352 -0.0791,0.28217 -0.10109,0.56853 -0.0483,0.2769 -0.0615,0.62057 -0.0923,0.76332 -0.0483,0.14241 -0.0791,0.4114 -0.10989,0.59706 -0.1802,1.05205 -1.04827,2.92277 -1.57922,3.4143 -0.10109,0.0932 -0.1846,0.189 -0.1846,0.21405 0,0.0396 -0.12307,0.15823 -0.59117,0.55873 -0.23295,0.19866 -0.79027,0.55332 -0.97883,0.61991 -0.10988,0.0396 -0.29009,0.11735 -0.39557,0.17273 -0.27691,0.14636 -0.48173,0.20131 -0.89268,0.24262 -0.20219,0.022 -0.39998,0.0681 -0.43514,0.10681 -0.10548,0.10372 -1.25969,0.0967 -1.39946,-0.004 z m -8.85122,-10.03152 c -0.0483,-0.19252 -0.0791,-0.47878 -0.10988,-0.636 -0.0483,-0.15691 -0.0659,-0.46322 -0.0923,-0.68008 -0.0483,-0.21713 -0.0703,-0.43206 -0.10549,-0.47777 -0.0967,-0.11691 -0.0967,-2.19131 0,-2.30866 0.0527,-0.0453 0.0791,-0.23383 0.10109,-0.42239 0.0483,-0.18812 0.0615,-0.44766 0.0879,-0.57613 0.0527,-0.12835 0.0835,-0.3969 0.12746,-0.59706 0.0703,-0.34679 0.27251,-0.95523 0.42634,-1.30575 0.0528,-0.0897 0.0703,-0.18636 0.0703,-0.21317 0,-0.0813 0.38239,-0.73568 0.6694,-1.15455 0.14944,-0.21449 0.32085,-0.47122 0.39118,-0.57104 0.27251,-0.41008 1.18145,-1.10137 1.84734,-1.4035 0.12746,-0.058 0.30766,-0.13889 0.39118,-0.17933 0.22415,-0.10548 0.7806,-0.2347 1.01003,-0.2347 0.10988,0 0.22416,-0.0352 0.25932,-0.0778 0.0791,-0.0985 1.18937,-0.11384 1.28518,-0.022 0.0483,0.0352 0.15823,0.0774 0.2857,0.0989 0.72566,0.12746 0.8729,0.16174 1.13134,0.26064 0.15384,0.0598 0.38239,0.1446 0.49183,0.18767 0.36042,0.13758 1.13267,0.53676 1.29749,0.67442 0.0527,0.022 0.10988,0.0721 0.18021,0.10856 0.2769,0.13889 1.14189,0.85774 1.67943,1.39642 0.36481,0.36789 0.70501,0.75819 1.04828,1.21165 0.0967,0.12834 0.22416,0.29229 0.28569,0.36349 0.0615,0.0712 0.20218,0.2813 0.31646,0.46722 0.11428,0.18548 0.25053,0.39689 0.29888,0.46977 0.0527,0.073 0.15384,0.25273 0.22416,0.39997 0.0747,0.14724 0.20658,0.37843 0.29009,0.51381 0.0835,0.13493 0.15383,0.2725 0.15383,0.30459 0,0.0352 -0.5894,0.42942 -1.31067,0.88266 -0.72082,0.4532 -1.46231,0.92072 -1.64823,1.03922 -1.12607,0.71867 -1.72778,1.08638 -1.75723,1.07452 0,-0.004 -0.11428,-0.2312 -0.21537,-0.49786 -0.19779,-0.52066 -0.42634,-0.92793 -0.87027,-1.53136 -0.15383,-0.20965 -0.32085,-0.4808 -0.37799,-0.60215 -0.10549,-0.24834 -0.32086,-0.44463 -0.49183,-0.44463 -0.0615,0 -0.35602,0.16614 -0.6549,0.36921 -0.29888,0.20306 -1.15112,0.77963 -1.89349,1.28065 -1.33836,0.90314 -2.07589,1.40227 -3.80148,2.57207 -0.49183,0.33317 -0.91553,0.60598 -0.94147,0.60598 -0.0483,0 -0.0747,-0.15735 -0.10988,-0.3503 z m -21.28986,-48.29685 c 0,-0.0668 0.0483,-0.0668 0.0791,0 0,0.0308 0,0.0523 -0.0483,0.0523 -0.0483,0 -0.0571,-0.022 -0.0571,-0.0523 z"
         style="fill:#e52626;fill-opacity:1" />
      <path
         id="path4043-8-6"
         transform="translate(-1.2356376e-5,0)"
         d="m -210.07031,284.73047 c -103.44735,0 -186.97461,83.61495 -186.97461,186.74609 0,32.42838 8.28653,62.93893 22.8125,89.52344 l 7.51367,12.58008 313.3125,0 L -45.892578,561 c 14.525525,-26.58451 22.810547,-57.09506 22.810547,-89.52344 0,-103.13528 -83.527519,-186.74609 -186.972659,-186.74609 l -0.0156,0 z m -2.08008,108.5293 c 0.69401,-0.0176 1.38167,0 2.08008,0 44.68726,0 80.91015,36.22506 80.91015,80.91211 0,44.68703 -36.22421,80.9121 -80.91015,80.9121 -44.68683,0 -80.91211,-36.22612 -80.91211,-80.9121 0,-43.98828 35.11129,-79.80362 78.83203,-80.91211 z m -72.46484,317.76953 74.55273,124.81054 74.55273,-124.81054 -149.10546,0 z"
         style="fill:#e52626;stroke:none;stroke-width:10.39700031"
         inkscape:connector-curvature="0" />
      <text
         sodipodi:linespacing="125%"
         id="text11709-1-4-5-1-4"
         y="637.6842"
         x="-371.05524"
         style="color:#000000;font-style:italic;font-variant:normal;font-weight:900;font-stretch:condensed;font-size:85.08650208px;line-height:125%;font-family:'Fira Sans Condensed';-inkscape-font-specification:'Fira Sans Condensed, Heavy Italic Condensed';text-indent:0;text-align:start;text-decoration:none;text-decoration-line:none;letter-spacing:0px;word-spacing:0px;text-transform:none;direction:ltr;block-progression:tb;writing-mode:lr-tb;baseline-shift:baseline;text-anchor:start;display:inline;overflow:visible;visibility:visible;fill:#000000;fill-opacity:1;fill-rule:nonzero;stroke:none;stroke-width:1px;stroke-linecap:butt;stroke-linejoin:miter;stroke-opacity:1;marker:none;enable-background:accumulate"
         xml:space="preserve"><tspan
           y="637.6842"
           x="-371.05524"
           id="tspan11711-1-2-8-0-0"
           sodipodi:role="line">LAKAXITA</tspan></text>
      <text
         sodipodi:linespacing="125%"
         id="text11713-5-0-8-5-1"
         y="704.53052"
         x="-209.10838"
         style="color:#000000;font-style:italic;font-variant:normal;font-weight:900;font-stretch:condensed;font-size:85.08650208px;line-height:125%;font-family:'Fira Sans Condensed';-inkscape-font-specification:'Fira Sans Condensed, Heavy Italic Condensed';text-indent:0;text-align:center;text-decoration:none;text-decoration-line:none;letter-spacing:0px;word-spacing:0px;text-transform:none;direction:ltr;block-progression:tb;writing-mode:lr-tb;baseline-shift:baseline;text-anchor:middle;display:inline;overflow:visible;visibility:visible;fill:#000000;fill-opacity:1;fill-rule:nonzero;stroke:none;stroke-width:1px;stroke-linecap:butt;stroke-linejoin:miter;stroke-opacity:1;marker:none;enable-background:accumulate"
         xml:space="preserve"><tspan
           y="704.53052"
           x="-209.10838"
           id="tspan11715-0-7-6-2-9"
           sodipodi:role="line">BERIOLA</tspan></text>
    </g>
  </g>
</svg>
