<?xml version="1.0" encoding="UTF-8" standalone="no"?>
<!-- Created with Inkscape (http://www.inkscape.org/) -->

<svg
   xmlns:dc="http://purl.org/dc/elements/1.1/"
   xmlns:cc="http://creativecommons.org/ns#"
   xmlns:rdf="http://www.w3.org/1999/02/22-rdf-syntax-ns#"
   xmlns:svg="http://www.w3.org/2000/svg"
   xmlns="http://www.w3.org/2000/svg"
   xmlns:sodipodi="http://sodipodi.sourceforge.net/DTD/sodipodi-0.dtd"
   xmlns:inkscape="http://www.inkscape.org/namespaces/inkscape"
   width="38.3699mm"
   height="6.1556573mm"
   viewBox="0 0 135.95633 21.811383"
   id="svg51980"
   version="1.1"
   inkscape:version="0.91 r13725"
   sodipodi:docname="eskaera.svg">
  <defs
     id="defs51982" />
  <sodipodi:namedview
     id="base"
     pagecolor="#ffffff"
     bordercolor="#666666"
     borderopacity="1.0"
     inkscape:pageopacity="0.0"
     inkscape:pageshadow="2"
     inkscape:zoom="1.3084412"
     inkscape:cx="58.962724"
     inkscape:cy="57.262593"
     inkscape:document-units="px"
     inkscape:current-layer="layer1"
     showgrid="false"
     inkscape:window-width="1598"
     inkscape:window-height="879"
     inkscape:window-x="0"
     inkscape:window-y="19"
     inkscape:window-maximized="1"
     fit-margin-top="0"
     fit-margin-left="0"
     fit-margin-right="0"
     fit-margin-bottom="0" />
  <metadata
     id="metadata51985">
    <rdf:RDF>
      <cc:Work
         rdf:about="">
        <dc:format>image/svg+xml</dc:format>
        <dc:type
           rdf:resource="http://purl.org/dc/dcmitype/StillImage" />
        <dc:title></dc:title>
      </cc:Work>
    </rdf:RDF>
  </metadata>
  <g
     inkscape:label="Capa 1"
     inkscape:groupmode="layer"
     id="layer1"
     transform="translate(-118.0033,-681.6953)">
    <g
       id="g125456"
       style="fill:#ffffff">
      <path
         inkscape:export-ydpi="277"
         inkscape:export-xdpi="277"
         id="path49547-37"
         d="m 123.36243,689.21998 c 0.005,0 0.01,0 0.0142,0 -0.15208,0.12612 -0.22071,0.26584 0.007,0.35239 0.0488,0.0186 0.0971,0.0309 0.14528,0.0476 -0.004,0.53724 0.0507,1.07015 0.094,1.60491 0.0606,0.75238 -0.034,1.7539 0.13663,2.49329 -0.004,0.68685 -0.0229,1.37307 -0.0711,2.05745 -0.0946,0.46799 -0.20895,0.93351 -0.37402,1.39161 -0.0519,0.14343 0.14095,0.19289 0.3833,0.17929 0.006,0.002 0.013,0.004 0.0185,0.006 0.076,0.0346 0.16569,0.0593 0.2813,0.0612 0.0451,6.2e-4 0.0903,10e-4 0.13539,0.002 0.16692,0.003 0.34311,-0.0779 0.47417,-0.19969 0.10386,-0.0482 0.19413,-0.10571 0.2714,-0.1731 0.23493,-0.0723 0.47974,-0.12797 0.73136,-0.16877 0.76474,-0.0662 1.52701,-0.1391 2.30164,-0.13663 0.0835,-6.2e-4 0.16754,-10e-4 0.24853,-0.002 0.5224,-0.005 0.99348,-0.82286 0.27078,-0.83151 -0.65346,-0.008 -1.35391,-0.0964 -1.99006,0.0692 -0.16383,0.0136 -0.3258,0.0309 -0.48901,0.0513 -0.16383,-0.001 -0.32828,-0.0118 -0.47789,-0.007 -0.0556,0.002 -0.11066,0.0124 -0.16568,0.0167 0.0223,-0.2986 0.007,-0.62564 -0.0309,-0.96999 -0.0117,-0.10695 -0.0254,-0.21329 -0.0383,-0.31962 0.0216,-0.31158 0.0346,-0.62502 0.0451,-0.93723 0.0866,-0.0414 0.15023,-0.0773 0.0822,-0.0624 0.0841,-0.0222 0.16259,-0.0581 0.23925,-0.0964 0.002,-6.2e-4 0.003,-6.2e-4 0.006,-6.2e-4 0.1935,-0.0167 0.37402,-0.0575 0.55949,-0.11622 0.14157,-0.0445 0.3326,-0.009 0.48221,-0.0371 0.1898,-0.0365 0.37341,-0.0915 0.54095,-0.19103 0.23492,-0.13786 0.31158,-0.2646 0.31405,-0.52239 0.001,-0.14034 -0.2782,-0.16383 -0.36104,-0.16445 -0.26954,-0.002 -0.57,0.0334 -0.82656,-0.0538 -0.23802,-0.081 -0.47665,-0.0933 -0.72518,-0.0964 -0.0872,-6.2e-4 -0.16568,0.007 -0.24605,0.0111 0.034,-0.6479 -0.0167,-1.29518 0.0297,-1.94493 0.021,-0.29427 0.0822,-0.50076 0.12859,-0.68561 0.4105,-0.0328 0.82965,-0.0989 1.27477,-0.17681 0.76289,-0.13292 1.82499,0.10139 1.98202,-0.95577 0.0309,-0.20525 -0.20587,-0.27264 -0.36784,-0.27326 -1.18142,-0.006 -2.36099,0.0513 -3.5418,0.0748 -0.19288,-0.1391 -0.5224,-0.12241 -0.76659,0.008 -0.0884,6.2e-4 -0.1762,0.004 -0.2646,0.003 -0.45625,-6.2e-4 -1.2686,0.68993 -0.46058,0.69302 z m 1.94926,3.91583 c 6.2e-4,6.1e-4 0.002,6.1e-4 0.003,6.1e-4 -0.001,6.2e-4 -0.002,6.2e-4 -0.004,10e-4 6.2e-4,-6.2e-4 6.2e-4,-10e-4 6.2e-4,-0.002 z"
         inkscape:connector-curvature="0"
         style="fill:#ffffff" />
      <path
         inkscape:export-ydpi="277"
         inkscape:export-xdpi="277"
         id="path49657-6"
         d="m 133.6497,695.89475 c 0.48778,-0.60648 0.58113,-1.34711 0.2034,-2.21756 -0.27078,-0.62441 -0.99843,-1.07633 -1.42562,-1.57276 -0.3289,-0.37155 -0.56877,-0.79689 -0.71838,-1.27601 -0.0136,-0.28748 -0.0284,-0.57557 -0.042,-0.86304 0.006,-0.14467 0.0266,-0.26089 0.0532,-0.3629 0.055,-0.021 0.10448,-0.0451 0.15332,-0.0705 0.1595,0.0155 0.32024,0.0315 0.48036,0.0272 0.11622,-0.003 0.22998,-0.0204 0.34311,-0.0426 0.0433,0.0328 0.0841,0.0593 0.13045,0.0977 -0.2714,0.6244 0.93228,0.60709 1.14,0.1292 0.076,-0.17557 0.11684,-0.33816 0.14034,-0.49272 0.0649,-0.0402 0.12364,-0.0896 0.16877,-0.14837 0.12674,-0.16754 -0.0167,-0.26151 -0.16754,-0.29613 -0.19536,-1.07014 -1.77862,-1.35514 -2.73872,-0.40741 -0.80493,0.79442 -1.00276,1.65436 -0.85501,2.75047 0.0965,0.71281 0.72518,1.36998 1.16474,1.88125 0.24667,0.2306 0.49705,0.45811 0.74866,0.68376 0.14034,0.23987 0.28006,0.47974 0.4204,0.72023 -1.3094,1.86023 -1.86827,1.82932 -1.67724,-0.0927 0.0235,-0.0365 0.0494,-0.076 0.0711,-0.1088 0.36043,-0.54033 -0.80121,-0.5428 -1.0689,-0.23616 -0.22751,0.26212 -0.35919,0.52301 -0.42658,0.77648 -0.60215,1.46705 -0.0773,2.97984 1.85467,2.97613 0.70601,-0.002 1.7168,-0.96196 2.04755,-1.85467 z"
         inkscape:connector-curvature="0"
         style="fill:#ffffff" />
      <path
         inkscape:export-ydpi="277"
         inkscape:export-xdpi="277"
         id="path49545-1"
         d="m 140.67077,690.49703 c 0.12612,-0.12426 0.25286,-0.24791 0.37836,-0.3765 0.29118,-0.29675 2.0494,-1.87198 1.88372,-2.39499 -0.005,-0.0136 -0.0142,-0.0223 -0.0216,-0.0346 0.0118,-0.047 0.0266,-0.094 0.0278,-0.14158 0.01,-0.53476 -1.19131,-0.29798 -1.19873,0.13416 -6.2e-4,0.0247 -0.0124,0.0556 -0.0254,0.0884 -0.45377,0.2986 -0.84387,0.79504 -1.16164,1.12888 -0.64975,0.68252 -1.23026,1.425 -1.77739,2.19345 -0.1051,0.0903 -0.2003,0.2034 -0.29056,0.32951 -0.0142,-0.10015 -0.0272,-0.20772 -0.0433,-0.30045 -0.16383,-0.92115 -0.35795,-1.86271 -0.34744,-2.79746 0.002,-0.20401 -0.0643,-0.46119 -0.18979,-0.62255 -0.0513,-0.0655 -0.12303,-0.10819 -0.20402,-0.13477 -0.004,-0.0111 -0.006,-0.0229 -0.0105,-0.034 -0.0631,-0.15765 -0.21514,-0.26893 -0.3901,-0.27202 -0.0791,-0.002 -0.14961,0.002 -0.2207,0.005 -0.62997,-0.55825 -1.40708,-0.37031 -1.53196,0.62626 -0.20339,0.10696 -0.34002,0.28068 -0.26769,0.48593 1.06458,3.01383 0.82657,6.15811 0.96567,9.31042 0.009,0.19165 0.0903,0.27634 0.25965,0.35548 0.005,0.01 0.01,0.0198 0.0142,0.0297 0.19907,0.45069 0.81605,0.28129 1.09611,0.0148 0.54898,-0.52116 0.69179,-1.08127 0.68684,-1.67785 0.16878,-0.61822 0.2646,-1.39285 0.29922,-2.19716 0.26831,0.35239 0.54589,0.69983 0.83893,1.01821 0.20896,0.22689 0.3901,0.46552 0.60277,0.68808 0.17805,0.18732 0.34187,0.87355 0.56011,1.04788 0.21514,0.17063 0.49396,0.28129 0.70786,0.43647 0.10881,0.19474 0.21762,0.39009 0.319,0.58978 0.17682,0.34991 1.18452,0.0525 1.19441,-0.32024 0.01,-0.3598 -0.11004,-0.51992 -0.37093,-0.69117 -0.4309,-0.77401 -0.90199,-1.52515 -1.33722,-2.29731 -0.54651,-0.96937 -0.93166,-1.71618 -1.65313,-2.50009 0.15889,-0.28315 0.30479,-0.56258 0.45131,-0.79318 0.21637,-0.33755 0.48406,-0.61884 0.75608,-0.89642 z"
         inkscape:connector-curvature="0"
         style="fill:#ffffff" />
      <path
         inkscape:export-ydpi="277"
         inkscape:export-xdpi="277"
         id="path49541-8"
         d="m 150.42034,697.27372 c 0,-0.0111 0,-0.0216 0,-0.0328 0.30911,-0.0785 0.59597,-0.23183 0.54157,-0.36537 -0.68129,-1.67476 -1.42563,-3.24938 -1.99624,-4.97236 -0.2745,-0.82966 -0.66769,-1.66117 -1.00833,-2.5038 -0.0822,-0.29613 -0.16506,-0.59164 -0.24419,-0.88777 0.14961,-0.39134 0.25594,-0.79256 0.25965,-1.21728 6.2e-4,-0.0612 -0.18485,-0.0717 -0.40926,-0.0457 0.004,-0.0433 0.009,-0.0872 0.0117,-0.13044 0.0346,-0.52117 -1.05654,-0.34188 -1.17895,0.0717 -0.15208,0.0661 -0.25965,0.15085 -0.27634,0.24482 -0.28562,0.0482 -0.56011,0.21699 -0.56259,0.46057 -0.0136,1.34525 -0.57123,2.70967 -0.85005,4.02525 -0.2782,1.31434 -0.59782,2.6089 -1.03058,3.87316 -0.042,0.0377 -0.0729,0.0785 -0.0804,0.1255 -0.007,0.0495 -0.0148,0.0989 -0.0229,0.14838 -0.0643,0.18052 -0.13354,0.35918 -0.20278,0.53847 -0.009,0.0111 -0.0179,0.0204 -0.0247,0.0315 -0.12735,0.21267 -0.15146,0.27016 -0.17372,0.51127 -0.0377,0.40431 0.4581,0.43461 0.82224,0.28994 0.29303,0.16445 0.94279,-0.10324 1.05407,-0.39628 0.67571,-1.77986 0.95824,-3.65617 1.6624,-5.4385 0.12241,-0.31035 0.2207,-0.62688 0.3122,-0.94526 0.67324,2.32884 1.43675,4.66201 2.20335,6.9346 0.11004,0.32704 1.19069,0.0118 1.19378,-0.31962 z"
         inkscape:connector-curvature="0"
         style="fill:#ffffff" />
      <path
         inkscape:export-ydpi="277"
         inkscape:export-xdpi="277"
         id="path49547-7"
         d="m 151.70529,688.17509 c 0.005,0 0.01,0 0.0142,0 -0.15208,0.12612 -0.22071,0.26584 0.007,0.35239 0.0488,0.0186 0.0971,0.0309 0.14528,0.0476 -0.004,0.53724 0.0507,1.07015 0.094,1.60491 0.0606,0.75238 -0.034,1.7539 0.13663,2.49329 -0.004,0.68685 -0.0229,1.37307 -0.0711,2.05745 -0.0946,0.46799 -0.20895,0.93351 -0.37402,1.39161 -0.0519,0.14343 0.14095,0.19289 0.3833,0.17929 0.006,0.002 0.013,0.004 0.0185,0.006 0.076,0.0346 0.16569,0.0593 0.2813,0.0612 0.0451,6.2e-4 0.0903,10e-4 0.13539,0.002 0.16692,0.003 0.34311,-0.0779 0.47417,-0.19969 0.10386,-0.0482 0.19413,-0.10571 0.2714,-0.1731 0.23493,-0.0723 0.47974,-0.12797 0.73136,-0.16877 0.76474,-0.0662 1.52701,-0.1391 2.30164,-0.13663 0.0835,-6.2e-4 0.16754,-10e-4 0.24853,-0.002 0.5224,-0.005 0.99348,-0.82286 0.27078,-0.83151 -0.65346,-0.008 -1.35391,-0.0964 -1.99006,0.0692 -0.16383,0.0136 -0.3258,0.0309 -0.48901,0.0513 -0.16383,-0.001 -0.32828,-0.0118 -0.47789,-0.007 -0.0556,0.002 -0.11066,0.0124 -0.16568,0.0167 0.0223,-0.2986 0.007,-0.62564 -0.0309,-0.96999 -0.0117,-0.10695 -0.0254,-0.21329 -0.0383,-0.31962 0.0216,-0.31158 0.0346,-0.62502 0.0451,-0.93723 0.0866,-0.0414 0.15023,-0.0773 0.0822,-0.0624 0.0841,-0.0222 0.16259,-0.0581 0.23925,-0.0964 0.002,-6.2e-4 0.003,-6.2e-4 0.006,-6.2e-4 0.1935,-0.0167 0.37402,-0.0575 0.55949,-0.11622 0.14157,-0.0445 0.3326,-0.009 0.48221,-0.0371 0.1898,-0.0365 0.37341,-0.0915 0.54095,-0.19103 0.23492,-0.13786 0.31158,-0.2646 0.31405,-0.52239 0.001,-0.14034 -0.2782,-0.16383 -0.36104,-0.16445 -0.26954,-0.002 -0.57,0.0334 -0.82656,-0.0538 -0.23802,-0.081 -0.47665,-0.0933 -0.72518,-0.0964 -0.0872,-6.2e-4 -0.16568,0.007 -0.24605,0.0111 0.034,-0.6479 -0.0167,-1.29518 0.0297,-1.94493 0.021,-0.29427 0.0822,-0.50076 0.12859,-0.68561 0.4105,-0.0328 0.82965,-0.0989 1.27477,-0.17681 0.76289,-0.13292 1.82499,0.10139 1.98202,-0.95577 0.0309,-0.20525 -0.20587,-0.27264 -0.36784,-0.27326 -1.18142,-0.006 -2.36099,0.0513 -3.5418,0.0748 -0.19288,-0.1391 -0.5224,-0.12241 -0.76659,0.008 -0.0884,6.2e-4 -0.1762,0.004 -0.2646,0.003 -0.45625,-6.2e-4 -1.2686,0.68993 -0.46058,0.69302 z m 1.94926,3.91583 c 6.2e-4,6.1e-4 0.002,6.1e-4 0.003,6.1e-4 -10e-4,6.2e-4 -0.002,6.2e-4 -0.004,10e-4 6.2e-4,-6.2e-4 6.2e-4,-10e-4 6.2e-4,-0.002 z"
         inkscape:connector-curvature="0"
         style="fill:#ffffff" />
      <path
         inkscape:export-ydpi="277"
         inkscape:export-xdpi="277"
         id="path49571-3"
         d="m 165.80161,693.72629 c -0.21515,-0.60091 -0.4241,-0.99286 -0.85933,-1.45653 -0.26522,-0.28253 -0.719,-0.64295 -1.00585,-1.04356 1.08065,-0.78514 1.92205,-1.84292 1.83983,-3.22959 -0.0328,-0.54033 -0.27758,-0.82347 -0.63862,-0.95392 -0.0822,-0.13415 -0.17805,-0.26645 -0.29675,-0.39566 -0.17496,-0.19041 -0.38145,-0.3153 -0.60524,-0.39752 -0.0111,-0.0643 -0.0254,-0.12983 -0.0445,-0.19536 -0.0661,-0.23121 -0.33261,-0.32518 -0.55269,-0.30787 -0.58855,0.0476 -1.19997,0.33384 -1.74277,0.75547 -0.59412,0.24852 -0.9972,0.7159 -1.25994,1.27168 -0.0179,-0.002 -0.0414,-6.2e-4 -0.0581,-0.004 -0.37032,-0.0872 -0.71343,0.19227 -0.76907,0.47109 -0.63306,0.91806 -0.49211,2.04075 -0.53353,3.11151 -0.0322,0.83831 -0.31591,1.64633 -0.56753,2.43951 -0.30911,0.9737 -0.9873,2.999 0.66088,2.98292 0.24235,-0.002 0.77896,-0.10324 0.82904,-0.41544 0.0705,-0.43709 0.46923,-0.99905 0.47294,-1.36318 0.006,-0.54342 -0.0445,-1.01574 0.18485,-1.5165 0.13539,-0.29613 0.23616,-0.61204 0.31282,-0.9397 0.11251,0.0124 0.23059,0.007 0.34991,-0.0389 0.42534,-0.16568 0.88901,-0.3697 1.34773,-0.61204 0.85994,1.47941 1.31619,3.14675 1.72917,4.80235 -0.0643,0.0797 -0.13354,0.15456 -0.21638,0.21947 -0.16445,0.12983 -0.17372,0.29984 0.0816,0.30231 0.15147,0.002 0.30355,0.003 0.45501,0.004 0.17373,0.002 1.05964,-0.0983 0.97865,-0.42472 -0.0291,-0.11684 -0.0587,-0.23492 -0.0884,-0.35239 0.52487,-0.78699 0.35176,-1.71804 -0.004,-2.71338 z m -3.3044,-3.0874 c -0.0105,0.0841 -0.001,0.16507 0.007,0.24605 -0.37959,0.27511 -0.787,0.50633 -1.18019,0.69179 0.0229,-0.21205 0.0389,-0.42533 0.0513,-0.638 0.42472,-0.57186 0.36908,-1.31434 0.0995,-1.98759 0.007,-0.055 0.0161,-0.11066 0.0247,-0.1663 0.0155,-0.0488 0.0322,-0.0983 0.0513,-0.14775 0.84511,-0.22689 1.64261,-0.70107 2.55016,-0.7258 0.0352,0.15023 0.0556,0.31406 0.0396,0.50509 -0.0593,0.72085 -0.42843,1.34649 -0.93784,1.86827 -0.31962,0.0408 -0.68438,0.18299 -0.70601,0.35424 z"
         inkscape:connector-curvature="0"
         style="fill:#ffffff" />
      <path
         inkscape:export-ydpi="277"
         inkscape:export-xdpi="277"
         id="path49539-7"
         d="m 168.47314,696.50932 c 0.31901,-0.81235 0.79318,-1.5165 1.09859,-2.33132 0.38144,-1.0176 0.604,-2.09021 0.93969,-3.12326 0.14343,-0.3221 0.29922,-0.64852 0.45811,-0.97865 0.0451,0.57989 0.12302,1.15979 0.17928,1.73535 0.12612,1.2822 0.0822,2.2423 0.48407,3.48492 0.0433,0.13354 0.19412,0.18238 0.37279,0.18114 0.3122,0.15889 1.04603,-0.0593 1.04974,-0.36475 0.001,-0.0445 0.001,-0.0896 0.002,-0.13415 l 0,-6.2e-4 c 0.0179,-1.3638 0.0816,-2.69174 -0.15703,-4.03947 -0.21946,-1.23644 -0.45439,-2.60395 -0.52919,-3.88367 0.10262,-0.0958 0.14713,-0.20402 0.0593,-0.30788 -0.0297,-0.0661 -0.06,-0.13292 -0.0897,-0.19907 -0.0346,-0.28871 -0.61822,-0.22132 -0.95639,-0.007 -0.22256,0.0538 -0.42966,0.17434 -0.49396,0.33632 -0.5292,1.33598 -1.04294,2.56191 -1.493,3.95229 -0.0241,0.0742 -0.0457,0.14776 -0.0699,0.22133 -0.10263,0.21638 -0.20154,0.42843 -0.28995,0.63553 -0.47665,1.11404 -0.90322,2.07352 -1.25005,3.15726 -0.11746,0.0816 -0.20215,0.19042 -0.21637,0.3221 -0.0235,0.22256 -0.0464,0.44635 -0.0692,0.66953 -0.005,0.0445 0.009,0.0754 0.0154,0.11252 -0.0624,0.14219 -0.12797,0.28005 -0.18608,0.42781 -0.251,0.63986 0.94835,0.62379 1.14123,0.13354 z"
         inkscape:connector-curvature="0"
         style="fill:#ffffff" />
      <path
         inkscape:export-ydpi="277"
         inkscape:export-xdpi="277"
         id="path49569-1"
         d="m 188.57052,687.38686 c 0.0971,-0.29675 0.14837,-0.60153 0.14837,-0.91126 6.2e-4,-0.0563 -0.003,-0.11314 -0.006,-0.16878 -0.004,-0.0624 -0.005,-0.12364 -0.013,-0.18608 -0.0167,-0.13416 -0.047,-0.26707 -0.0872,-0.39937 -0.004,-0.0148 -0.009,-0.0303 -0.013,-0.0457 -0.0433,-0.13601 -0.0977,-0.27078 -0.16754,-0.4037 -0.0204,-0.042 -0.0457,-0.0847 -0.0692,-0.12674 -0.0915,-0.25347 -0.23493,-0.47356 -0.4544,-0.63491 -0.4309,-0.4952 -0.90136,-0.80184 -1.39038,-0.94712 -0.19845,-0.0909 -0.39937,-0.17063 -0.60276,-0.22689 -0.0111,-0.004 -0.0167,-0.009 -0.0291,-0.0124 -0.026,-0.006 -0.0451,-0.004 -0.0692,-0.009 -0.95083,-0.23678 -1.91464,-0.0878 -2.66578,0.46799 -0.26089,0.15641 -0.45748,0.3357 -0.60276,0.54465 -0.0625,0.0198 -0.12365,0.0408 -0.18485,0.0631 -0.15332,-0.10324 -0.68499,-0.0767 -0.89643,0.0408 -0.068,0.0383 -0.13168,0.0723 -0.19165,0.10818 -0.22317,0.0556 -0.45995,0.1626 -0.50323,0.32828 0.002,0.004 0.004,0.007 0.006,0.0111 -0.46367,0.25532 -0.10634,0.43832 0.25718,0.38948 0.27572,-0.0377 0.49519,-0.0841 0.71837,-0.1459 -0.55454,0.53229 -0.60771,1.61727 -0.0624,2.09268 -0.0507,0.0742 -0.0767,0.15394 -0.0389,0.23987 0.46985,1.07138 0.80184,2.20211 1.31063,3.25371 0.13972,0.28933 0.25718,0.5836 0.36476,0.88158 0.0272,1.05655 0.11622,2.1032 0.37402,3.11275 -0.18114,0.0761 -0.32024,0.17867 -0.31097,0.29861 0.0427,0.58422 0.0952,1.49115 0.4952,1.96347 0.17372,0.20525 0.39999,0.30664 0.64481,0.3629 0.0519,0.0773 0.23121,0.0915 0.4445,0.0594 0.0668,0.004 0.13353,0.009 0.19968,0.0117 0.15147,0.006 1.08251,-0.1187 0.98051,-0.41915 -0.25471,-0.75176 -0.61699,-1.48435 -0.65779,-2.28804 -6.2e-4,-0.0117 -0.0142,-0.0161 -0.0198,-0.026 0.0315,-0.0637 0.0476,-0.13044 0.0216,-0.20216 -0.26336,-0.74001 -0.45872,-1.49919 -0.6683,-2.25466 -0.013,-0.41173 -0.0556,-0.81234 -0.13972,-1.21728 0.0315,-0.003 0.0637,-0.006 0.0903,-0.013 0.45253,-0.11437 0.92053,-0.28747 1.35081,-0.52054 0.45996,-0.11128 0.90384,-0.2646 1.29703,-0.52673 1.01822,-0.68066 1.17277,-1.46209 1.14124,-2.5446 z m -4.13529,0.2207 c -0.0952,-0.64728 -0.27078,-1.49919 -0.69241,-2.09268 0.94279,-0.41977 2.21633,-1.04418 3.11275,-0.46058 0.003,0.002 0.005,0.004 0.008,0.007 0.0457,0.0501 0.0952,0.0995 0.13601,0.15085 0.18237,0.32395 0.30416,0.68685 0.39381,1.0448 -0.008,0.26707 -0.042,0.54156 -0.0365,0.80554 0.004,0.16321 0.0173,0.33508 0.0309,0.51065 -0.0247,0.068 -0.0513,0.13539 -0.0816,0.20154 -0.29551,0.0643 -0.60648,0.20834 -0.64234,0.35177 -0.009,0.034 -0.0204,0.0649 -0.0297,0.0983 -0.0785,0.0532 -0.16012,0.10881 -0.2442,0.16754 -0.45501,0.16445 -0.88035,0.44574 -1.22408,0.79318 -0.15641,-0.0192 -0.39195,0.003 -0.60339,0.0525 -0.0155,-0.54404 -0.0476,-1.08869 -0.12735,-1.63026 z"
         inkscape:connector-curvature="0"
         style="fill:#ffffff" />
      <path
         inkscape:export-ydpi="277"
         inkscape:export-xdpi="277"
         id="path49571-9"
         d="m 195.89399,691.74285 c -0.21515,-0.60091 -0.4241,-0.99286 -0.85933,-1.45653 -0.26522,-0.28253 -0.719,-0.64295 -1.00585,-1.04356 1.08065,-0.78514 1.92205,-1.84292 1.83983,-3.22959 -0.0328,-0.54033 -0.27758,-0.82347 -0.63862,-0.95392 -0.0822,-0.13415 -0.17805,-0.26645 -0.29675,-0.39566 -0.17496,-0.19041 -0.38145,-0.3153 -0.60524,-0.39752 -0.0111,-0.0643 -0.0254,-0.12983 -0.0445,-0.19536 -0.0661,-0.23121 -0.33261,-0.32518 -0.55269,-0.30787 -0.58855,0.0476 -1.19997,0.33384 -1.74277,0.75547 -0.59412,0.24852 -0.9972,0.7159 -1.25994,1.27168 -0.0179,-0.002 -0.0414,-6.2e-4 -0.0581,-0.004 -0.37032,-0.0872 -0.71343,0.19227 -0.76907,0.47109 -0.63306,0.91806 -0.49211,2.04075 -0.53353,3.11151 -0.0322,0.83831 -0.31591,1.64633 -0.56753,2.43951 -0.30911,0.9737 -0.9873,2.999 0.66088,2.98292 0.24235,-0.002 0.77896,-0.10324 0.82904,-0.41544 0.0705,-0.43709 0.46923,-0.99905 0.47294,-1.36318 0.006,-0.54342 -0.0445,-1.01574 0.18485,-1.5165 0.13539,-0.29613 0.23616,-0.61204 0.31282,-0.9397 0.11251,0.0124 0.23059,0.007 0.34991,-0.0389 0.42534,-0.16568 0.88901,-0.3697 1.34773,-0.61204 0.85994,1.47941 1.31619,3.14675 1.72917,4.80235 -0.0643,0.0797 -0.13354,0.15456 -0.21638,0.21947 -0.16445,0.12983 -0.17372,0.29984 0.0816,0.30231 0.15147,0.002 0.30355,0.003 0.45501,0.004 0.17373,0.002 1.05964,-0.0983 0.97865,-0.42472 -0.0291,-0.11684 -0.0587,-0.23492 -0.0884,-0.35239 0.52487,-0.78699 0.35176,-1.71804 -0.004,-2.71338 z m -3.3044,-3.0874 c -0.0105,0.0841 -10e-4,0.16507 0.007,0.24605 -0.37959,0.27511 -0.787,0.50633 -1.18019,0.69179 0.0229,-0.21205 0.0389,-0.42533 0.0513,-0.638 0.42472,-0.57186 0.36908,-1.31434 0.0995,-1.98759 0.007,-0.055 0.0161,-0.11066 0.0247,-0.1663 0.0155,-0.0488 0.0322,-0.0983 0.0513,-0.14775 0.84511,-0.22689 1.64261,-0.70107 2.55016,-0.7258 0.0352,0.15023 0.0556,0.31406 0.0396,0.50509 -0.0593,0.72085 -0.42843,1.34649 -0.93784,1.86827 -0.31962,0.0408 -0.68438,0.18299 -0.70601,0.35424 z"
         inkscape:connector-curvature="0"
         style="fill:#ffffff" />
      <path
         inkscape:export-ydpi="277"
         inkscape:export-xdpi="277"
         id="path49573-40"
         d="m 202.36188,684.70377 c 0.37403,-0.19721 0.59844,-0.55578 -0.0742,-0.41544 -0.17187,0.0365 -0.34497,0.0903 -0.51622,0.15455 -0.65903,-0.20463 -1.4114,-0.17001 -2.07599,0.12488 -0.068,-0.0124 -0.13601,-0.0167 -0.19289,-0.0173 -0.076,-6.2e-4 -0.15208,-0.001 -0.22812,-0.002 -0.50571,-0.004 -0.77278,0.47232 -0.52982,0.71157 -0.13044,0.14652 -0.25285,0.30479 -0.35486,0.48654 -0.88591,1.57585 -2.01788,5.0175 0.34559,5.58626 0.35177,0.35424 0.81482,0.58422 1.4318,0.58855 1.12022,0.007 2.00861,-1.1604 2.43765,-2.05312 0.27635,-0.57556 0.49953,-1.14804 0.60648,-1.71309 0.10201,-0.36908 0.17125,-0.74434 0.21143,-1.10971 0.12179,-1.11589 -0.35115,-1.90536 -1.06087,-2.34183 z m -2.57242,4.95258 c -0.42348,-1.19378 0.32704,-3.44411 1.47137,-4.41287 0.0835,0.0668 0.16321,0.14343 0.23925,0.22689 -0.17125,0.12797 -0.24976,0.30293 -0.10077,0.47479 0.87849,1.01327 0.82533,2.03519 0.32704,3.21909 -0.0136,0.0334 -0.0297,0.0699 -0.0451,0.10695 -0.46614,0.88159 -1.41202,1.73844 -1.89176,0.38515 z"
         inkscape:connector-curvature="0"
         style="fill:#ffffff" />
      <path
         id="path49865-0-6-8"
         d="m 207.42156,692.56465 c -0.0109,-0.0113 -0.0248,-0.0186 -0.0368,-0.0287 -0.36936,-0.28752 -0.73935,-0.57899 -1.10818,-0.86927 -0.0344,-0.0267 -0.0804,-0.0329 -0.13127,-0.0319 -0.0411,-0.0101 -0.0794,-0.0166 -0.11877,-0.0284 3.8e-4,-0.002 6e-4,5e-4 6e-4,5e-4 -0.006,-0.005 -0.0166,0.0105 -0.0231,0.005 -0.0725,-0.0163 -0.14788,-0.0535 -0.21966,-0.0523 0.38071,-0.76425 0.75269,-1.54064 1.04662,-2.67652 0.13524,-0.4728 0.27817,-0.91053 0.4203,-1.35843 0.29576,-0.56871 0.58606,-1.18026 0.87839,-1.81634 0.21379,-0.4661 0.0413,-0.71925 -0.1058,-0.8196 0.0782,-0.18218 0.10365,-0.38973 0.0317,-0.55073 0.18191,-0.23296 0.25789,-0.52434 -0.0292,-0.71433 -0.73931,-0.49075 -1.53236,-0.65482 -2.27085,-1.14973 -0.11315,-0.0711 -0.34562,0.0302 -0.53596,0.20353 -0.21743,-0.15918 -0.43193,-0.33682 -0.64795,-0.50671 -0.26748,-0.20146 -1.2138,0.61659 -0.63082,1.07562 0.18049,0.12798 0.35686,0.27695 0.535,0.4169 -0.34595,0.18748 -0.73827,0.68182 -0.30663,1.02015 0.19836,0.14308 0.3926,0.30716 0.58975,0.45996 0.0197,0.0412 0.0418,0.0598 0.0633,0.0884 -0.28533,0.21483 -0.61456,0.80539 -0.20802,1.05571 0.0345,0.0292 0.0738,0.0273 0.11009,0.0478 0.028,0.0482 0.0583,0.0849 0.10612,0.12464 0.37473,0.2885 0.75592,0.5335 1.15261,0.62526 -0.23434,0.39387 -0.4481,0.94118 -0.63693,1.75059 -0.064,0.27294 -0.0484,0.44832 0.012,0.55425 -0.10772,0.32903 -0.21182,0.67542 -0.3181,1.0892 -0.0298,0.11556 -0.0383,0.21587 -0.0328,0.30169 -0.0233,0.0877 -0.0457,0.15469 -0.0697,0.2489 -0.009,0.0334 -0.005,0.053 -0.0113,0.0836 -0.0927,0.18917 -0.18579,0.38002 -0.27907,0.56853 -0.0426,0.005 -0.0828,-0.003 -0.12612,0.006 -0.0484,0.009 -0.35846,0.17689 -0.50818,0.43699 -0.23042,0.10856 -0.42479,0.52179 -0.34386,0.83834 -0.15231,0.25558 -0.21365,0.58558 0.0489,0.7907 0.38248,0.29505 0.76598,0.57072 1.15426,0.81501 0.0174,0.0497 0.0365,0.0903 0.0537,0.11928 0.54704,0.91793 1.27128,0.587 1.92817,0.89606 0.25386,0.11875 1.23029,-0.60503 0.63081,-1.07563 -0.16146,-0.13639 -0.32706,-0.25178 -0.48971,-0.38219 0.15169,0.0518 0.3062,0.0821 0.46557,0.0736 0.0423,0.0357 0.0905,0.0485 0.134,0.0782 0.26405,0.18003 1.21797,-0.61305 0.63081,-1.07562 -0.27046,-0.20396 -0.53809,-0.41882 -0.80606,-0.62835 z"
         inkscape:connector-curvature="0"
         style="fill:#ffffff" />
      <path
         inkscape:export-ydpi="277"
         inkscape:export-xdpi="277"
         id="path49547-0"
         d="m 209.82774,685.30161 c 0.005,0 0.01,0 0.0142,0 -0.15208,0.12612 -0.22071,0.26584 0.007,0.35239 0.0488,0.0186 0.0971,0.0309 0.14528,0.0476 -0.004,0.53724 0.0507,1.07015 0.094,1.60491 0.0606,0.75238 -0.034,1.7539 0.13663,2.49329 -0.004,0.68685 -0.0229,1.37307 -0.0711,2.05745 -0.0946,0.46799 -0.20895,0.93351 -0.37402,1.39161 -0.0519,0.14343 0.14095,0.19289 0.3833,0.17929 0.006,0.002 0.013,0.004 0.0185,0.006 0.076,0.0346 0.16569,0.0593 0.2813,0.0612 0.0451,6.2e-4 0.0903,10e-4 0.13539,0.002 0.16692,0.003 0.34311,-0.0779 0.47417,-0.19969 0.10386,-0.0482 0.19413,-0.10571 0.2714,-0.1731 0.23493,-0.0723 0.47974,-0.12797 0.73136,-0.16877 0.76474,-0.0662 1.52701,-0.1391 2.30164,-0.13663 0.0835,-6.2e-4 0.16754,-10e-4 0.24853,-0.002 0.5224,-0.005 0.99348,-0.82286 0.27078,-0.83151 -0.65346,-0.008 -1.35391,-0.0964 -1.99006,0.0692 -0.16383,0.0136 -0.3258,0.0309 -0.48901,0.0513 -0.16383,-10e-4 -0.32828,-0.0118 -0.47789,-0.007 -0.0556,0.002 -0.11066,0.0124 -0.16568,0.0167 0.0223,-0.2986 0.007,-0.62564 -0.0309,-0.96999 -0.0117,-0.10695 -0.0254,-0.21329 -0.0383,-0.31962 0.0216,-0.31158 0.0346,-0.62502 0.0451,-0.93723 0.0866,-0.0414 0.15023,-0.0773 0.0822,-0.0624 0.0841,-0.0222 0.16259,-0.0581 0.23925,-0.0964 0.002,-6.2e-4 0.003,-6.2e-4 0.006,-6.2e-4 0.1935,-0.0167 0.37402,-0.0575 0.55949,-0.11622 0.14157,-0.0445 0.3326,-0.009 0.48221,-0.0371 0.1898,-0.0365 0.37341,-0.0915 0.54095,-0.19103 0.23492,-0.13786 0.31158,-0.2646 0.31405,-0.52239 0.001,-0.14034 -0.2782,-0.16383 -0.36104,-0.16445 -0.26954,-0.002 -0.57,0.0334 -0.82656,-0.0538 -0.23802,-0.081 -0.47665,-0.0933 -0.72518,-0.0964 -0.0872,-6.2e-4 -0.16568,0.007 -0.24605,0.0111 0.034,-0.6479 -0.0167,-1.29518 0.0297,-1.94493 0.021,-0.29427 0.0822,-0.50076 0.12859,-0.68561 0.4105,-0.0328 0.82965,-0.0989 1.27477,-0.17681 0.76289,-0.13292 1.82499,0.10139 1.98202,-0.95577 0.0309,-0.20525 -0.20587,-0.27264 -0.36784,-0.27326 -1.18142,-0.006 -2.36099,0.0513 -3.5418,0.0748 -0.19288,-0.1391 -0.5224,-0.12241 -0.76659,0.008 -0.0884,6.2e-4 -0.1762,0.004 -0.2646,0.003 -0.45625,-6.2e-4 -1.2686,0.68993 -0.46058,0.69302 z m 1.94926,3.91583 c 6.2e-4,6.1e-4 0.002,6.1e-4 0.003,6.1e-4 -0.001,6.2e-4 -0.002,6.2e-4 -0.004,0.001 6.2e-4,-6.2e-4 6.2e-4,-0.001 6.2e-4,-0.002 z"
         inkscape:connector-curvature="0"
         style="fill:#ffffff" />
      <path
         inkscape:export-ydpi="277"
         inkscape:export-xdpi="277"
         id="path49575-1"
         d="m 220.99151,686.92357 c 0.14775,-0.0791 0.25841,-0.17558 0.25903,-0.27759 6.2e-4,-0.076 0.001,-0.15208 0.002,-0.22812 0,-0.0495 -0.0618,-0.0767 -0.14714,-0.0903 -0.46676,-1.04851 -0.91312,-2.37088 -1.90722,-2.94769 -0.24976,-0.14528 -1.04974,-0.006 -1.15113,0.3085 -0.41173,1.26674 -0.94835,2.55882 -0.96319,3.89913 -0.0185,1.75142 -0.82223,3.5251 -0.51498,5.26787 0.0297,0.16754 0.32581,0.14157 0.61019,0.06 -0.17805,0.16259 -0.22133,0.33137 0.19845,0.32086 1.62345,-0.0414 3.19992,-0.56444 4.34548,-1.74463 0.33879,-0.34867 0.51931,-0.67139 0.59844,-0.97803 0.0124,-0.0179 0.026,-0.0328 0.0383,-0.0513 0.59782,-0.93413 -0.30725,-1.30939 -0.74681,-2.08526 -0.2578,-0.45625 -0.43708,-0.96319 -0.62131,-1.45344 z m -1.79903,-0.73322 c 0.14095,0.2034 0.30293,0.47418 0.41792,0.6751 0.0278,0.68623 0.37959,1.20739 0.78576,1.73721 0.076,0.15146 0.14219,0.30664 0.22689,0.45563 0.15332,0.27078 0.32827,0.46305 0.45872,0.64542 0.13044,0.40432 0.0952,0.78267 -0.0532,1.12455 -0.74496,1.14928 -2.01602,1.60676 -3.30131,1.80336 1.17277,-1.66735 1.36504,-4.42648 1.46519,-6.44127 z"
         inkscape:connector-curvature="0"
         style="fill:#ffffff" />
      <path
         inkscape:export-ydpi="277"
         inkscape:export-xdpi="277"
         id="path49577-4"
         d="m 228.71394,685.24151 c -0.4513,0.95268 -0.71961,1.92576 -0.94526,2.95263 -0.21514,0.97988 -0.23987,2.08155 -0.89704,2.89575 -0.24791,0.30726 -0.54095,-0.38021 -0.69179,-0.81234 -0.007,-0.45192 -0.0328,-0.8989 -0.076,-1.34031 0.0593,-0.32209 0.13786,-0.64542 0.16877,-0.94155 0.0964,-0.91868 -0.0457,-1.86333 -0.14961,-2.79808 0.0315,-0.37093 0.0624,-0.74063 0.0927,-1.11156 0.21267,-0.10757 0.35734,-0.29119 0.27882,-0.5156 -0.089,-0.25347 -0.11993,-0.37093 -0.27511,-0.56938 -0.24481,-0.31406 -0.90075,-0.22133 -1.09487,0.12797 -0.0402,0 -0.081,-6.2e-4 -0.12055,-10e-4 -0.0964,-0.001 -1.12146,0.19907 -0.9873,0.39505 0.0575,0.0841 0.102,0.16939 0.1459,0.25532 -0.17187,0.0921 -0.28562,0.21205 -0.23307,0.32395 0.15393,0.32766 0.23616,0.69921 0.48159,0.97556 0.01,0.14713 0.0192,0.29489 0.0328,0.44079 -0.013,0.28624 -0.0359,0.57556 -0.0507,0.86489 -0.06,1.1635 -0.0791,2.37212 -0.21576,3.52573 -0.0674,0.57 0.0649,1.08498 0.41545,1.46147 0.0859,0.502 0.31777,0.90137 0.9465,1.02996 0.5564,0.11437 1.23273,-0.0167 1.71989,-0.30231 2.51246,-1.47322 2.60767,-4.52044 2.64043,-7.12192 0.004,-0.24729 -1.08807,0.0612 -1.18575,0.26522 z"
         inkscape:connector-curvature="0"
         style="fill:#ffffff" />
      <path
         inkscape:export-ydpi="277"
         inkscape:export-xdpi="277"
         id="path49571-7"
         d="m 238.68324,689.67732 c -0.21515,-0.60091 -0.4241,-0.99286 -0.85933,-1.45653 -0.26522,-0.28253 -0.719,-0.64295 -1.00585,-1.04356 1.08065,-0.78514 1.92205,-1.84292 1.83983,-3.22959 -0.0328,-0.54033 -0.27758,-0.82347 -0.63862,-0.95392 -0.0822,-0.13415 -0.17805,-0.26645 -0.29675,-0.39566 -0.17496,-0.19041 -0.38145,-0.3153 -0.60524,-0.39752 -0.0111,-0.0643 -0.0254,-0.12983 -0.0445,-0.19536 -0.0661,-0.23121 -0.33261,-0.32518 -0.55269,-0.30787 -0.58855,0.0476 -1.19997,0.33384 -1.74277,0.75547 -0.59412,0.24852 -0.9972,0.7159 -1.25994,1.27168 -0.0179,-0.002 -0.0414,-6.2e-4 -0.0581,-0.004 -0.37032,-0.0872 -0.71343,0.19227 -0.76907,0.47109 -0.63306,0.91806 -0.49211,2.04075 -0.53353,3.11151 -0.0322,0.83831 -0.31591,1.64633 -0.56753,2.43951 -0.30911,0.9737 -0.9873,2.99899 0.66088,2.98291 0.24235,-0.002 0.77896,-0.10324 0.82904,-0.41544 0.0705,-0.43709 0.46923,-0.99904 0.47294,-1.36317 0.006,-0.54342 -0.0445,-1.01574 0.18485,-1.5165 0.13539,-0.29613 0.23616,-0.61204 0.31282,-0.9397 0.11251,0.0124 0.23059,0.007 0.34991,-0.0389 0.42534,-0.16568 0.88901,-0.3697 1.34773,-0.61204 0.85994,1.47941 1.31619,3.14675 1.72917,4.80234 -0.0643,0.0797 -0.13354,0.15456 -0.21638,0.21947 -0.16445,0.12983 -0.17372,0.29984 0.0816,0.30231 0.15147,0.002 0.30355,0.003 0.45501,0.004 0.17373,0.002 1.05964,-0.0983 0.97865,-0.42472 -0.0291,-0.11684 -0.0587,-0.23492 -0.0884,-0.35239 0.52487,-0.78698 0.35176,-1.71803 -0.004,-2.71337 z m -3.3044,-3.0874 c -0.0105,0.0841 -0.001,0.16507 0.007,0.24605 -0.37959,0.27511 -0.787,0.50633 -1.18019,0.69179 0.0229,-0.21205 0.0389,-0.42533 0.0513,-0.638 0.42472,-0.57186 0.36908,-1.31434 0.0995,-1.98759 0.007,-0.055 0.0161,-0.11066 0.0247,-0.1663 0.0155,-0.0488 0.0322,-0.0983 0.0513,-0.14775 0.84511,-0.22689 1.64261,-0.70107 2.55016,-0.7258 0.0352,0.15023 0.0556,0.31406 0.0396,0.50509 -0.0593,0.72085 -0.42843,1.34649 -0.93784,1.86827 -0.31962,0.0408 -0.68438,0.18299 -0.70601,0.35424 z"
         inkscape:connector-curvature="0"
         style="fill:#ffffff" />
      <path
         inkscape:export-ydpi="277"
         inkscape:export-xdpi="277"
         id="path49557-7"
         d="m 242.30017,693.00784 c 0.15394,-0.37032 0.28562,-0.74249 0.40247,-1.11775 0.6819,-0.81914 1.13567,-2.06919 1.55977,-2.85495 0.27078,-0.502 0.53291,-1.03305 0.76103,-1.57771 0.11747,0.29366 0.23555,0.58793 0.34868,0.89025 0.46367,1.23211 0.83027,2.32451 1.54865,3.35014 0.18423,0.59535 0.44574,1.14928 0.87664,1.61789 0.002,0.004 0.004,0.007 0.006,0.0111 10e-4,0 0.002,-6.2e-4 0.002,-6.2e-4 0.0117,0.0124 0.0186,0.026 0.0303,0.0383 0.16815,0.17558 1.25066,-0.19783 1.16164,-0.35733 -0.16198,-0.28871 -0.29799,-0.58669 -0.4241,-0.88839 0.0303,-0.034 0.0482,-0.0668 0.0408,-0.10015 -0.11499,-0.5428 -0.33817,-1.05716 -0.59164,-1.56719 -0.0111,-0.0408 -0.0204,-0.0822 -0.0315,-0.12365 -0.0396,-0.22441 -0.0952,-0.44945 -0.16197,-0.67324 -0.45625,-2.01479 -0.75609,-4.07656 -2.00675,-5.78286 0.01,-0.536 -0.0723,-1.03366 -0.39381,-1.23335 -0.7394,-0.46058 -2.04446,0.29242 -2.46671,0.88653 -1.75204,2.46114 -1.42191,5.73154 -2.42343,8.49067 -0.0408,0.1119 0.12921,0.12426 0.34744,0.094 -0.0383,0.21267 -0.042,0.40803 0.0315,0.55331 0.0321,0.0643 0.10386,0.0903 0.19288,0.0964 -0.006,0.16321 -0.0105,0.32642 -0.002,0.49643 0.0186,0.37217 1.09116,-0.005 1.19193,-0.2479 z"
         inkscape:connector-curvature="0"
         style="fill:#ffffff" />
      <path
         inkscape:export-ydpi="277"
         inkscape:export-xdpi="277"
         id="path49717-5-4-3"
         d="m 124.06512,702.20871 c 0.0396,-0.0569 0.006,-0.0971 -0.1663,-0.0989 -0.51498,-0.006 -1.03058,-0.0105 -1.54556,-0.0154 -1.03057,-0.0111 -2.06053,-0.0216 -3.09111,-0.0315 -0.25471,-0.002 -1.36442,0.48778 -0.77278,0.49396 0.11561,10e-4 0.2306,0.002 0.34621,0.004 -0.16569,0.0668 -0.31282,0.16012 -0.4241,0.28129 -0.32457,0.14219 -0.59783,0.32704 -0.2374,0.33013 0.0878,10e-4 0.17434,0.002 0.26151,0.002 0.73197,0.27388 1.51093,0.31591 2.28989,0.33199 0.59906,0.013 1.04603,-0.28871 1.51217,-0.54836 0.83213,0.0396 1.64386,-0.0359 2.35111,-0.57433 0.33569,-0.25595 -0.13478,-0.25347 -0.52364,-0.17496 z m -2.56748,0.80307 c -0.285,-0.003 -0.56938,-0.0173 -0.85438,-0.0352 -0.26893,-0.0161 -0.53353,-0.0544 -0.79565,-0.11437 -0.11437,-0.0223 -0.17311,-0.0383 -0.19474,-0.0495 0.0581,-0.006 0.1292,-0.013 0.20648,-0.0216 0.17125,0.005 0.38825,0.0185 0.43709,0.0198 0.36598,0.01 0.74001,0.0482 1.11589,0.0853 -0.10386,0.0569 -0.0797,0.0958 0.0853,0.11561 z"
         inkscape:connector-curvature="0"
         style="fill:#ffffff" />
      <path
         inkscape:export-ydpi="277"
         inkscape:export-xdpi="277"
         id="path49719-9-5-9"
         d="m 135.81753,701.88785 c -0.57618,-0.006 -1.15113,-0.0117 -1.72731,-0.0173 0.21576,-0.14095 0.3258,-0.29056 0.006,-0.30664 -1.06087,-0.0538 -2.03642,-0.29922 -3.06947,0.0711 -0.0903,0.0328 -0.52982,0.24296 -0.34003,0.39813 0.0346,0.0284 0.0717,0.0457 0.10696,0.0705 -0.17558,0.0661 -0.35115,0.12426 -0.52797,0.20463 -0.72394,0.32828 0.38392,0.38825 0.70972,0.24049 0.14281,-0.0643 0.28377,-0.10942 0.42534,-0.15641 0.47789,0.13045 0.9941,0.10324 1.50723,0.0699 -0.12241,0.13539 -0.10016,0.27202 0.24729,0.27573 0.51498,0.006 1.02995,0.0111 1.54555,0.0155 0.2034,0.002 0.57,-0.16383 0.73136,-0.31591 0.41174,-0.0785 1.11651,-0.54218 0.38515,-0.5496 z"
         inkscape:connector-curvature="0"
         style="fill:#ffffff" />
      <path
         inkscape:export-ydpi="277"
         inkscape:export-xdpi="277"
         id="path49721-4-6-5"
         d="m 143.68441,702.00284 c -0.002,0 -0.004,6.2e-4 -0.006,6.2e-4 0.026,-0.0173 0.0538,-0.0278 0.0797,-0.0457 0.36908,-0.26336 -0.15146,-0.26831 -0.34744,-0.24172 -0.47356,0.0643 -0.92115,0.23739 -1.40089,0.27387 -0.026,0.002 -0.12179,0.0235 -0.23987,0.0563 -0.004,6.1e-4 -0.0105,6.1e-4 -0.0142,10e-4 -0.40555,0.0717 -0.75176,0.23245 -1.08313,0.46923 -0.42781,0.30541 0.42905,0.22009 0.79318,0.094 0.86737,0.46553 2.05869,0.22442 2.98664,0.20711 0.14837,-0.002 0.63986,-0.18856 0.84943,-0.33075 0.48346,-0.10077 0.96567,-0.21205 1.4485,-0.32704 0.15517,-0.0371 0.87293,-0.44079 0.33693,-0.43152 -1.14186,0.0186 -2.26146,0.25533 -3.4027,0.27449 z"
         inkscape:connector-curvature="0"
         style="fill:#ffffff" />
      <path
         inkscape:export-ydpi="277"
         inkscape:export-xdpi="277"
         id="path49723-0-7-8"
         d="m 159.61107,701.7809 c -0.51498,-0.005 -1.03058,-0.0105 -1.54556,-0.0155 -0.6819,-0.007 -1.33289,0.24915 -2.00799,0.30046 -0.18237,0.0136 -0.41235,0.14961 -0.54651,0.29242 -0.49025,-0.005 -0.9805,-0.0105 -1.47013,-0.0148 -0.4241,-0.004 -1.28034,0.63306 -0.4748,0.6411 0.31221,0.003 0.62379,0.007 0.93599,0.01 -0.0958,0.16074 -0.003,0.30911 0.29737,0.31158 1.15051,0.0105 2.2899,-0.0117 3.40579,-0.32085 0.17557,-0.0482 0.67262,-0.24606 0.48159,-0.50571 -0.0229,-0.0315 -0.0532,-0.0507 -0.0779,-0.0785 0.18175,0.0105 0.36042,0.0198 0.52734,0.0216 0.4241,0.004 1.28034,-0.63367 0.4748,-0.64171 z"
         inkscape:connector-curvature="0"
         style="fill:#ffffff" />
      <path
         inkscape:export-ydpi="277"
         inkscape:export-xdpi="277"
         id="path49725-4-1-5"
         d="m 172.48493,701.70053 c 0.19351,-0.17434 0.21885,-0.41545 -0.19288,-0.40061 -0.60895,0.021 -1.18328,0.12117 -1.77925,0.24296 -0.14466,0.0297 -0.29427,0.0451 -0.44512,0.0544 -0.10819,6.2e-4 -0.21699,0 -0.32333,0.004 -0.0142,6.1e-4 -0.0278,0.003 -0.042,0.004 -0.37773,-0.002 -0.75979,-0.0297 -1.12145,-0.0334 -0.13663,-10e-4 -0.60772,0.10262 -0.77711,0.285 -0.0513,0.004 -0.10201,0.013 -0.15394,0.0142 -0.40617,0.0136 -1.28157,0.65222 -0.47912,0.6244 0.33322,-0.0117 0.66212,-0.0538 0.99039,-0.10015 0.073,0.0284 0.14838,0.0495 0.22689,0.0637 -0.14157,0.0631 -0.28376,0.12426 -0.41977,0.20154 -0.33693,0.19227 -0.25842,0.46119 0.12364,0.46305 0.80555,0.004 1.574,-0.0896 2.32576,-0.38639 0.0563,-0.0223 0.22132,-0.11128 0.31591,-0.21267 0.58731,-0.013 1.17648,0.0198 1.69207,0.0247 0.26708,0.003 0.83337,-0.12859 0.83708,-0.47232 0.001,-0.10325 0.002,-0.20587 0.003,-0.30911 10e-4,-0.19598 -0.43523,-0.19413 -0.78082,-0.0674 z m -0.34126,0.217 c -0.0451,-6.2e-4 -0.0903,0 -0.13601,-6.2e-4 0.0692,-0.0223 0.13972,-0.0414 0.20896,-0.0674 -0.0272,0.0216 -0.0538,0.0433 -0.0729,0.068 z"
         inkscape:connector-curvature="0"
         style="fill:#ffffff" />
      <path
         inkscape:export-ydpi="277"
         inkscape:export-xdpi="277"
         id="path49727-0-6-8"
         d="m 186.52724,701.50517 c -1.22532,0.0186 -2.43332,0.2442 -3.65864,0.26893 -0.28377,-0.003 -0.56815,-0.006 -0.85253,-0.009 -0.001,0 -0.003,6.2e-4 -0.004,6.2e-4 -0.0995,-10e-4 -0.19968,-0.002 -0.29984,-0.003 -0.002,0 -0.003,-6.2e-4 -0.005,-6.2e-4 -0.30911,-0.003 -0.61822,-0.006 -0.92734,-0.009 -0.2615,-0.002 -1.36627,0.50014 -0.76906,0.50571 0.44821,0.004 0.8958,0.009 1.34463,0.013 -0.26398,0.14033 -0.4513,0.30416 -0.1119,0.30787 1.72299,0.0173 3.99063,0.3153 5.48735,-0.7975 0.27943,-0.20711 0.0278,-0.28068 -0.2034,-0.27697 z"
         inkscape:connector-curvature="0"
         style="fill:#ffffff" />
      <path
         inkscape:export-ydpi="277"
         inkscape:export-xdpi="277"
         id="path49729-5-5-7"
         d="m 198.06575,701.52001 c -0.0482,-0.0148 -0.0952,-0.0235 -0.14343,-0.0377 0.36166,-0.21576 0.60524,-0.59597 0.0154,-0.60153 -0.78823,-0.007 -1.53875,0.0365 -2.29484,0.19968 -0.36908,0.0377 -0.73754,0.0686 -1.10909,0.0742 -0.14219,0.002 -0.30787,0.068 -0.45068,0.1595 -0.41359,0.0643 -0.8278,0.12612 -1.24943,0.13848 -0.62688,0.0173 -0.96257,0.76042 -0.14219,0.73754 0.26336,-0.007 0.52301,-0.0371 0.78205,-0.0717 0.0513,0.0507 0.14095,0.0872 0.30231,0.089 1.23645,0.013 2.47289,0.0254 3.70934,0.0383 0.33074,0.003 1.28219,-0.50323 0.58051,-0.72579 z"
         inkscape:connector-curvature="0"
         style="fill:#ffffff" />
      <path
         inkscape:export-ydpi="277"
         inkscape:export-xdpi="277"
         id="path49731-3-4-2"
         d="m 209.05094,701.26716 c -0.0859,-6.2e-4 -0.17063,-0.002 -0.25594,-0.002 0.0266,-0.16568 -0.0631,-0.31034 -0.35857,-0.31344 -0.30911,-0.003 -0.61822,-0.006 -0.92733,-0.009 -0.26337,-0.003 -0.57371,0.0723 -0.73507,0.30108 -0.37402,-0.004 -0.74805,-0.007 -1.12146,-0.0118 -0.2683,-0.003 -0.58545,0.0736 -0.74495,0.3122 -0.49829,0.0822 -1.00956,0.72641 -0.37588,0.80184 6.1e-4,0.11684 0.076,0.22627 0.24172,0.29303 0.88221,0.35363 1.84911,0.0754 2.76284,0.0525 0.30478,-0.008 0.60338,-0.2918 0.63553,-0.52363 0.20031,-0.0383 0.40123,-0.0711 0.60648,-0.0822 0.4989,-0.026 1.00956,-0.80987 0.27263,-0.8179 z"
         inkscape:connector-curvature="0"
         style="fill:#ffffff" />
      <path
         inkscape:export-ydpi="277"
         inkscape:export-xdpi="277"
         id="path49733-5-1-8"
         d="m 219.73691,701.86436 c 0,0 -6.2e-4,0 -0.001,0 -1.13382,-0.0111 -2.26639,-0.0229 -3.40021,-0.0346 -0.2306,-0.002 -1.35453,0.44945 -0.78267,0.45501 0.30726,0.003 0.61513,0.006 0.92239,0.009 0.002,6.2e-4 0.003,6.2e-4 0.005,6.2e-4 0.80308,0.008 1.60737,0.0161 2.41044,0.0241 -0.32394,0.12612 -0.60338,0.28933 -0.25038,0.30664 0.59535,0.0297 1.31991,0.12736 1.96595,0.0198 0.0661,6.2e-4 0.13168,10e-4 0.19783,0.002 0.22936,0.002 1.34402,-0.44574 0.78824,-0.45439 0.0662,-0.0612 0.13539,-0.11685 0.19288,-0.19289 0.0798,-0.10448 -0.16259,-0.11623 -0.19536,-0.11623 -0.61698,-0.006 -1.23459,-0.013 -1.85281,-0.0192 z"
         inkscape:connector-curvature="0"
         style="fill:#ffffff" />
      <path
         inkscape:export-ydpi="277"
         inkscape:export-xdpi="277"
         id="path49735-0-9-9"
         d="m 232.81603,701.02543 c -1.54741,-0.56382 -2.98293,-0.10386 -4.56743,-0.0804 -0.3969,0.006 -1.29209,0.60772 -0.48036,0.61575 0.0303,0 0.0606,6.2e-4 0.0903,6.2e-4 -0.0637,0.0581 -0.1051,0.11623 -0.1119,0.16568 -0.31467,0.18052 -0.51498,0.44698 0.0148,0.45192 1.13258,0.0111 2.2664,0.0229 3.39899,0.0346 0.21081,0.002 0.55578,-0.15827 0.71899,-0.31592 0.25533,-0.0513 0.61451,-0.25656 0.69612,-0.41359 0.23183,-0.11931 0.55887,-0.34249 0.24049,-0.45872 z"
         inkscape:connector-curvature="0"
         style="fill:#ffffff" />
      <path
         inkscape:export-ydpi="277"
         inkscape:export-xdpi="277"
         id="path49737-2-7-6"
         d="m 242.45783,700.73363 c -1.76441,-0.0408 -3.40765,-0.2374 -5.10899,0.35301 -0.39257,0.13662 -0.50076,0.61265 0.013,0.6176 0.10324,10e-4 0.20587,0.002 0.30911,0.003 0.2003,0.002 0.40061,0.004 0.60091,0.006 0,0 -6.2e-4,6.2e-4 -0.001,6.2e-4 -0.52117,0.22751 -0.38516,0.65779 0.16444,0.61142 0.31406,-0.0266 0.5935,-0.0896 0.82904,-0.25718 0.0457,-0.0124 0.0921,-0.0235 0.13848,-0.034 0.11685,6.2e-4 0.23369,0.002 0.34992,0.003 0.31405,0.003 0.62935,0.006 0.94279,0.01 0,0.009 0,0.0186 0,0.0284 -0.006,0.52178 1.19316,0.27573 1.19687,-0.14034 6.2e-4,-0.0686 0.001,-0.13848 0.002,-0.2071 0.0365,-0.007 0.0723,-0.0111 0.1088,-0.0179 0.23555,-0.0482 0.45563,-0.26151 0.48036,-0.43523 0.33013,-0.20525 0.53167,-0.52858 -0.026,-0.54156 z"
         inkscape:connector-curvature="0"
         style="fill:#ffffff" />
      <path
         inkscape:export-ydpi="277"
         inkscape:export-xdpi="277"
         id="path49739-3-0-9"
         d="m 252.94226,700.83378 c -0.021,0.004 -0.0426,0.007 -0.0804,0.0179 -0.14838,0.0291 -0.29861,0.0488 -0.44945,0.0692 -0.0148,-6.2e-4 -0.026,-0.002 -0.0414,-0.002 -1.02996,-0.0111 -2.05992,-0.021 -3.08988,-0.0315 -0.27264,-0.003 -0.88653,0.30787 -0.80431,0.4581 -0.10386,0.0525 -0.19659,0.11128 -0.25594,0.16754 -0.4037,0.089 -1.09487,0.51374 -0.37526,0.52178 0.41173,0.004 0.82409,0.009 1.23644,0.013 0.0927,10e-4 0.22627,-0.0352 0.35857,-0.089 1.01389,-0.0754 2.0253,-0.18052 3.04413,-0.18609 0.1459,-6.1e-4 1.08622,-0.37958 0.76783,-0.50137 0.32395,-0.0971 0.59473,-0.24482 0.69921,-0.47604 0.0921,-0.20277 -0.6516,-0.16073 -1.00956,0.0389 z"
         inkscape:connector-curvature="0"
         style="fill:#ffffff" />
    </g>
  </g>
</svg>
