<?xml version="1.0" encoding="UTF-8" standalone="no"?>
<!-- Created with Inkscape (http://www.inkscape.org/) -->

<svg
   xmlns:dc="http://purl.org/dc/elements/1.1/"
   xmlns:cc="http://creativecommons.org/ns#"
   xmlns:rdf="http://www.w3.org/1999/02/22-rdf-syntax-ns#"
   xmlns:svg="http://www.w3.org/2000/svg"
   xmlns="http://www.w3.org/2000/svg"
   xmlns:sodipodi="http://sodipodi.sourceforge.net/DTD/sodipodi-0.dtd"
   xmlns:inkscape="http://www.inkscape.org/namespaces/inkscape"
   width="50.318939mm"
   height="6.5953989mm"
   viewBox="0 0 178.29544 23.369523"
   id="svg51980"
   version="1.1"
   inkscape:version="0.91 r13725"
   sodipodi:docname="peticion.svg">
  <defs
     id="defs51982" />
  <sodipodi:namedview
     id="base"
     pagecolor="#ffffff"
     bordercolor="#666666"
     borderopacity="1.0"
     inkscape:pageopacity="0.0"
     inkscape:pageshadow="2"
     inkscape:zoom="1.3084412"
     inkscape:cx="449.79299"
     inkscape:cy="-111.68785"
     inkscape:document-units="px"
     inkscape:current-layer="layer1"
     showgrid="false"
     inkscape:window-width="1598"
     inkscape:window-height="879"
     inkscape:window-x="0"
     inkscape:window-y="19"
     inkscape:window-maximized="1"
     fit-margin-top="0"
     fit-margin-left="0"
     fit-margin-right="0"
     fit-margin-bottom="0" />
  <metadata
     id="metadata51985">
    <rdf:RDF>
      <cc:Work
         rdf:about="">
        <dc:format>image/svg+xml</dc:format>
        <dc:type
           rdf:resource="http://purl.org/dc/dcmitype/StillImage" />
        <dc:title></dc:title>
      </cc:Work>
    </rdf:RDF>
  </metadata>
  <g
     inkscape:label="Capa 1"
     inkscape:groupmode="layer"
     id="layer1"
     transform="translate(-369.29171,-701.55757)">
    <g
       id="g125723"
       style="fill:#ffffff">
      <path
         inkscape:export-ydpi="277"
         inkscape:export-xdpi="277"
         id="path49641-8"
         d="m 376.85684,717.78168 c 1.01697,-0.0192 1.22779,-0.94897 1.29703,-1.81139 0.0618,-0.76969 0.0717,-1.55421 0.0593,-2.34368 0.18114,-0.74249 0.35424,-1.48312 0.47417,-2.2188 1.09426,-0.27079 2.68124,-0.47233 3.51213,-1.20987 0.055,-0.0445 0.10509,-0.0927 0.15208,-0.14281 0.006,-0.006 0.0111,-0.0111 0.0155,-0.0167 0.0946,-0.102 0.17804,-0.21205 0.23616,-0.33878 0.0983,-0.10077 0.18917,-0.20278 0.25965,-0.30602 0.0136,-0.0198 -0.004,-0.0346 -0.0346,-0.0457 0.1459,-0.29799 0.19907,-0.64914 0.11993,-1.06273 -0.13971,-0.72579 -0.94217,-1.16287 -1.66672,-1.33783 -0.0254,-0.0186 -0.0761,-0.0322 -0.15951,-0.0371 -0.12302,-0.0235 -0.24296,-0.0408 -0.35362,-0.0488 -1.02934,-0.0705 -1.84477,0.2714 -2.74862,0.60462 -0.16506,-0.013 -0.34744,0.0309 -0.47294,0.0835 -0.15455,0.0643 -0.2646,0.12426 -0.34929,0.19103 -0.24049,0.0686 -0.44327,0.22503 -0.4377,0.44759 0.0105,0.43399 0.0915,3.92015 0.14775,6.34915 -0.25656,0.94217 -0.53167,1.8794 -0.60338,2.84815 -0.0229,0.31035 0.3054,0.40123 0.55269,0.39628 z m 1.93874,-9.88847 c 0.0779,-0.003 0.15394,-0.013 0.22875,-0.0278 0.67015,-0.0711 1.33227,-0.0637 1.9035,0.32209 0.54404,0.36661 0.70107,1.04109 0.4884,1.62593 -0.008,0.021 -0.0216,0.0346 -0.0309,0.0544 -0.17558,0.12241 -0.37403,0.23678 -0.50633,0.34497 -0.042,0.0346 -0.0835,0.0525 -0.12488,0.0816 -0.47665,0.15517 -1.04665,0.15641 -1.4825,0.17186 -0.089,0.003 -0.2986,0.0828 -0.48468,0.17681 0.0828,-0.85129 0.0989,-2.00366 -0.251,-2.70967 0.0859,-0.0173 0.17248,-0.0371 0.25965,-0.0402 z"
         inkscape:connector-curvature="0"
         style="fill:#ffffff" />
      <path
         inkscape:export-ydpi="277"
         inkscape:export-xdpi="277"
         id="path49643-1"
         d="m 384.28725,715.99934 c 0.003,-0.69797 0.0693,-1.3842 0.16507,-2.0661 0.0525,-0.2782 0.10077,-0.55701 0.14343,-0.8346 0.20587,-0.57432 0.39937,-1.14494 0.51003,-1.70938 6.2e-4,-0.004 0.002,-0.009 0.002,-0.013 0.29551,0.0315 0.59473,0.0451 0.89395,0.0383 0.13045,0.27449 0.24297,0.56876 0.41545,0.79379 0.12426,0.4037 0.28933,0.79318 0.40741,1.22408 0.10881,0.39814 0.21019,0.78947 0.32518,1.17772 6.2e-4,0.002 0.001,0.004 0.002,0.005 0.12488,0.4204 0.26769,0.83584 0.4581,1.24634 0.19536,0.42101 1.25932,0.15023 1.19441,-0.32024 -0.0692,-0.50199 -0.25286,-0.90137 -0.48593,-1.34896 -0.23492,-0.45068 0.0173,-0.99039 -0.0699,-1.46333 -0.0569,-0.3054 -0.38577,-0.59597 -0.57927,-0.81173 -0.034,-0.0383 -0.0624,-0.0884 -0.0934,-0.1323 -0.0544,-0.19412 -0.0946,-0.39442 -0.11437,-0.60215 0.821,-0.26027 1.54061,-0.75485 1.99377,-1.58388 0.53229,-0.97741 -0.005,-1.45221 -0.82904,-1.7063 -0.17434,-0.0859 -0.34497,-0.15764 -0.48098,-0.21452 -0.32889,-0.13663 -0.6751,-0.23369 -1.01821,-0.32642 -0.24667,-0.0668 -0.49643,-0.0835 -0.75176,-0.0952 -0.0544,-0.002 -0.54094,-0.0192 -0.8346,-0.10139 0,-0.0111 0.002,-0.0216 0.002,-0.0328 6.2e-4,-0.0192 -0.009,-0.0309 -0.0105,-0.0482 0,-0.0235 0.002,-0.047 0.001,-0.0705 -6.2e-4,-0.0142 -0.0161,-0.0223 -0.0229,-0.034 -0.021,-0.0593 -0.0544,-0.10758 -0.0995,-0.14467 -6.2e-4,-0.004 -0.008,-0.006 -0.01,-0.01 -0.0124,-0.0105 -0.0204,-0.0247 -0.0346,-0.0334 -0.0186,-0.0111 -0.0427,-0.0192 -0.0729,-0.026 -0.17372,-0.0674 -0.40185,-0.0513 -0.59906,0.0359 -0.18423,0.0396 -0.35239,0.0983 -0.4241,0.17001 -0.28624,0.28809 -0.19227,0.47665 0.0321,0.60215 -0.0754,1.20306 -0.29428,2.38015 -0.53229,3.55292 -0.0692,0.0563 -0.12241,0.1187 -0.12736,0.19289 -0.0173,0.25903 -0.0457,0.54156 -0.0779,0.83213 -0.0946,0.47232 -0.18238,0.94464 -0.25842,1.42067 -0.40617,1.10538 -0.81296,2.31895 -0.77216,3.44412 0.0118,0.31838 1.10106,-0.005 1.18946,-0.25347 0.0334,-0.0933 0.0631,-0.19536 0.0946,-0.29304 0.22441,-0.0668 0.46738,-0.23431 0.46799,-0.46058 z m 4.105,-6.67371 c -0.0383,0.1966 -0.11684,0.39628 -0.21514,0.57371 -0.27078,0.30726 -0.75485,0.502 -1.2723,0.62503 -0.0476,-0.009 -0.10324,-0.0155 -0.17496,-0.0136 -0.0383,6.2e-4 -0.0754,10e-4 -0.11375,0.002 -0.12797,0.002 -0.40123,0.0569 -0.6003,0.16321 -0.31343,0.0359 -0.59349,0.0532 -0.79688,0.0637 0.14899,-0.87355 0.25903,-1.76318 0.29922,-2.64971 0.60153,0.055 1.25499,0.0495 1.83488,0.17001 0.4717,0.19907 1.02563,0.53662 1.03923,1.0652 z"
         inkscape:connector-curvature="0"
         style="fill:#ffffff" />
      <path
         inkscape:export-ydpi="277"
         inkscape:export-xdpi="277"
         id="path49645-6"
         d="m 394.81311,709.65762 c -0.13292,-1.58327 -1.47446,-2.5106 -2.63115,-1.93318 -0.24606,-0.23307 -1.03862,-0.0606 -1.1363,0.3462 -0.0575,0.23863 -0.10077,0.4785 -0.14528,0.71837 -0.32457,0.38701 -0.57865,0.81915 -0.70786,1.15114 -0.0729,0.18855 0.24852,0.22441 0.35362,0.22194 0.0377,-0.001 0.0748,-0.002 0.11252,-0.003 0.009,0 0.0198,-0.002 0.0297,-0.004 -10e-4,0.009 -10e-4,0.0161 -0.002,0.0241 -0.0835,0.37093 -0.13787,0.74496 -0.17372,1.14865 -0.089,0.98792 -0.40617,1.9437 -0.55455,2.92667 -0.0958,0.63924 -0.0692,1.86703 0.69983,2.14091 1.39347,0.49705 2.14338,-0.84821 2.5174,-1.95792 1.0009,-1.3978 1.78667,-3.02743 1.63829,-4.78009 z m -2.81538,4.71333 c -0.10139,0.13724 -0.20773,0.26954 -0.31962,0.39751 -0.19351,0.22133 -0.21267,0.22998 -0.0569,0.0247 -0.27696,-0.889 0.0513,-1.8491 0.0742,-2.748 0.006,-0.24419 0.0241,-0.49148 0.0408,-0.73754 0.13415,-0.75114 0.12735,-1.4794 0.42224,-2.23487 0.0241,-0.0624 -0.006,-0.10324 -0.0562,-0.13416 0.10015,-0.0346 0.18794,-0.0872 0.25223,-0.15764 0.0538,0.0359 0.11004,0.0785 0.17063,0.13786 0.6819,0.66274 0.56691,1.61974 0.30911,2.43209 -0.30169,0.95144 -0.48159,1.91773 -0.73816,2.87783 -0.0328,0.047 -0.0649,0.0952 -0.0983,0.14219 z"
         inkscape:connector-curvature="0"
         style="fill:#ffffff" />
      <path
         inkscape:export-ydpi="277"
         inkscape:export-xdpi="277"
         id="path49651-50"
         d="m 397.15833,716.45012 c 1.04418,0.19289 2.41973,-0.24234 2.79066,-1.30507 0.19907,-0.33755 0.30788,-0.75855 0.29922,-1.27848 6.2e-4,-0.008 0.009,-0.0148 0.008,-0.0235 -6.2e-4,-0.0383 -0.002,-0.0754 -0.003,-0.11376 -0.0173,-0.31776 -1.20492,-0.0822 -1.19441,0.32024 10e-4,0.0383 0.002,0.0754 0.003,0.11376 0,0.006 0.007,0.009 0.008,0.013 0.006,0.0464 0.009,0.0896 0.0117,0.1323 -0.13971,0.081 -0.24048,0.19165 -0.23678,0.32518 0.005,0.19845 -0.0655,0.37279 -0.14899,0.54404 -0.34867,0.11561 -0.92548,-0.0291 -1.72978,-0.43399 -0.14034,-0.38577 -0.18176,-0.78576 -0.12488,-1.19874 0.0167,-0.25223 0.0501,-0.50879 0.0903,-0.76659 0.0797,-0.3221 0.16568,-0.63492 0.21637,-0.9125 0.14158,-0.76969 0.31406,-1.58265 0.62874,-2.29979 0.29056,-0.66149 0.43275,-0.59534 0.94835,-0.63677 0.0328,-0.002 0.0581,-0.005 0.0847,-0.007 0.0872,0.0655 0.1731,0.1323 0.25656,0.20277 0.0291,0.1527 0.14837,0.23926 0.30726,0.27017 0.0216,0.0198 0.0445,0.0383 0.0655,0.0587 0.20896,0.19226 1.31248,-0.0624 1.15484,-0.38083 -0.52797,-1.06643 -1.16041,-1.96409 -2.48402,-1.44107 -1.56287,0.6176 -1.88187,2.68988 -2.14338,4.26017 -0.007,0.0303 -0.0142,0.0631 -0.0216,0.0915 -0.35238,1.41697 -0.91806,4.07224 1.21357,4.46666 z"
         inkscape:connector-curvature="0"
         style="fill:#ffffff" />
      <path
         inkscape:export-ydpi="277"
         inkscape:export-xdpi="277"
         id="path49697-1"
         d="m 407.9433,707.43238 c -1.57585,-0.20648 -3.10347,-0.25223 -4.6787,-0.22874 -0.0717,-0.0649 -0.14343,-0.13045 -0.21515,-0.19536 -0.0587,-0.34311 -1.25313,-0.0643 -1.1944,0.32024 0.013,0.089 0.0216,0.17743 0.0346,0.26584 -0.0291,0.0464 -0.0266,0.0903 0.0161,0.12859 0.0544,0.39628 0.0989,0.79256 0.13539,1.19007 -0.17743,1.06026 -0.40741,2.10196 -0.40802,3.20734 -6.2e-4,1.4281 -0.0179,2.85928 0.10324,4.28305 0.0173,0.20834 0.32148,0.24791 0.61822,0.17805 0.14157,0.12302 0.60586,0.0649 0.90013,-0.0958 0.79937,0.2102 1.76256,0.17372 2.62869,-0.0519 0.32827,0.0192 0.65655,0.0396 0.98668,0.0606 0.31282,0.0192 0.83213,-0.14652 0.82162,-0.52673 -6.2e-4,-0.0383 -0.002,-0.0754 -0.003,-0.11375 -0.005,-0.17743 -0.217,-0.23245 -0.45934,-0.20649 -6.2e-4,-0.003 0.001,-0.007 0,-0.01 -0.17311,-0.50138 -0.7394,-0.45625 -1.18514,-0.41854 -0.38206,0.0328 -0.78576,0.12056 -1.15607,0.22071 -0.44018,0.11932 -0.89766,0.16012 -1.35515,0.1799 -0.0179,-0.0117 -0.0377,-0.0204 -0.055,-0.0328 -0.008,-0.20216 -0.0167,-0.4037 -0.0223,-0.60586 0.1187,-0.1459 0.2714,-0.27449 0.34187,-0.3425 0.31282,-0.30169 0.002,-0.43522 -0.35918,-0.42719 -0.0136,-0.72023 -0.0235,-1.44046 -0.0371,-2.16007 0.0835,0.0167 0.16507,0.0291 0.23555,0.0352 0.8278,0.0692 1.64694,-0.16568 2.45496,-0.30911 0.0816,-0.0142 0.94711,-0.29118 0.65408,-0.49705 -0.38639,-0.27078 -0.90384,-0.20649 -1.34896,-0.16816 -0.29613,0.026 -0.59597,0.0235 -0.89334,0.0303 -0.12426,0.003 -0.23368,0.0402 -0.34002,0.0841 0.009,-0.0544 0.008,-0.11189 0.007,-0.16259 -0.004,-0.1799 -0.44883,-0.17001 -0.79441,-0.0451 -0.0235,-0.79132 -0.0649,-1.58265 -0.13478,-2.37212 0.0284,-0.15146 0.0544,-0.30293 0.0785,-0.45501 0.16754,-0.0408 0.35733,-0.10819 0.49025,-0.1867 1.4046,0.19844 2.82898,0.58051 4.11983,-0.14405 0.21329,-0.12179 0.36414,-0.38144 0.0136,-0.42843 z"
         inkscape:connector-curvature="0"
         style="fill:#ffffff" />
      <path
         inkscape:export-ydpi="277"
         inkscape:export-xdpi="277"
         id="path49575-5"
         d="m 413.74393,710.39439 c 0.14775,-0.0791 0.25841,-0.17558 0.25903,-0.27759 6.2e-4,-0.076 0.001,-0.15208 0.002,-0.22812 0,-0.0495 -0.0618,-0.0767 -0.14714,-0.0903 -0.46676,-1.04851 -0.91312,-2.37088 -1.90722,-2.94769 -0.24976,-0.14528 -1.04974,-0.006 -1.15113,0.3085 -0.41173,1.26674 -0.94835,2.55882 -0.96319,3.89913 -0.0185,1.75142 -0.82223,3.5251 -0.51498,5.26787 0.0297,0.16754 0.32581,0.14157 0.61019,0.06 -0.17805,0.16259 -0.22133,0.33137 0.19845,0.32086 1.62345,-0.0414 3.19992,-0.56444 4.34548,-1.74463 0.33879,-0.34867 0.51931,-0.67139 0.59844,-0.97803 0.0124,-0.0179 0.026,-0.0328 0.0383,-0.0513 0.59782,-0.93413 -0.30725,-1.30939 -0.74681,-2.08526 -0.2578,-0.45625 -0.43708,-0.96319 -0.62131,-1.45344 z m -1.79903,-0.73322 c 0.14095,0.2034 0.30293,0.47418 0.41792,0.6751 0.0278,0.68623 0.37959,1.20739 0.78576,1.73721 0.076,0.15146 0.14219,0.30664 0.22689,0.45563 0.15332,0.27078 0.32827,0.46305 0.45872,0.64542 0.13044,0.40432 0.0952,0.78267 -0.0532,1.12455 -0.74496,1.14928 -2.01602,1.60676 -3.30131,1.80336 1.17277,-1.66735 1.36504,-4.42648 1.46519,-6.44127 z"
         inkscape:connector-curvature="0"
         style="fill:#ffffff" />
      <path
         inkscape:export-ydpi="277"
         inkscape:export-xdpi="277"
         id="path49631-8"
         d="m 416.63705,718.96172 c -0.0309,0.31282 0.49458,0.23492 0.66768,0.1867 1.10229,-0.30726 0.96504,-1.3842 0.92424,-2.35667 -0.0538,-1.28343 0.0241,-2.57057 0.013,-3.85461 -0.002,-0.30479 -0.0587,-0.70911 -0.12302,-1.14681 0.0198,-0.22132 0.0427,-0.44326 0.0742,-0.66149 0.0464,-0.3221 0.15332,-0.63121 0.26955,-0.93847 0.19288,-0.0754 0.34991,-0.18237 0.36846,-0.2986 0.0352,-0.22441 0.0154,-0.4241 -0.0365,-0.60153 0.0439,-0.13292 0.0903,-0.26522 0.12179,-0.39999 0.047,-0.20401 -0.2343,-0.25471 -0.53476,-0.20772 -0.57062,-0.44389 -1.47199,-0.35363 -1.58327,0.46614 -0.11004,0.81605 10e-4,1.6896 0.10819,2.55697 -0.15208,0.83707 -0.055,1.75266 -0.11746,2.58046 -0.11746,1.55606 0.003,3.12573 -0.15208,4.67562 z"
         inkscape:connector-curvature="0"
         style="fill:#ffffff" />
      <path
         inkscape:export-ydpi="277"
         inkscape:export-xdpi="277"
         id="path49633-6"
         d="m 417.97735,706.87979 c 0.57619,-0.0779 1.08066,-0.46676 1.19874,-1.04789 0.0661,-0.14342 0.11004,-0.29056 0.10633,-0.46799 -0.006,-0.27326 -0.22379,-0.35733 -0.45625,-0.37341 -0.2479,-0.31838 -0.81791,-0.23863 -1.19193,-0.009 -0.33693,0.20772 -0.66583,0.69673 -0.66335,1.09796 0.004,0.56073 0.46861,0.87293 1.00646,0.79998 z m -0.0909,-0.79998 c 6.2e-4,0 0.002,0 0.002,0 -0.003,0.004 -0.004,0.004 -0.008,0.01 0.006,-0.007 0.002,-0.006 0.006,-0.01 z"
         inkscape:connector-curvature="0"
         style="fill:#ffffff" />
      <path
         inkscape:export-ydpi="277"
         inkscape:export-xdpi="277"
         id="path49709-0"
         d="m 428.68268,708.60008 c -0.006,-0.22688 -0.0118,-0.45315 -0.0167,-0.68066 -10e-4,-0.0495 -0.0532,-0.0736 -0.11375,-0.0884 -0.001,-0.0451 -0.004,-0.0915 -0.006,-0.136 -0.0105,-0.40556 -1.02934,-0.021 -1.15051,0.15702 -0.0618,0.0903 -0.12488,0.17991 -0.18918,0.26955 -0.31776,0.0297 -0.6955,0.20092 -0.74619,0.40246 -0.0241,0.0958 -0.0587,0.20154 -0.0977,0.31035 -0.32333,0.34311 -0.57,0.7703 -0.77278,1.18513 -0.0241,0.0501 -0.0161,0.0884 0.005,0.11994 -0.37526,0.42348 -0.72951,0.85747 -0.92672,1.38172 -0.29118,-0.4377 -0.58855,-0.87293 -0.82285,-1.32979 -0.19907,-0.38886 -0.24853,-0.821 -0.55269,-1.16721 -0.0927,-0.10633 -0.17558,-0.20277 -0.25657,-0.30045 -0.13106,-0.4173 -0.22379,-0.84449 -0.26769,-1.25376 0.11252,-0.10386 0.0933,-0.19103 -0.23616,-0.18299 0,-10e-4 0,-0.002 0,-0.003 -0.0377,-0.61513 -0.97803,-0.50818 -1.18142,-0.0445 -0.3221,0.73444 -0.39628,1.51588 -0.38454,2.30906 -0.0593,1.04108 -0.0445,2.08341 -0.21019,3.12511 -0.24667,1.55854 -0.18423,3.22156 -0.2102,4.79865 -0.0111,0.65655 1.17339,0.4989 1.21357,-0.0761 0.0934,-1.33165 0.39876,-2.59529 0.51189,-3.91644 0.0111,-0.0204 0.0291,-0.0377 0.0359,-0.06 0.0352,-0.11499 0.0699,-0.22875 0.1051,-0.34312 0.0377,-0.12241 0.0185,-0.21699 -0.0198,-0.29674 0.0464,-0.40803 0.1051,-0.81111 0.16754,-1.21357 0.27326,0.44573 0.60277,0.86056 0.97494,1.24077 0.0618,0.0631 0.20401,0.0705 0.36599,0.0501 0.11189,0.19722 0.24481,0.37403 0.44264,0.49705 0.18485,0.11438 1.28034,-0.0717 1.15855,-0.36784 -0.0847,-0.20587 -0.19226,-0.40432 -0.30293,-0.60215 0.1694,-0.0513 0.32148,-0.1224 0.38145,-0.17866 0.54094,-0.50695 0.83089,-1.27292 1.2247,-1.89547 0.0334,-0.0525 0.0643,-0.10016 0.0971,-0.15085 -0.0383,0.46985 0.14837,1.0448 0.19659,1.47261 -0.0593,0.38824 -0.12364,0.77587 -0.19103,1.16287 -0.0754,0.20834 -0.15826,0.41545 -0.23554,0.62194 -0.2238,0.59843 -0.18176,1.13629 -0.1663,1.7644 0.002,0.0711 0.089,0.10448 0.21205,0.1119 0.006,0.11066 0.007,0.21947 0.026,0.33508 0.0556,0.34435 1.08313,-0.0513 1.18823,-0.25718 0.50137,-0.9805 0.50323,-2.26022 0.64418,-3.33717 0.15641,-1.20059 0.14158,-2.18356 0.0495,-3.29574 0.0359,-0.0427 0.0575,-0.0884 0.0563,-0.13787 z"
         inkscape:connector-curvature="0"
         style="fill:#ffffff" />
      <path
         inkscape:export-ydpi="277"
         inkscape:export-xdpi="277"
         id="path49607-1"
         d="m 431.22903,716.28567 c 0.59473,-1.25128 0.81667,-2.04322 0.83212,-3.43546 0.008,-0.7839 0.29613,-1.48188 0.40432,-2.24662 0.021,-0.14899 0.0359,-0.30664 0.0488,-0.46676 0.0822,-0.22194 0.15765,-0.44574 0.21823,-0.67201 0.0346,-0.1292 -0.01,-0.21761 -0.0909,-0.27572 0.0192,-0.0835 0.0359,-0.16878 0.0631,-0.24729 0.23245,-0.66521 -0.9094,-0.55887 -1.13876,-0.1255 -0.40123,0.75609 -1.19936,1.78666 -0.73569,2.69174 -0.12797,0.34991 -0.24605,0.70354 -0.32086,1.07571 -0.24296,1.21542 -0.23245,2.46238 -0.45315,3.68708 -0.10819,0.59287 0.99843,0.38082 1.17277,0.0148 z"
         inkscape:connector-curvature="0"
         style="fill:#ffffff" />
      <path
         inkscape:export-ydpi="277"
         inkscape:export-xdpi="277"
         id="path49609-0"
         d="m 433.07875,707.25282 c 0.36475,-0.25779 0.55392,-0.65469 0.57,-1.0992 0.0142,-0.39999 -0.69179,-0.34744 -1.02501,-0.11066 -0.0328,-0.0136 -0.0649,-0.0315 -0.0995,-0.0389 -0.32704,-0.0754 -0.74187,0.0451 -0.9941,0.26028 -0.32209,0.27449 -0.14961,0.65655 0.10262,0.90878 0.36785,0.36846 1.02749,0.3765 1.44603,0.0797 z"
         inkscape:connector-curvature="0"
         style="fill:#ffffff" />
      <path
         inkscape:export-ydpi="277"
         inkscape:export-xdpi="277"
         id="path49547-71"
         d="m 434.73659,707.56364 c 0.005,0 0.01,0 0.0142,0 -0.15208,0.12612 -0.22071,0.26584 0.007,0.35239 0.0488,0.0186 0.0971,0.0309 0.14528,0.0476 -0.004,0.53724 0.0507,1.07015 0.094,1.60491 0.0606,0.75238 -0.034,1.7539 0.13663,2.49329 -0.004,0.68685 -0.0229,1.37307 -0.0711,2.05745 -0.0946,0.46799 -0.20895,0.93351 -0.37402,1.39161 -0.0519,0.14343 0.14095,0.19289 0.3833,0.17929 0.006,0.002 0.013,0.004 0.0185,0.006 0.076,0.0346 0.16569,0.0593 0.2813,0.0612 0.0451,6.2e-4 0.0903,10e-4 0.13539,0.002 0.16692,0.003 0.34311,-0.0779 0.47417,-0.19969 0.10386,-0.0482 0.19413,-0.10571 0.2714,-0.1731 0.23493,-0.0723 0.47974,-0.12797 0.73136,-0.16877 0.76474,-0.0662 1.52701,-0.1391 2.30164,-0.13663 0.0835,-6.2e-4 0.16754,-10e-4 0.24853,-0.002 0.5224,-0.005 0.99348,-0.82286 0.27078,-0.83151 -0.65346,-0.008 -1.35391,-0.0964 -1.99006,0.0692 -0.16383,0.0136 -0.3258,0.0309 -0.48901,0.0513 -0.16383,-0.001 -0.32828,-0.0118 -0.47789,-0.007 -0.0556,0.002 -0.11066,0.0124 -0.16568,0.0167 0.0223,-0.2986 0.007,-0.62564 -0.0309,-0.96999 -0.0117,-0.10695 -0.0254,-0.21329 -0.0383,-0.31962 0.0216,-0.31158 0.0346,-0.62502 0.0451,-0.93723 0.0866,-0.0414 0.15023,-0.0773 0.0822,-0.0624 0.0841,-0.0222 0.16259,-0.0581 0.23925,-0.0964 0.002,-6.2e-4 0.003,-6.2e-4 0.006,-6.2e-4 0.1935,-0.0167 0.37402,-0.0575 0.55949,-0.11622 0.14157,-0.0445 0.3326,-0.009 0.48221,-0.0371 0.1898,-0.0365 0.37341,-0.0915 0.54095,-0.19103 0.23492,-0.13786 0.31158,-0.2646 0.31405,-0.52239 10e-4,-0.14034 -0.2782,-0.16383 -0.36104,-0.16445 -0.26954,-0.002 -0.57,0.0334 -0.82656,-0.0538 -0.23802,-0.081 -0.47665,-0.0933 -0.72518,-0.0964 -0.0872,-6.2e-4 -0.16568,0.007 -0.24605,0.0111 0.034,-0.6479 -0.0167,-1.29518 0.0297,-1.94493 0.021,-0.29427 0.0822,-0.50076 0.12859,-0.68561 0.4105,-0.0328 0.82965,-0.0989 1.27477,-0.17681 0.76289,-0.13292 1.82499,0.10139 1.98202,-0.95577 0.0309,-0.20525 -0.20587,-0.27264 -0.36784,-0.27326 -1.18142,-0.006 -2.36099,0.0513 -3.5418,0.0748 -0.19288,-0.1391 -0.5224,-0.12241 -0.76659,0.008 -0.0884,6.2e-4 -0.1762,0.004 -0.2646,0.003 -0.45625,-6.2e-4 -1.2686,0.68993 -0.46058,0.69302 z m 1.94926,3.91583 c 6.2e-4,6.1e-4 0.002,6.1e-4 0.003,6.1e-4 -10e-4,6.2e-4 -0.002,6.2e-4 -0.004,10e-4 6.2e-4,-6.2e-4 6.2e-4,-10e-4 6.2e-4,-0.002 z"
         inkscape:connector-curvature="0"
         style="fill:#ffffff" />
      <path
         inkscape:export-ydpi="277"
         inkscape:export-xdpi="277"
         id="path49703-70"
         d="m 449.03431,706.37834 c -0.0173,0.0118 -0.0291,0.0229 -0.0451,0.0352 -0.0705,-0.0451 -0.1663,-0.0643 -0.25533,-0.0618 -0.0383,0.001 -0.0754,0.002 -0.11375,0.003 -0.29551,0.008 -0.83707,0.1255 -0.82656,0.50942 0.002,0.0754 0.004,0.15084 0.006,0.22626 10e-4,0.0538 0.0266,0.0934 0.0655,0.12489 -0.0977,1.00955 -0.30663,2.00613 -0.37402,3.0262 -0.0389,0.59473 -0.16878,1.17029 -0.30973,1.74215 -0.14714,-0.51004 -0.30293,-1.01451 -0.43647,-1.52949 -0.26274,-1.0145 -0.91558,-3.03732 -2.03086,-3.52572 -0.12302,-0.1799 -0.25903,-0.36042 -0.41977,-0.56629 -0.0365,-0.0457 -0.0927,-0.0729 -0.15641,-0.0921 -0.2442,-0.20772 -0.95021,0.0971 -1.07385,0.28748 -0.14158,0.21761 -0.25718,0.40184 -0.251,0.67077 0.002,0.13415 0.076,0.21947 0.18176,0.27078 -0.32024,1.08807 -1.78543,5.9813 -1.03924,7.31914 -0.0494,0.23616 -0.10633,0.47356 -0.18732,0.71404 -0.15888,0.47356 1.05098,0.32148 1.19997,-0.12426 0.0476,-0.14157 0.0865,-0.28253 0.12303,-0.42348 0.35919,-0.30231 0.51683,-0.91064 0.60215,-1.34958 0.26831,-1.38791 0.47046,-2.71771 0.55763,-4.06172 0.1187,0.51683 0.24791,1.04108 0.47233,1.56163 0.6244,1.45158 1.65436,2.9075 1.81015,4.492 0.0371,0.37465 1.2043,0.0995 1.19441,-0.32024 -0.004,-0.18361 0.008,-0.36722 0.0266,-0.55145 0.54342,-0.30726 0.69859,-1.04727 0.80864,-1.73288 0.16877,-1.05716 0.77463,-2.02591 1.12269,-3.03547 0.39504,-1.14186 0.40988,-2.39067 0.32024,-3.58137 -0.0284,-0.36722 -0.82409,-0.12488 -0.97123,-0.0272 z"
         inkscape:connector-curvature="0"
         style="fill:#ffffff" />
      <path
         inkscape:export-ydpi="277"
         inkscape:export-xdpi="277"
         id="path49555-3"
         d="m 451.76641,707.07347 c -0.47912,0.0457 -0.8006,0.50324 -0.50818,0.66274 -0.11499,0.13168 -0.16259,0.24234 -0.16878,0.44635 -0.004,0.12921 0.28686,0.12798 0.35115,0.12859 0.34003,0.004 0.69922,-0.0229 1.03121,0.06 0.0525,0.14096 0.2238,0.22318 0.37155,0.22998 0.37897,0.0173 0.72641,0.0754 1.10229,-0.0266 0.14899,-0.0396 0.29613,-0.11067 0.42225,-0.20154 0.0297,-0.0124 0.0581,-0.0254 0.0865,-0.0383 0.0198,0.84325 0.0773,1.67229 0.17805,2.50751 -0.013,0.30787 -0.0309,0.61451 -0.0377,0.923 -0.0167,0.79689 -0.0235,1.78543 0.55269,2.39871 0.0396,0.042 0.0903,0.0754 0.14528,0.10139 0.0822,0.11931 0.19412,0.20957 0.33693,0.26645 0.0995,0.13477 0.20092,0.26893 0.31035,0.39628 0,6.2e-4 -6.2e-4,0.002 -6.2e-4,0.002 6.2e-4,0 10e-4,-6.2e-4 0.002,-6.2e-4 0.0111,0.013 0.0204,0.0272 0.0315,0.0396 0.17125,0.19412 1.12888,-0.10324 1.16103,-0.35919 0.042,-0.33755 0.16444,-0.64542 0.2071,-0.98235 0.006,-0.0433 -0.14466,-0.0581 -0.33878,-0.0439 0.33754,-0.59473 0.18237,-1.30939 -0.15642,-1.98078 -0.009,-0.58175 -0.0612,-1.16844 -0.0556,-1.69764 0.009,-0.78514 0.0544,-1.56225 0.047,-2.33317 0.29366,-0.11376 0.57866,-0.25966 0.85376,-0.44698 0.006,10e-4 0.007,0.004 0.013,0.005 0.20463,0.0352 1.08992,-0.0785 1.09116,-0.37835 0,-0.0655 6.2e-4,-0.13107 6.2e-4,-0.1966 0,-0.0389 -0.0791,-0.0575 -0.19474,-0.0587 -0.0223,-0.15765 -0.0192,-0.37897 -0.0105,-0.57186 0.0853,-0.0365 0.16939,-0.0711 0.25842,-0.11313 0.34435,-0.16136 0.53414,-0.64975 -0.0173,-0.63677 -0.76475,0.0173 -1.50599,0.11252 -2.24477,0.24976 -0.0408,-0.15764 -0.0822,-0.31467 -0.13663,-0.47108 -0.0204,-0.0581 -0.0723,-0.0921 -0.13539,-0.11685 -0.0198,-0.0927 -0.0352,-0.1867 -0.0575,-0.2782 -0.0612,-0.25409 -0.70725,-0.15888 -1.02378,0.0501 -0.33755,-0.0476 -0.92548,0.13415 -0.95577,0.38577 -0.0457,0.37526 -0.0161,0.73816 0.029,1.09982 -0.84449,0.39751 -1.67538,0.89642 -2.54028,0.97926 z"
         inkscape:connector-curvature="0"
         style="fill:#ffffff" />
      <path
         inkscape:export-ydpi="277"
         inkscape:export-xdpi="277"
         id="path49551-9"
         d="m 465.2977,709.22312 c -0.13168,-2.05064 -1.69887,-2.72451 -3.55354,-2.56686 -0.21391,0.0179 -0.66088,0.1731 -0.66583,0.45254 -6.1e-4,0.0445 -0.002,0.0903 -0.002,0.13539 -0.002,0.0915 0.0346,0.15703 0.0841,0.21143 -0.0544,0.0433 -0.11375,0.0736 -0.1663,0.12303 -1.21357,1.13691 -1.19626,2.85804 -0.80926,4.36898 0.3221,1.25561 1.59255,2.87473 3.02806,2.01602 0.31282,-0.18732 0.59287,-0.45316 0.84078,-0.76721 0.013,-0.0124 0.0284,-0.0192 0.0408,-0.0315 0.47604,-0.46305 0.78267,-1.16412 0.93352,-1.91897 0.21205,-0.70724 0.30849,-1.42623 0.27016,-2.02282 z m -2.09763,3.42124 c -0.11499,0.18856 -0.22441,0.32828 -0.33569,0.42472 -0.56382,0.18671 -1.09426,-1.26055 -1.16164,-1.52577 -0.20401,-0.79874 0.0445,-1.68651 0.33137,-2.42343 0.16382,-0.42163 0.65778,-0.72209 0.95268,-1.06891 0.40802,0.38268 0.73939,1.01574 0.84449,1.44726 0.11932,0.49396 0.11808,1.0516 0.0229,1.59687 -0.1527,0.56073 -0.38206,1.10167 -0.65408,1.54926 z"
         inkscape:connector-curvature="0"
         style="fill:#ffffff" />
      <path
         inkscape:export-ydpi="277"
         inkscape:export-xdpi="277"
         id="path49575-8"
         d="m 477.93662,708.80221 c 0.14775,-0.0791 0.25841,-0.17558 0.25903,-0.27759 6.2e-4,-0.076 10e-4,-0.15208 0.002,-0.22812 0,-0.0495 -0.0618,-0.0767 -0.14714,-0.0903 -0.46676,-1.04851 -0.91312,-2.37088 -1.90722,-2.94769 -0.24976,-0.14528 -1.04974,-0.006 -1.15113,0.3085 -0.41173,1.26674 -0.94835,2.55882 -0.96319,3.89913 -0.0185,1.75142 -0.82223,3.5251 -0.51498,5.26787 0.0297,0.16754 0.32581,0.14157 0.61019,0.06 -0.17805,0.16259 -0.22133,0.33137 0.19845,0.32086 1.62345,-0.0414 3.19992,-0.56444 4.34548,-1.74463 0.33879,-0.34867 0.51931,-0.67139 0.59844,-0.97803 0.0124,-0.0179 0.026,-0.0328 0.0383,-0.0513 0.59782,-0.93413 -0.30725,-1.30939 -0.74681,-2.08526 -0.2578,-0.45625 -0.43708,-0.96319 -0.62131,-1.45344 z m -1.79903,-0.73322 c 0.14095,0.2034 0.30293,0.47418 0.41792,0.6751 0.0278,0.68623 0.37959,1.20739 0.78576,1.73721 0.076,0.15146 0.14219,0.30664 0.22689,0.45563 0.15332,0.27078 0.32827,0.46305 0.45872,0.64542 0.13044,0.40432 0.0952,0.78267 -0.0532,1.12455 -0.74496,1.14928 -2.01602,1.60676 -3.30131,1.80336 1.17277,-1.66735 1.36504,-4.42648 1.46519,-6.44127 z"
         inkscape:connector-curvature="0"
         style="fill:#ffffff" />
      <path
         inkscape:export-ydpi="277"
         inkscape:export-xdpi="277"
         id="path49661-6"
         d="m 482.10906,715.23765 c 0.0495,-0.0154 0.0971,-0.0334 0.14404,-0.0507 0.21576,-0.0383 0.42967,-0.0878 0.64419,-0.14899 0.9533,-0.27388 1.99253,-0.21638 2.96252,-0.49211 0.30479,-0.0865 0.86366,-0.45192 0.20773,-0.43028 -0.33693,0.0111 -0.68067,0.0322 -1.00832,0.11932 -0.38639,0.10386 -0.81915,-0.013 -1.22347,0.0952 -0.55207,0.14776 -1.10847,0.25224 -1.64694,0.41854 0.0192,-0.0334 0.0315,-0.0686 0.0328,-0.10819 0.021,-0.80554 0.31963,-1.33536 0.62379,-2.02715 0.18918,-0.42967 0.31035,-0.89086 0.42101,-1.35576 0.0699,-0.013 0.13972,-0.0266 0.20587,-0.0445 0.13663,0.0136 0.27264,0.0216 0.40432,0.0241 0.0779,0.0124 0.15764,0.0179 0.23801,0.0204 0.0779,0.0192 0.1694,0.0291 0.29057,0.0216 0.0866,-0.006 0.17001,-0.0216 0.25347,-0.0383 0.34064,-0.0167 0.68128,-0.0328 1.02254,-0.042 0.081,0.006 0.17001,-6.1e-4 0.2646,-0.0161 0.25347,-0.0229 0.536,-0.10324 0.67757,-0.32333 0.12674,-0.19659 -0.0495,-0.33137 -0.2306,-0.36661 -0.26151,-0.24234 -0.65902,-0.35671 -0.96133,-0.53352 -0.35857,-0.2102 -0.80678,-0.1391 -1.20121,-0.12983 -0.13477,0.003 -0.285,0.0229 -0.42225,0.0699 -0.0692,0.003 -0.13786,0.01 -0.20463,0.021 0.38268,-1.34031 0.39072,-2.74738 0.56753,-4.12354 0.042,-0.005 0.0847,-0.008 0.12612,-0.0167 0.34126,0.0192 0.73383,0.1694 1.05654,0.20278 0.55393,0.0563 1.11898,-0.013 1.61047,-0.28562 0.034,-0.0186 0.38701,-0.21885 0.21452,-0.29613 -0.35424,-0.16074 -0.7159,-0.3122 -1.10847,-0.34249 -0.20278,-0.0155 -0.40123,-0.0155 -0.604,-0.002 -0.11005,0.0118 -0.21947,0.0241 -0.3289,0.0383 -0.0717,0.009 -0.1527,-0.007 -0.23616,-0.0266 0.0396,-0.021 0.0822,-0.0402 0.11808,-0.0643 0.19412,-0.12798 0.15332,-0.26337 -0.0748,-0.27944 -0.5799,-0.0402 -1.13568,-0.0396 -1.58327,0.39257 -0.0241,0.0192 -0.0241,0.0476 -0.0328,0.0729 -0.2918,0.0204 -0.73754,0.19907 -0.80678,0.24049 -0.81234,0.48963 -0.93599,2.24044 -1.11465,3.06577 -0.44945,2.07846 -0.79751,4.19154 -1.05654,6.30587 -0.002,0.0179 0.003,0.029 0.005,0.0426 -0.002,0.0606 -0.003,0.13539 -0.005,0.24667 0.0216,0.0427 0.0575,0.0668 0.10695,0.0729 0.0946,0.0216 0.18856,0.0278 0.28253,0.042 0.0464,0.1527 0.11684,0.27078 0.22317,0.33323 0.29675,0.17557 0.9669,-0.008 1.14619,-0.3017 z"
         inkscape:connector-curvature="0"
         style="fill:#ffffff" />
      <path
         inkscape:export-ydpi="277"
         inkscape:export-xdpi="277"
         id="path49641-2-5"
         d="m 493.27822,716.14519 c 1.01697,-0.0192 1.22779,-0.94898 1.29703,-1.8114 0.0618,-0.76969 0.0717,-1.55421 0.0593,-2.34368 0.18114,-0.74249 0.35424,-1.48312 0.47417,-2.2188 1.09426,-0.27079 2.68124,-0.47233 3.51213,-1.20987 0.055,-0.0445 0.10509,-0.0927 0.15208,-0.14281 0.006,-0.006 0.0111,-0.0111 0.0155,-0.0167 0.0946,-0.102 0.17804,-0.21205 0.23616,-0.33878 0.0983,-0.10077 0.18917,-0.20278 0.25965,-0.30602 0.0136,-0.0198 -0.004,-0.0346 -0.0346,-0.0457 0.1459,-0.29799 0.19907,-0.64914 0.11993,-1.06273 -0.13971,-0.72579 -0.94217,-1.16287 -1.66672,-1.33783 -0.0254,-0.0186 -0.0761,-0.0322 -0.15951,-0.0371 -0.12302,-0.0235 -0.24296,-0.0408 -0.35362,-0.0488 -1.02934,-0.0705 -1.84477,0.2714 -2.74862,0.60462 -0.16506,-0.013 -0.34744,0.0309 -0.47294,0.0835 -0.15455,0.0643 -0.2646,0.12426 -0.34929,0.19103 -0.24049,0.0686 -0.44327,0.22503 -0.4377,0.44759 0.0105,0.43399 0.0915,3.92015 0.14775,6.34915 -0.25656,0.94217 -0.53167,1.8794 -0.60338,2.84816 -0.0229,0.31035 0.3054,0.40123 0.55269,0.39628 z m 1.93874,-9.88848 c 0.0779,-0.003 0.15394,-0.013 0.22875,-0.0278 0.67015,-0.0711 1.33227,-0.0637 1.9035,0.32209 0.54404,0.36661 0.70107,1.04109 0.4884,1.62593 -0.008,0.021 -0.0216,0.0346 -0.0309,0.0544 -0.17558,0.12241 -0.37403,0.23678 -0.50633,0.34497 -0.042,0.0346 -0.0835,0.0525 -0.12488,0.0816 -0.47665,0.15517 -1.04665,0.15641 -1.4825,0.17186 -0.089,0.003 -0.2986,0.0828 -0.48468,0.17681 0.0828,-0.85129 0.0989,-2.00366 -0.251,-2.70967 0.0859,-0.0173 0.17248,-0.0371 0.25965,-0.0402 z"
         inkscape:connector-curvature="0"
         style="fill:#ffffff" />
      <path
         inkscape:export-ydpi="277"
         inkscape:export-xdpi="277"
         id="path49547-8-1"
         d="m 500.30937,706.98325 c 0.005,0 0.01,0 0.0142,0 -0.15208,0.12612 -0.22071,0.26584 0.007,0.35239 0.0488,0.0186 0.0971,0.0309 0.14528,0.0476 -0.004,0.53724 0.0507,1.07015 0.094,1.60491 0.0606,0.75238 -0.034,1.7539 0.13663,2.49329 -0.004,0.68685 -0.0229,1.37307 -0.0711,2.05745 -0.0946,0.46799 -0.20895,0.93351 -0.37402,1.39161 -0.0519,0.14343 0.14095,0.19289 0.3833,0.17929 0.006,0.002 0.013,0.004 0.0185,0.006 0.076,0.0346 0.16569,0.0593 0.2813,0.0612 0.0451,6.2e-4 0.0903,10e-4 0.13539,0.002 0.16692,0.003 0.34311,-0.0779 0.47417,-0.19969 0.10386,-0.0482 0.19413,-0.10571 0.2714,-0.1731 0.23493,-0.0723 0.47974,-0.12797 0.73136,-0.16877 0.76474,-0.0662 1.52701,-0.1391 2.30164,-0.13663 0.0835,-6.2e-4 0.16754,-10e-4 0.24853,-0.002 0.5224,-0.005 0.99348,-0.82286 0.27078,-0.83151 -0.65346,-0.008 -1.35391,-0.0964 -1.99006,0.0692 -0.16383,0.0136 -0.3258,0.0309 -0.48901,0.0513 -0.16383,-10e-4 -0.32828,-0.0118 -0.47789,-0.007 -0.0556,0.002 -0.11066,0.0124 -0.16568,0.0167 0.0223,-0.2986 0.007,-0.62564 -0.0309,-0.96999 -0.0117,-0.10695 -0.0254,-0.21329 -0.0383,-0.31962 0.0216,-0.31158 0.0346,-0.62502 0.0451,-0.93723 0.0866,-0.0414 0.15023,-0.0773 0.0822,-0.0624 0.0841,-0.0222 0.16259,-0.0581 0.23925,-0.0964 0.002,-6.2e-4 0.003,-6.2e-4 0.006,-6.2e-4 0.1935,-0.0167 0.37402,-0.0575 0.55949,-0.11622 0.14157,-0.0445 0.3326,-0.009 0.48221,-0.0371 0.1898,-0.0365 0.37341,-0.0915 0.54095,-0.19103 0.23492,-0.13786 0.31158,-0.2646 0.31405,-0.52239 0.001,-0.14034 -0.2782,-0.16383 -0.36104,-0.16445 -0.26954,-0.002 -0.57,0.0334 -0.82656,-0.0538 -0.23802,-0.081 -0.47665,-0.0933 -0.72518,-0.0964 -0.0872,-6.2e-4 -0.16568,0.007 -0.24605,0.0111 0.034,-0.6479 -0.0167,-1.29518 0.0297,-1.94493 0.021,-0.29427 0.0822,-0.50076 0.12859,-0.68561 0.4105,-0.0328 0.82965,-0.0989 1.27477,-0.17681 0.76289,-0.13292 1.82499,0.10139 1.98202,-0.95577 0.0309,-0.20525 -0.20587,-0.27264 -0.36784,-0.27326 -1.18142,-0.006 -2.36099,0.0513 -3.5418,0.0748 -0.19288,-0.1391 -0.5224,-0.12241 -0.76659,0.008 -0.0884,6.2e-4 -0.1762,0.004 -0.2646,0.003 -0.45625,-6.2e-4 -1.2686,0.68993 -0.46058,0.69302 z m 1.94926,3.91583 c 6.2e-4,6.1e-4 0.002,6.1e-4 0.003,6.1e-4 -0.001,6.2e-4 -0.002,6.2e-4 -0.004,0.001 6.2e-4,-6.2e-4 6.2e-4,-0.001 6.2e-4,-0.002 z"
         inkscape:connector-curvature="0"
         style="fill:#ffffff" />
      <path
         inkscape:export-ydpi="277"
         inkscape:export-xdpi="277"
         id="path49653-1-4"
         d="m 510.60935,707.417 c 0.21267,0.0389 0.42349,0.0909 0.62874,0.17434 0.83707,0.34002 1.58388,0.57989 2.33131,-0.0525 0.29799,-0.25286 0.24791,-0.70045 -0.19597,-0.73383 -0.91745,-0.0692 -1.78543,-0.34435 -2.73131,-0.38206 -0.89951,-0.0371 -1.74215,-0.10263 -2.65032,-0.0618 -0.21638,0.01 -0.37897,0.11005 -0.48531,0.23678 -0.10138,0.002 -0.20154,0.0124 -0.30292,0.01 -0.6955,0.0173 -0.90446,0.88777 -0.0977,0.90446 0.72641,0.0142 1.48002,-0.11004 2.22189,-0.15393 -0.12488,0.58793 -0.183,1.17709 -0.24173,1.76688 -0.11375,0.34867 -0.24172,0.69859 -0.40246,1.06643 -0.27573,0.62873 -0.31529,1.46519 -0.2986,2.14338 0.003,0.12612 -0.0142,0.25223 -0.0223,0.37773 -0.19165,0.83213 -0.34991,1.6624 -0.4717,2.55388 -0.0649,0.47665 1.12455,0.251 1.19441,-0.14961 0.11128,-0.64048 0.20463,-1.29209 0.40246,-1.91216 0.10448,-0.32581 0.11375,-0.67077 0.11375,-1.0176 0.10015,-0.40493 0.21329,-0.81111 0.35795,-1.22099 0.20896,-0.59164 0.28748,-1.18142 0.33941,-1.7712 0.0247,-0.0488 0.0433,-0.0952 0.0692,-0.14591 0.0525,-0.10509 0.23801,-1.18884 0.2411,-1.6321 z"
         inkscape:connector-curvature="0"
         style="fill:#ffffff" />
      <path
         inkscape:export-ydpi="277"
         inkscape:export-xdpi="277"
         id="path49631-5"
         d="m 514.33501,716.34947 c -0.0309,0.31282 0.49458,0.23492 0.66768,0.1867 1.10229,-0.30726 0.96504,-1.3842 0.92424,-2.35667 -0.0538,-1.28343 0.0241,-2.57057 0.013,-3.85461 -0.002,-0.30479 -0.0587,-0.70911 -0.12302,-1.14681 0.0198,-0.22132 0.0427,-0.44326 0.0742,-0.66149 0.0464,-0.3221 0.15332,-0.63121 0.26955,-0.93847 0.19288,-0.0754 0.34991,-0.18237 0.36846,-0.2986 0.0352,-0.22441 0.0154,-0.4241 -0.0365,-0.60153 0.0439,-0.13292 0.0903,-0.26522 0.12179,-0.39999 0.047,-0.20401 -0.2343,-0.25471 -0.53476,-0.20772 -0.57062,-0.44389 -1.47199,-0.35363 -1.58327,0.46614 -0.11004,0.81605 10e-4,1.6896 0.10819,2.55697 -0.15208,0.83707 -0.055,1.75266 -0.11746,2.58046 -0.11746,1.55606 0.003,3.12573 -0.15208,4.67562 z"
         inkscape:connector-curvature="0"
         style="fill:#ffffff" />
      <path
         inkscape:export-ydpi="277"
         inkscape:export-xdpi="277"
         id="path49633-1"
         d="m 515.67531,704.26754 c 0.57619,-0.0779 1.08066,-0.46676 1.19874,-1.04789 0.0661,-0.14342 0.11004,-0.29056 0.10633,-0.46799 -0.006,-0.27326 -0.22379,-0.35733 -0.45625,-0.37341 -0.2479,-0.31838 -0.81791,-0.23863 -1.19193,-0.009 -0.33693,0.20772 -0.66583,0.69673 -0.66335,1.09796 0.004,0.56073 0.46861,0.87293 1.00646,0.79998 z m -0.0909,-0.79998 c 6.2e-4,0 0.002,0 0.002,0 -0.003,0.004 -0.004,0.004 -0.008,0.01 0.006,-0.007 0.002,-0.006 0.006,-0.01 z"
         inkscape:connector-curvature="0"
         style="fill:#ffffff" />
      <path
         inkscape:export-ydpi="277"
         inkscape:export-xdpi="277"
         id="path49651-09"
         d="m 519.39044,714.92075 c 1.04418,0.19289 2.41973,-0.24234 2.79066,-1.30507 0.19907,-0.33755 0.30788,-0.75855 0.29922,-1.27848 6.2e-4,-0.008 0.009,-0.0148 0.008,-0.0235 -6.2e-4,-0.0383 -0.002,-0.0754 -0.003,-0.11376 -0.0173,-0.31776 -1.20492,-0.0822 -1.19441,0.32024 10e-4,0.0383 0.002,0.0754 0.003,0.11376 0,0.006 0.007,0.009 0.008,0.013 0.006,0.0464 0.009,0.0896 0.0117,0.1323 -0.13971,0.081 -0.24048,0.19165 -0.23678,0.32518 0.005,0.19845 -0.0655,0.37279 -0.14899,0.54404 -0.34867,0.11561 -0.92548,-0.0291 -1.72978,-0.43399 -0.14034,-0.38577 -0.18176,-0.78576 -0.12488,-1.19874 0.0167,-0.25223 0.0501,-0.50879 0.0903,-0.76659 0.0797,-0.3221 0.16568,-0.63492 0.21637,-0.9125 0.14158,-0.76969 0.31406,-1.58265 0.62874,-2.29979 0.29056,-0.66149 0.43275,-0.59534 0.94835,-0.63677 0.0328,-0.002 0.0581,-0.005 0.0847,-0.007 0.0872,0.0655 0.1731,0.1323 0.25656,0.20277 0.0291,0.1527 0.14837,0.23926 0.30726,0.27017 0.0216,0.0198 0.0445,0.0383 0.0655,0.0587 0.20896,0.19226 1.31248,-0.0624 1.15484,-0.38083 -0.52797,-1.06643 -1.16041,-1.96409 -2.48402,-1.44107 -1.56287,0.6176 -1.88187,2.68988 -2.14338,4.26017 -0.007,0.0303 -0.0142,0.0631 -0.0216,0.0915 -0.35238,1.41697 -0.91806,4.07224 1.21357,4.46666 z"
         inkscape:connector-curvature="0"
         style="fill:#ffffff" />
      <path
         inkscape:export-ydpi="277"
         inkscape:export-xdpi="277"
         id="path49607-1-0"
         d="m 524.52093,715.67742 c 0.59473,-1.25128 0.81667,-2.04322 0.83212,-3.43546 0.008,-0.7839 0.29613,-1.48188 0.40432,-2.24662 0.021,-0.14899 0.0359,-0.30664 0.0488,-0.46676 0.0822,-0.22194 0.15765,-0.44574 0.21823,-0.67201 0.0346,-0.1292 -0.01,-0.21761 -0.0909,-0.27572 0.0192,-0.0835 0.0359,-0.16878 0.0631,-0.24729 0.23245,-0.66521 -0.9094,-0.55887 -1.13876,-0.1255 -0.40123,0.75609 -1.19936,1.78666 -0.73569,2.69174 -0.12797,0.34991 -0.24605,0.70354 -0.32086,1.07571 -0.24296,1.21542 -0.23245,2.46238 -0.45315,3.68708 -0.10819,0.59287 0.99843,0.38082 1.17277,0.0148 z"
         inkscape:connector-curvature="0"
         style="fill:#ffffff" />
      <path
         inkscape:export-ydpi="277"
         inkscape:export-xdpi="277"
         id="path49609-0-0"
         d="m 526.37065,706.64457 c 0.36475,-0.25779 0.55392,-0.65469 0.57,-1.0992 0.0142,-0.39999 -0.69179,-0.34744 -1.02501,-0.11066 -0.0328,-0.0136 -0.0649,-0.0315 -0.0995,-0.0389 -0.32704,-0.0754 -0.74187,0.0451 -0.9941,0.26028 -0.32209,0.27449 -0.14961,0.65655 0.10262,0.90878 0.36785,0.36846 1.02749,0.3765 1.44603,0.0797 z"
         inkscape:connector-curvature="0"
         style="fill:#ffffff" />
      <path
         inkscape:export-ydpi="277"
         inkscape:export-xdpi="277"
         id="path49551-9-5"
         d="m 532.05832,710.36937 c -0.13168,-2.05064 -1.69887,-2.72451 -3.55354,-2.56686 -0.21391,0.0179 -0.66088,0.1731 -0.66583,0.45254 -6.1e-4,0.0445 -0.002,0.0903 -0.002,0.13539 -0.002,0.0915 0.0346,0.15703 0.0841,0.21143 -0.0544,0.0433 -0.11375,0.0736 -0.1663,0.12303 -1.21357,1.13691 -1.19626,2.85804 -0.80926,4.36898 0.3221,1.25561 1.59255,2.87473 3.02806,2.01602 0.31282,-0.18732 0.59287,-0.45316 0.84078,-0.76721 0.013,-0.0124 0.0284,-0.0192 0.0408,-0.0315 0.47604,-0.46305 0.78267,-1.16412 0.93352,-1.91897 0.21205,-0.70724 0.30849,-1.42623 0.27016,-2.02282 z m -2.09763,3.42124 c -0.11499,0.18856 -0.22441,0.32828 -0.33569,0.42472 -0.56382,0.18671 -1.09426,-1.26055 -1.16164,-1.52577 -0.20401,-0.79874 0.0445,-1.68651 0.33137,-2.42343 0.16382,-0.42163 0.65778,-0.72209 0.95268,-1.06891 0.40802,0.38268 0.73939,1.01574 0.84449,1.44726 0.11932,0.49396 0.11808,1.0516 0.0229,1.59687 -0.1527,0.56073 -0.38206,1.10167 -0.65408,1.54926 z"
         inkscape:connector-curvature="0"
         style="fill:#ffffff" />
      <path
         inkscape:export-ydpi="277"
         inkscape:export-xdpi="277"
         id="path49735-0-9-4-9-6"
         d="m 532.75034,701.62823 c -1.19969,1.12832 -1.43472,2.61729 -2.12661,4.04295 -0.1732,0.35716 -0.0385,1.42735 0.33381,0.70601 0.0136,-0.0271 0.0278,-0.0538 0.0412,-0.0804 0.0232,0.083 0.0565,0.14615 0.0976,0.17447 0.0197,0.36224 0.16751,0.66101 0.41026,0.19009 0.51944,-1.0065 1.04006,-2.01379 1.56005,-3.02003 0.0966,-0.18737 0.10868,-0.56756 0.0413,-0.78424 0.0691,-0.25112 0.0473,-0.66424 -0.0562,-0.80777 -0.002,-0.26072 -0.0544,-0.6532 -0.30148,-0.42115 z"
         inkscape:connector-curvature="0"
         style="fill:#ffffff" />
      <path
         inkscape:export-ydpi="277"
         inkscape:export-xdpi="277"
         id="path49587-0-0"
         d="m 540.02182,709.07755 c -0.18856,-1.25994 -0.51066,-2.47166 -0.54651,-3.75138 -0.008,-0.28624 -1.18946,-0.0655 -1.19441,0.32024 -0.0198,1.67229 -0.11622,3.24196 0.35053,4.86108 0.0958,0.33384 0.18794,0.6683 0.28253,1.00214 -0.002,0.26151 -0.007,0.52302 -0.0136,0.78453 -0.042,-0.002 -0.0816,-0.013 -0.12179,-0.0204 -0.69055,-1.46828 -0.88591,-3.2228 -2.03024,-4.33189 -0.0983,-0.14281 -0.2034,-0.28253 -0.3085,-0.42286 0.004,-0.0408 0.006,-0.0835 0.009,-0.12427 0.19103,-0.63553 0.28438,-1.28095 0.0593,-1.87259 -0.14776,-0.38825 -1.00523,-0.13107 -1.15361,0.14652 -0.10138,0.18917 -0.18608,0.38453 -0.27387,0.57865 -0.31406,0.0359 -0.66026,0.1966 -0.68746,0.41112 -0.12117,0.95948 -0.32271,1.90474 -0.54651,2.84568 -0.59411,1.52206 -1.23645,3.00518 -1.36504,4.65831 -0.0136,0.18237 0.1119,0.25594 0.28315,0.2683 -0.0198,0.13972 -0.0451,0.27821 -0.0624,0.41854 -0.0173,0.1459 0.0964,0.22998 0.23183,0.251 -0.002,0.0223 -0.004,0.0439 -0.006,0.0655 0.0192,0.1459 0.25842,0.17867 0.36537,0.18052 0.076,6.2e-4 0.15208,0.002 0.22812,0.003 0.2102,0.002 0.50015,-0.14342 0.6683,-0.30107 0.19845,-0.0773 0.36414,-0.19845 0.39072,-0.33879 0.27387,-1.45406 0.77463,-2.79251 1.19688,-4.15074 0.0736,0.1323 0.14837,0.26336 0.22503,0.39319 -0.0501,0.0643 -0.0717,0.13291 -0.026,0.19906 0.1867,0.27017 0.3938,0.54589 0.61265,0.821 0.008,0.0142 0.0148,0.0272 0.0235,0.0427 0.01,0.0173 0.0315,0.0254 0.0457,0.0389 0.13848,0.17063 0.28252,0.34002 0.42966,0.50818 0.10077,0.48283 0.19845,0.96319 0.50942,1.41202 0.31158,0.44945 0.72022,0.56258 1.24695,0.42224 0.21205,-0.0569 0.33879,-0.14219 0.42843,-0.24419 0.34744,-0.0983 0.67572,-0.30293 0.52549,-0.43894 -0.0754,-0.0674 -0.13972,-0.14219 -0.20773,-0.21514 0.005,-0.0105 0.0111,-0.0198 0.0161,-0.0303 0.24049,-0.0618 0.46181,-0.17619 0.46428,-0.37958 6.2e-4,-0.0507 0.003,-0.10201 0.004,-0.15271 0.0155,-0.0204 0.0334,-0.0334 0.0482,-0.055 0.35239,-0.51312 0.20525,-1.16967 10e-4,-1.78975 0.0111,-0.67757 -0.005,-1.35329 -0.10324,-2.01293 z"
         inkscape:connector-curvature="0"
         style="fill:#ffffff" />
      <path
         inkscape:export-ydpi="277"
         inkscape:export-xdpi="277"
         id="path49717-5-4-6-5-6"
         d="m 375.35353,723.62912 c 0.0396,-0.0569 0.006,-0.0971 -0.1663,-0.0989 -0.51498,-0.006 -1.03058,-0.0105 -1.54556,-0.0154 -1.03057,-0.0111 -2.06053,-0.0216 -3.09111,-0.0315 -0.25471,-0.002 -1.36442,0.48778 -0.77278,0.49396 0.11561,0.001 0.2306,0.002 0.34621,0.004 -0.16569,0.0668 -0.31282,0.16012 -0.4241,0.28129 -0.32457,0.14219 -0.59783,0.32704 -0.2374,0.33013 0.0878,10e-4 0.17434,0.002 0.26151,0.002 0.73197,0.27388 1.51093,0.31591 2.28989,0.33199 0.59906,0.013 1.04603,-0.28871 1.51217,-0.54836 0.83213,0.0396 1.64386,-0.0359 2.35111,-0.57433 0.33569,-0.25595 -0.13478,-0.25347 -0.52364,-0.17496 z m -2.56748,0.80307 c -0.285,-0.003 -0.56938,-0.0173 -0.85438,-0.0352 -0.26893,-0.0161 -0.53353,-0.0544 -0.79565,-0.11437 -0.11437,-0.0223 -0.17311,-0.0383 -0.19474,-0.0495 0.0581,-0.006 0.1292,-0.013 0.20648,-0.0216 0.17125,0.005 0.38825,0.0185 0.43709,0.0198 0.36598,0.01 0.74001,0.0482 1.11589,0.0853 -0.10386,0.0569 -0.0797,0.0958 0.0853,0.11561 z"
         inkscape:connector-curvature="0"
         style="fill:#ffffff" />
      <path
         inkscape:export-ydpi="277"
         inkscape:export-xdpi="277"
         id="path49719-9-5-2-4-4"
         d="m 387.10594,723.30826 c -0.57618,-0.006 -1.15113,-0.0117 -1.72731,-0.0173 0.21576,-0.14095 0.3258,-0.29056 0.006,-0.30664 -1.06087,-0.0538 -2.03642,-0.29922 -3.06947,0.0711 -0.0903,0.0328 -0.52982,0.24296 -0.34003,0.39813 0.0346,0.0284 0.0717,0.0457 0.10696,0.0705 -0.17558,0.0661 -0.35115,0.12426 -0.52797,0.20463 -0.72394,0.32828 0.38392,0.38825 0.70972,0.24049 0.14281,-0.0643 0.28377,-0.10942 0.42534,-0.15641 0.47789,0.13045 0.9941,0.10324 1.50723,0.0699 -0.12241,0.13539 -0.10016,0.27202 0.24729,0.27573 0.51498,0.006 1.02995,0.0111 1.54555,0.0155 0.2034,0.002 0.57,-0.16383 0.73136,-0.31591 0.41174,-0.0785 1.11651,-0.54218 0.38515,-0.5496 z"
         inkscape:connector-curvature="0"
         style="fill:#ffffff" />
      <path
         inkscape:export-ydpi="277"
         inkscape:export-xdpi="277"
         id="path49721-4-6-3-9-5"
         d="m 394.97282,723.42325 c -0.002,0 -0.004,6.2e-4 -0.006,6.2e-4 0.026,-0.0173 0.0538,-0.0278 0.0797,-0.0457 0.36908,-0.26336 -0.15146,-0.26831 -0.34744,-0.24172 -0.47356,0.0643 -0.92115,0.23739 -1.40089,0.27387 -0.026,0.002 -0.12179,0.0235 -0.23987,0.0563 -0.004,6.1e-4 -0.0105,6.1e-4 -0.0142,10e-4 -0.40555,0.0717 -0.75176,0.23245 -1.08313,0.46923 -0.42781,0.30541 0.42905,0.22009 0.79318,0.094 0.86737,0.46553 2.05869,0.22442 2.98664,0.20711 0.14837,-0.002 0.63986,-0.18856 0.84943,-0.33075 0.48346,-0.10077 0.96567,-0.21205 1.4485,-0.32704 0.15517,-0.0371 0.87293,-0.44079 0.33693,-0.43152 -1.14186,0.0186 -2.26146,0.25533 -3.4027,0.27449 z"
         inkscape:connector-curvature="0"
         style="fill:#ffffff" />
      <path
         inkscape:export-ydpi="277"
         inkscape:export-xdpi="277"
         id="path49723-0-7-0-3-7"
         d="m 410.89948,723.20131 c -0.51498,-0.005 -1.03058,-0.0105 -1.54556,-0.0155 -0.6819,-0.007 -1.33289,0.24915 -2.00799,0.30046 -0.18237,0.0136 -0.41235,0.14961 -0.54651,0.29242 -0.49025,-0.005 -0.9805,-0.0105 -1.47013,-0.0148 -0.4241,-0.004 -1.28034,0.63306 -0.4748,0.6411 0.31221,0.003 0.62379,0.007 0.93599,0.01 -0.0958,0.16074 -0.003,0.30911 0.29737,0.31158 1.15051,0.0105 2.2899,-0.0117 3.40579,-0.32085 0.17557,-0.0482 0.67262,-0.24606 0.48159,-0.50571 -0.0229,-0.0315 -0.0532,-0.0507 -0.0779,-0.0785 0.18175,0.0105 0.36042,0.0198 0.52734,0.0216 0.4241,0.004 1.28034,-0.63367 0.4748,-0.64171 z"
         inkscape:connector-curvature="0"
         style="fill:#ffffff" />
      <path
         inkscape:export-ydpi="277"
         inkscape:export-xdpi="277"
         id="path49725-4-1-1-8-7"
         d="m 423.77334,723.12094 c 0.19351,-0.17434 0.21885,-0.41545 -0.19288,-0.40061 -0.60895,0.021 -1.18328,0.12117 -1.77925,0.24296 -0.14466,0.0297 -0.29427,0.0451 -0.44512,0.0544 -0.10819,6.2e-4 -0.21699,0 -0.32333,0.004 -0.0142,6.1e-4 -0.0278,0.003 -0.042,0.004 -0.37773,-0.002 -0.75979,-0.0297 -1.12145,-0.0334 -0.13663,-10e-4 -0.60772,0.10262 -0.77711,0.285 -0.0513,0.004 -0.10201,0.013 -0.15394,0.0142 -0.40617,0.0136 -1.28157,0.65222 -0.47912,0.6244 0.33322,-0.0117 0.66212,-0.0538 0.99039,-0.10015 0.073,0.0284 0.14838,0.0495 0.22689,0.0637 -0.14157,0.0631 -0.28376,0.12426 -0.41977,0.20154 -0.33693,0.19227 -0.25842,0.46119 0.12364,0.46305 0.80555,0.004 1.574,-0.0896 2.32576,-0.38639 0.0563,-0.0223 0.22132,-0.11128 0.31591,-0.21267 0.58731,-0.013 1.17648,0.0198 1.69207,0.0247 0.26708,0.003 0.83337,-0.12859 0.83708,-0.47232 0.001,-0.10325 0.002,-0.20587 0.003,-0.30911 0.001,-0.19598 -0.43523,-0.19413 -0.78082,-0.0674 z m -0.34126,0.217 c -0.0451,-6.2e-4 -0.0903,0 -0.13601,-6.2e-4 0.0692,-0.0223 0.13972,-0.0414 0.20896,-0.0674 -0.0272,0.0216 -0.0538,0.0433 -0.0729,0.068 z"
         inkscape:connector-curvature="0"
         style="fill:#ffffff" />
      <path
         inkscape:export-ydpi="277"
         inkscape:export-xdpi="277"
         id="path49727-0-6-6-58-2"
         d="m 437.81565,722.92558 c -1.22532,0.0186 -2.43332,0.2442 -3.65864,0.26893 -0.28377,-0.003 -0.56815,-0.006 -0.85253,-0.009 -0.001,0 -0.003,6.2e-4 -0.004,6.2e-4 -0.0995,-0.001 -0.19968,-0.002 -0.29984,-0.003 -0.002,0 -0.003,-6.2e-4 -0.005,-6.2e-4 -0.30911,-0.003 -0.61822,-0.006 -0.92734,-0.009 -0.2615,-0.002 -1.36627,0.50014 -0.76906,0.50571 0.44821,0.004 0.8958,0.009 1.34463,0.013 -0.26398,0.14033 -0.4513,0.30416 -0.1119,0.30787 1.72299,0.0173 3.99063,0.3153 5.48735,-0.7975 0.27943,-0.20711 0.0278,-0.28068 -0.2034,-0.27697 z"
         inkscape:connector-curvature="0"
         style="fill:#ffffff" />
      <path
         inkscape:export-ydpi="277"
         inkscape:export-xdpi="277"
         id="path49729-5-5-61-6-7"
         d="m 449.35416,722.94042 c -0.0482,-0.0148 -0.0952,-0.0235 -0.14343,-0.0377 0.36166,-0.21576 0.60524,-0.59597 0.0154,-0.60153 -0.78823,-0.007 -1.53875,0.0365 -2.29484,0.19968 -0.36908,0.0377 -0.73754,0.0686 -1.10909,0.0742 -0.14219,0.002 -0.30787,0.068 -0.45068,0.1595 -0.41359,0.0643 -0.8278,0.12612 -1.24943,0.13848 -0.62688,0.0173 -0.96257,0.76042 -0.14219,0.73754 0.26336,-0.007 0.52301,-0.0371 0.78205,-0.0717 0.0513,0.0507 0.14095,0.0872 0.30231,0.089 1.23645,0.013 2.47289,0.0254 3.70934,0.0383 0.33074,0.003 1.28219,-0.50323 0.58051,-0.72579 z"
         inkscape:connector-curvature="0"
         style="fill:#ffffff" />
      <path
         inkscape:export-ydpi="277"
         inkscape:export-xdpi="277"
         id="path49731-3-4-8-0-3"
         d="m 460.33935,722.68757 c -0.0859,-6.2e-4 -0.17063,-0.002 -0.25594,-0.002 0.0266,-0.16568 -0.0631,-0.31034 -0.35857,-0.31344 -0.30911,-0.003 -0.61822,-0.006 -0.92733,-0.009 -0.26337,-0.003 -0.57371,0.0723 -0.73507,0.30108 -0.37402,-0.004 -0.74805,-0.007 -1.12146,-0.0118 -0.2683,-0.003 -0.58545,0.0736 -0.74495,0.3122 -0.49829,0.0822 -1.00956,0.72641 -0.37588,0.80184 6.1e-4,0.11684 0.076,0.22627 0.24172,0.29303 0.88221,0.35363 1.84911,0.0754 2.76284,0.0525 0.30478,-0.008 0.60338,-0.2918 0.63553,-0.52363 0.20031,-0.0383 0.40123,-0.0711 0.60648,-0.0822 0.4989,-0.026 1.00956,-0.80987 0.27263,-0.8179 z"
         inkscape:connector-curvature="0"
         style="fill:#ffffff" />
      <path
         inkscape:export-ydpi="277"
         inkscape:export-xdpi="277"
         id="path49733-5-1-5-7-2"
         d="m 471.02531,723.28477 c 0,0 -6.2e-4,0 -10e-4,0 -1.13382,-0.0111 -2.26638,-0.0229 -3.4002,-0.0346 -0.2306,-0.002 -1.35453,0.44945 -0.78267,0.45501 0.30726,0.003 0.61513,0.006 0.92239,0.009 0.002,6.2e-4 0.003,6.2e-4 0.005,6.2e-4 0.80308,0.008 1.60736,0.0161 2.41043,0.0241 -0.32394,0.12612 -0.60338,0.28933 -0.25038,0.30664 0.59535,0.0297 1.31991,0.12736 1.96595,0.0198 0.0661,6.2e-4 0.13168,10e-4 0.19783,0.002 0.22936,0.002 1.34402,-0.44574 0.78824,-0.45439 0.0662,-0.0612 0.13539,-0.11685 0.19288,-0.19289 0.0798,-0.10448 -0.16259,-0.11623 -0.19536,-0.11623 -0.61698,-0.006 -1.23459,-0.013 -1.85281,-0.0192 z"
         inkscape:connector-curvature="0"
         style="fill:#ffffff" />
      <path
         inkscape:export-ydpi="277"
         inkscape:export-xdpi="277"
         id="path49735-0-9-4-9-8"
         d="m 484.10443,722.44584 c -1.54741,-0.56382 -2.98293,-0.10386 -4.56743,-0.0804 -0.3969,0.006 -1.29209,0.60772 -0.48036,0.61575 0.0303,0 0.0606,6.2e-4 0.0903,6.2e-4 -0.0637,0.0581 -0.1051,0.11623 -0.1119,0.16568 -0.31467,0.18052 -0.51498,0.44698 0.0148,0.45192 1.13258,0.0111 2.2664,0.0229 3.39899,0.0346 0.21081,0.002 0.55578,-0.15827 0.71899,-0.31592 0.25533,-0.0513 0.61451,-0.25656 0.69612,-0.41359 0.23183,-0.11931 0.55887,-0.34249 0.24049,-0.45872 z"
         inkscape:connector-curvature="0"
         style="fill:#ffffff" />
      <path
         inkscape:export-ydpi="277"
         inkscape:export-xdpi="277"
         id="path49737-2-7-5-5-5"
         d="m 493.74623,722.15404 c -1.76441,-0.0408 -3.40765,-0.2374 -5.10899,0.35301 -0.39257,0.13662 -0.50076,0.61265 0.013,0.6176 0.10324,10e-4 0.20587,0.002 0.30911,0.003 0.2003,0.002 0.40061,0.004 0.60091,0.006 0,0 -6.2e-4,6.2e-4 -0.001,6.2e-4 -0.52117,0.22751 -0.38516,0.65779 0.16444,0.61142 0.31406,-0.0266 0.5935,-0.0896 0.82904,-0.25718 0.0457,-0.0124 0.0921,-0.0235 0.13848,-0.034 0.11685,6.2e-4 0.23369,0.002 0.34992,0.003 0.31405,0.003 0.62935,0.006 0.94279,0.01 0,0.009 0,0.0186 0,0.0284 -0.006,0.52178 1.19316,0.27573 1.19687,-0.14034 6.2e-4,-0.0686 0.001,-0.13848 0.002,-0.2071 0.0365,-0.007 0.0723,-0.0111 0.1088,-0.0179 0.23555,-0.0482 0.45563,-0.26151 0.48036,-0.43523 0.33013,-0.20525 0.53167,-0.52858 -0.026,-0.54156 z"
         inkscape:connector-curvature="0"
         style="fill:#ffffff" />
      <path
         inkscape:export-ydpi="277"
         inkscape:export-xdpi="277"
         id="path49739-3-0-1-7-91"
         d="m 504.23066,722.25419 c -0.021,0.004 -0.0426,0.007 -0.0804,0.0179 -0.14838,0.0291 -0.29861,0.0488 -0.44945,0.0692 -0.0148,-6.2e-4 -0.026,-0.002 -0.0414,-0.002 -1.02996,-0.0111 -2.05992,-0.021 -3.08988,-0.0315 -0.27264,-0.003 -0.88653,0.30787 -0.80431,0.4581 -0.10386,0.0525 -0.19659,0.11128 -0.25594,0.16754 -0.4037,0.089 -1.09487,0.51374 -0.37526,0.52178 0.41173,0.004 0.82409,0.009 1.23644,0.013 0.0927,10e-4 0.22627,-0.0352 0.35857,-0.089 1.01389,-0.0754 2.0253,-0.18052 3.04413,-0.18609 0.1459,-6.1e-4 1.08622,-0.37958 0.76783,-0.50137 0.32395,-0.0971 0.59473,-0.24482 0.69921,-0.47604 0.0921,-0.20277 -0.6516,-0.16073 -1.00956,0.0389 z"
         inkscape:connector-curvature="0"
         style="fill:#ffffff" />
      <path
         inkscape:export-ydpi="277"
         inkscape:export-xdpi="277"
         id="path49741-4-0-11-6-3"
         d="m 518.47637,722.09407 c -1.33907,-0.0136 -2.67876,-0.0278 -4.01845,-0.0402 -0.18794,-0.002 -0.42534,0.11066 -0.59411,0.24543 -0.32828,0.0204 -0.65099,0.0439 -0.95392,0.0476 -0.4173,0.005 -1.12269,0.58051 -0.63368,0.69117 -0.41297,0.17928 -0.78143,0.61513 -0.13724,0.63429 1.49424,0.0445 2.94397,0.30046 4.31457,-0.43213 0.0779,-0.0414 0.2102,-0.17001 0.2306,-0.28933 0.44203,-0.0643 0.88406,-0.13045 1.3366,-0.1459 0.30231,0.003 0.73692,-0.28871 0.79441,-0.49953 0.0396,-0.1156 -0.0402,-0.20834 -0.33878,-0.21143 z m -4.53652,0.97927 c 0.28376,0.003 0.56691,0.006 0.85067,0.009 -0.27572,0.0204 -0.5632,0.013 -0.85067,-0.009 z"
         inkscape:connector-curvature="0"
         style="fill:#ffffff" />
      <path
         inkscape:export-ydpi="277"
         inkscape:export-xdpi="277"
         id="path49743-0-1-19-3-1"
         d="m 532.37896,721.8882 c -0.0841,-6.1e-4 -0.16816,-0.002 -0.25286,-0.002 0.013,-0.12983 -0.0439,-0.24852 -0.22503,-0.28871 -1.25561,-0.27511 -2.43456,0.19351 -3.69202,0.25224 -0.20402,0.009 -0.4105,0.14837 -0.53353,0.30663 -0.29427,-0.0111 -0.58484,-0.0124 -0.86304,-0.0154 -0.3629,-0.004 -0.82285,0.37464 -0.79503,0.60833 -0.0457,0 -0.0927,10e-4 -0.1391,6.2e-4 -0.52055,-0.006 -1.24387,0.77958 -0.43461,0.787 0.83769,0.009 1.71,-0.055 2.53965,0.0686 0.64605,0.0971 1.35082,0.21761 1.94802,-0.11499 0.20649,-0.11561 0.42287,-0.31468 0.30912,-0.51683 0.39009,-0.0581 0.75361,-0.15456 1.0689,-0.30541 0.21143,0.002 0.42287,0.004 0.63368,0.007 0.52116,0.007 1.24448,-0.77834 0.43585,-0.78638 z"
         inkscape:connector-curvature="0"
         style="fill:#ffffff" />
      <path
         inkscape:export-ydpi="277"
         inkscape:export-xdpi="277"
         id="path49745-6-1-3-3-42"
         d="m 547.39187,721.57167 c -1.97769,-0.0192 -3.90716,0.21329 -5.87558,0.24977 -0.23555,0.005 -1.36998,0.47912 -0.77525,0.4853 0.13848,10e-4 0.27634,0.003 0.41544,0.004 -0.22936,0.0767 -0.45748,0.17125 -0.68684,0.29056 -0.0872,0.0451 -0.42039,0.25038 -0.14714,0.30788 0.0674,0.0136 0.13601,0.0167 0.20339,0.0291 -0.23121,0.0723 -0.45872,0.15889 -0.68066,0.27511 -0.70044,0.36908 0.40927,0.30046 0.68685,0.15456 0.12241,-0.0643 0.25594,-0.1119 0.39504,-0.14899 0.005,0.002 0.005,0.004 0.0105,0.006 1.63767,0.47727 3.7724,0.34806 5.27839,-0.47912 0.21081,-0.11623 0.14219,-0.24606 -0.0693,-0.25904 -0.32951,-0.0192 -0.65655,-0.0631 -0.98173,-0.11004 0.6312,-0.10634 1.26055,-0.23369 1.88867,-0.37959 0.15703,-0.0371 0.87293,-0.42101 0.33816,-0.42596 z m -2.71832,1.38359 c 0.0186,-0.0124 0.0359,-0.0235 0.0495,-0.0352 0.0272,0.004 0.0538,0.009 0.081,0.0124 0.0736,0.009 0.005,0.0167 -0.13045,0.0229 z"
         inkscape:connector-curvature="0"
         style="fill:#ffffff" />
    </g>
  </g>
</svg>
