<?xml version="1.0" encoding="UTF-8" standalone="no"?>
<!-- Created with Inkscape (http://www.inkscape.org/) -->

<svg
   xmlns:dc="http://purl.org/dc/elements/1.1/"
   xmlns:cc="http://creativecommons.org/ns#"
   xmlns:rdf="http://www.w3.org/1999/02/22-rdf-syntax-ns#"
   xmlns:svg="http://www.w3.org/2000/svg"
   xmlns="http://www.w3.org/2000/svg"
   xmlns:sodipodi="http://sodipodi.sourceforge.net/DTD/sodipodi-0.dtd"
   xmlns:inkscape="http://www.inkscape.org/namespaces/inkscape"
   width="68.460289mm"
   height="7.2967491mm"
   viewBox="0 0 242.57581 25.854622"
   id="svg51980"
   version="1.1"
   inkscape:version="0.91 r13725"
   sodipodi:docname="puesto.svg">
  <defs
     id="defs51982" />
  <sodipodi:namedview
     id="base"
     pagecolor="#ffffff"
     bordercolor="#666666"
     borderopacity="1.0"
     inkscape:pageopacity="0.0"
     inkscape:pageshadow="2"
     inkscape:zoom="1.3534466"
     inkscape:cx="135.57658"
     inkscape:cy="-2.6929495"
     inkscape:document-units="px"
     inkscape:current-layer="layer1"
     showgrid="false"
     inkscape:window-width="1598"
     inkscape:window-height="879"
     inkscape:window-x="0"
     inkscape:window-y="19"
     inkscape:window-maximized="1"
     fit-margin-top="0"
     fit-margin-left="0"
     fit-margin-right="0"
     fit-margin-bottom="0" />
  <metadata
     id="metadata51985">
    <rdf:RDF>
      <cc:Work
         rdf:about="">
        <dc:format>image/svg+xml</dc:format>
        <dc:type
           rdf:resource="http://purl.org/dc/dcmitype/StillImage" />
        <dc:title></dc:title>
      </cc:Work>
    </rdf:RDF>
  </metadata>
  <g
     inkscape:label="Capa 1"
     inkscape:groupmode="layer"
     id="layer1"
     transform="translate(-376.35432,-658.32146)">
    <g
       id="g125505">
      <path
         inkscape:export-ydpi="277"
         inkscape:export-xdpi="277"
         id="path49567-9-4-3"
         d="m 393.05297,665.40601 c -2.50225,-1.46052 -5.09419,1.73867 -5.86272,3.80728 -0.72491,1.95011 -0.56446,6.23955 2.37142,6.22228 0.20983,-8.3e-4 0.45667,-0.10528 0.65991,-0.24521 0.0419,0.0148 0.0856,0.0264 0.12019,0.0535 0.23368,0.1802 0.78909,-0.012 1.02196,-0.0954 0.0354,-0.0133 0.16539,-0.0642 0.28881,-0.13084 0.43447,-0.15551 0.86398,-0.40071 1.25236,-0.74301 2.07109,-1.82177 2.78366,-7.33065 0.14811,-8.86854 z m -0.0576,4.68688 c -0.0288,0.29868 -0.0659,0.57434 -0.10115,0.80144 -8.3e-4,0.005 -0.001,0.009 -0.003,0.0148 -0.0106,0.0625 -0.0297,0.1267 -0.0411,0.19007 -0.34889,1.55845 -1.28528,2.97866 -2.69397,1.31982 -1.31819,-1.55103 0.4649,-4.04834 1.73865,-5.32374 0.0699,0.0444 0.14071,0.0988 0.21064,0.17527 0.44187,0.48382 0.64676,1.15361 0.81543,1.76992 0.074,0.26906 0.098,0.64262 0.074,1.0524 z"
         inkscape:connector-curvature="0" />
      <path
         inkscape:export-ydpi="277"
         inkscape:export-xdpi="277"
         id="path49745-6-4-4-6"
         d="m 397.11783,675.67941 c -1.3913,-1.40566 -2.92551,-2.5986 -4.34943,-3.95819 -0.17083,-0.16224 -1.31037,-0.62394 -0.89227,-0.20095 0.0977,0.0982 0.19418,0.19664 0.29229,0.29526 -0.21691,-0.10696 -0.4455,-0.20036 -0.6924,-0.27705 -0.0937,-0.0293 -0.47485,-0.11804 -0.32123,0.11513 0.0383,0.0571 0.0849,0.1076 0.124,0.16383 -0.21513,-0.11138 -0.43769,-0.21001 -0.67714,-0.28367 -0.75733,-0.23084 0.0792,0.5015 0.3791,0.59324 0.13221,0.0405 0.26057,0.10066 0.38548,0.17222 0.002,0.005 7.4e-4,0.006 0.003,0.0116 0.82736,1.49172 2.43468,2.9025 4.08665,3.37494 0.23156,0.0658 0.2742,-0.0747 0.13311,-0.23278 -0.22055,-0.24557 -0.42196,-0.50695 -0.61991,-0.76917 0.52322,0.36874 1.0599,0.72126 1.60877,1.05973 0.13766,0.0842 0.91641,0.31537 0.54003,-0.0646 z m -2.90477,-0.93051 c 0.0219,0.004 0.042,0.009 0.0599,0.01 0.0165,0.022 0.0319,0.0443 0.0488,0.0658 0.0459,0.0582 -0.008,0.0154 -0.10879,-0.0756 z"
         inkscape:connector-curvature="0" />
      <path
         inkscape:export-ydpi="277"
         inkscape:export-xdpi="277"
         id="path49665-8-1-5"
         d="m 398.95464,674.93272 c 0.62564,-0.0266 1.13506,-0.24482 1.55854,-0.58855 0.16136,-0.0952 0.30416,-0.23183 0.42534,-0.41977 1.3335,-1.59687 1.52268,-4.72878 1.51711,-6.7652 0.0569,-0.43647 0.11809,-0.8717 0.20402,-1.29889 0.0958,-0.48036 -1.11157,-0.28685 -1.19688,0.14034 -0.021,0.10571 -0.0383,0.21267 -0.0581,0.319 -0.094,0.0649 -0.15951,0.14157 -0.15703,0.22936 0.006,0.23122 0.003,0.46181 0.002,0.69241 -0.20401,1.34896 -0.3561,2.7041 -0.79751,4.00422 -0.22256,0.65655 -0.28129,1.25994 -0.38206,1.94431 -0.10324,0.70292 -0.67633,0.62626 -1.23397,0.51683 -0.0216,-0.034 -0.0427,-0.081 -0.0643,-0.11932 -0.006,-0.0278 -0.0192,-0.0513 -0.0383,-0.0717 -0.0235,-0.0451 -0.0476,-0.0791 -0.0711,-0.13106 -0.15765,-0.34621 -0.26522,-0.70292 -0.34064,-1.06705 0.14157,-0.79628 0.30231,-1.59069 0.34435,-2.40551 0.0451,-0.87292 -0.15579,-2.77395 0.30169,-3.79402 0.33075,-0.0723 0.62812,-0.27758 0.51251,-0.49643 -0.0389,-0.0748 -0.0791,-0.14961 -0.1187,-0.22442 -0.20525,-0.38639 -0.8278,-0.21885 -1.08498,0.0278 -0.003,0.003 -0.005,0.007 -0.007,0.009 -0.31653,0.0544 -0.65779,0.19906 -0.66644,0.41049 -0.0377,0.9329 -0.75856,4.22616 -0.53724,6.58036 -0.0748,0.57742 -0.14034,1.1536 -0.16754,1.73102 -0.0167,0.36228 0.45996,0.38144 0.81235,0.24605 0.29303,0.35177 0.69426,0.55331 1.24386,0.53044 z"
         inkscape:connector-curvature="0" />
      <path
         inkscape:export-ydpi="277"
         inkscape:export-xdpi="277"
         id="path49661-7-9-9"
         d="m 404.75252,674.76134 c 0.0495,-0.0154 0.0971,-0.0334 0.14404,-0.0507 0.21576,-0.0383 0.42967,-0.0878 0.64419,-0.14899 0.9533,-0.27388 1.99253,-0.21638 2.96252,-0.49211 0.30479,-0.0865 0.86366,-0.45192 0.20773,-0.43028 -0.33693,0.0111 -0.68067,0.0322 -1.00832,0.11932 -0.38639,0.10386 -0.81915,-0.013 -1.22347,0.0952 -0.55207,0.14776 -1.10847,0.25224 -1.64694,0.41854 0.0192,-0.0334 0.0315,-0.0686 0.0328,-0.10819 0.021,-0.80554 0.31963,-1.33536 0.62379,-2.02715 0.18918,-0.42967 0.31035,-0.89086 0.42101,-1.35576 0.0699,-0.013 0.13972,-0.0266 0.20587,-0.0445 0.13663,0.0136 0.27264,0.0216 0.40432,0.0241 0.0779,0.0124 0.15764,0.0179 0.23801,0.0204 0.0779,0.0192 0.1694,0.0291 0.29057,0.0216 0.0866,-0.006 0.17001,-0.0216 0.25347,-0.0383 0.34064,-0.0167 0.68128,-0.0328 1.02254,-0.042 0.081,0.006 0.17001,-6.1e-4 0.2646,-0.0161 0.25347,-0.0229 0.536,-0.10324 0.67757,-0.32333 0.12674,-0.19659 -0.0495,-0.33137 -0.2306,-0.36661 -0.26151,-0.24234 -0.65902,-0.35671 -0.96133,-0.53352 -0.35857,-0.21019 -0.80678,-0.13909 -1.20121,-0.12982 -0.13477,0.003 -0.285,0.0229 -0.42225,0.0699 -0.0692,0.003 -0.13786,0.01 -0.20463,0.021 0.38268,-1.3403 0.39072,-2.74737 0.56753,-4.12353 0.042,-0.005 0.0847,-0.008 0.12612,-0.0167 0.34126,0.0192 0.73383,0.1694 1.05654,0.20278 0.55393,0.0563 1.11898,-0.013 1.61047,-0.28562 0.034,-0.0186 0.38701,-0.21885 0.21452,-0.29613 -0.35424,-0.16074 -0.7159,-0.3122 -1.10847,-0.34249 -0.20278,-0.0155 -0.40123,-0.0155 -0.604,-0.002 -0.11005,0.0118 -0.21947,0.0241 -0.3289,0.0383 -0.0717,0.009 -0.1527,-0.007 -0.23616,-0.0266 0.0396,-0.021 0.0822,-0.0402 0.11808,-0.0643 0.19412,-0.12798 0.15332,-0.26337 -0.0748,-0.27944 -0.5799,-0.0402 -1.13568,-0.0396 -1.58327,0.39257 -0.0241,0.0192 -0.0241,0.0476 -0.0328,0.0729 -0.2918,0.0204 -0.73754,0.19907 -0.80678,0.24049 -0.81234,0.48963 -0.93599,2.24044 -1.11465,3.06577 -0.44945,2.07845 -0.79751,4.19153 -1.05654,6.30586 -0.002,0.0179 0.003,0.029 0.005,0.0426 -0.002,0.0606 -0.003,0.13539 -0.005,0.24667 0.0216,0.0427 0.0575,0.0668 0.10695,0.0729 0.0946,0.0216 0.18856,0.0278 0.28253,0.042 0.0464,0.1527 0.11684,0.27078 0.22317,0.33323 0.29675,0.17557 0.9669,-0.008 1.14619,-0.3017 z"
         inkscape:connector-curvature="0" />
      <path
         inkscape:export-ydpi="277"
         inkscape:export-xdpi="277"
         id="path49743-0-2-1-3"
         d="m 411.49738,659.49862 c -0.0561,0.0342 -0.11256,0.0679 -0.16883,0.10287 -0.0449,-0.0916 -0.13157,-0.14704 -0.26849,-0.0991 -0.94765,0.33457 -1.53791,1.13173 -2.34923,1.68889 -0.13186,0.0901 -0.21163,0.26773 -0.22817,0.42358 -0.2001,0.11388 -0.39371,0.23274 -0.57979,0.34538 -0.24278,0.14688 -0.39238,0.58799 -0.27761,0.7318 -0.0303,0.0189 -0.0611,0.0389 -0.0922,0.0577 -0.34836,0.21051 -0.50527,1.03054 0.0355,0.70201 0.56031,-0.33919 1.11355,-0.74115 1.71574,-1.00088 0.46928,-0.20168 0.98722,-0.41201 1.24699,-0.87908 0.0896,-0.1619 0.15131,-0.38334 -0.008,-0.47078 0.23526,-0.19935 0.43706,-0.41323 0.58439,-0.64337 0.14131,-0.0858 0.28263,-0.17159 0.42394,-0.25645 0.34917,-0.2101 0.50618,-1.02996 -0.0344,-0.70211 z"
         inkscape:connector-curvature="0" />
      <g
         id="g123730-4-6-5-3"
         transform="matrix(-1,0,0,-1,680.4654,1255.4829)">
        <path
           style="color:#000000;clip-rule:nonzero;display:inline;overflow:visible;visibility:visible;opacity:1;isolation:auto;mix-blend-mode:normal;color-interpolation:sRGB;color-interpolation-filters:linearRGB;solid-color:#000000;solid-opacity:1;fill:#000000;fill-opacity:1;fill-rule:nonzero;stroke:none;stroke-width:4.6062994;stroke-miterlimit:4;stroke-dasharray:none;marker:none;color-rendering:auto;image-rendering:auto;shape-rendering:auto;text-rendering:auto;enable-background:accumulate"
           d="m 298.78993,578.22507 c -0.23206,-0.0833 -0.43703,-0.0448 -0.67705,0.0859 -0.32658,0.0485 -0.64912,0.1151 -0.96654,0.20697 -0.3395,0.14838 -0.46112,0.29904 -0.6542,0.60684 -0.1631,0.23715 -0.3332,0.4699 -0.51024,0.69684 -0.22156,0.24249 -0.0651,0.52668 0.16143,0.58423 0.004,0.0159 0.005,0.032 0.0121,0.0471 -0.0168,0.11818 0.0314,0.22966 0.11667,0.30481 -0.0324,0.32672 0.41554,0.55024 0.64462,0.20092 0.11318,-0.19423 0.2325,-0.38475 0.35169,-0.57488 0.18054,-0.11907 0.33871,-0.26561 0.46672,-0.44207 0.0283,-0.0408 0.0553,-0.0826 0.0832,-0.12372 0.14803,-0.064 0.30092,-0.11674 0.46284,-0.14277 0.25024,-0.0601 0.50964,-0.0803 0.75973,-0.007 0.15477,0.0421 0.3126,0.089 0.45297,0.16614 0.0673,0.0615 0.13532,0.12185 0.19699,0.18861 0.0258,0.0343 0.0541,0.0667 0.0795,0.10127 0.002,0.003 0.003,0.005 0.005,0.008 0.10965,0.23345 0.13781,0.49969 0.15475,0.75724 0.0518,0.33626 0.13454,0.66703 0.22846,0.99388 0.0126,0.0471 0.0357,0.0909 0.0448,0.13886 0.0256,0.13357 -0.0317,0.25353 -0.0763,0.37654 -0.13986,0.34235 -0.32474,0.6608 -0.54674,0.95709 -0.13701,0.20572 -0.25113,0.42289 -0.36512,0.64109 -0.26761,0.19963 -0.45993,0.46448 -0.64466,0.73991 -0.20265,0.27546 -0.43289,0.52771 -0.66815,0.77568 -0.20538,0.22394 -0.4164,0.44087 -0.62369,0.66305 -0.27085,0.27264 -0.37931,0.64638 -0.48867,1.00401 -0.0739,0.2488 -0.13146,0.50215 -0.1843,0.75612 -0.0395,0.16377 -0.061,0.32631 -0.0709,0.48985 -0.0554,0.23962 -0.0372,0.4801 0.02,0.72183 -0.0309,0.22276 -0.0168,0.44688 0.0269,0.66781 0.0568,0.30725 0.20765,0.56319 0.40278,0.80074 0.12725,0.15045 0.28892,0.25277 0.45196,0.35789 0.0459,0.0385 0.0952,0.0711 0.13793,0.1131 0.0985,0.0858 0.20222,0.10928 0.2957,0.0951 0.21872,0.003 0.43473,-0.20131 0.32055,-0.48791 -0.0632,-0.15657 -0.11934,-0.32032 -0.12503,-0.49034 -0.003,-0.28076 -0.0313,-0.56188 -0.0984,-0.83505 -0.0433,-0.15616 -0.10211,-0.30759 -0.15395,-0.46106 -0.0269,-0.18892 -0.0556,-0.37789 -0.0742,-0.5679 -0.008,-0.106 -0.008,-0.21236 -0.0124,-0.31882 0.0478,-0.086 0.0969,-0.17108 0.14043,-0.25946 0.20793,-0.36342 0.4301,-0.7184 0.61881,-1.09255 0.0415,-0.0264 0.0805,-0.0565 0.12439,-0.0802 0.42868,-0.26289 0.82529,-0.57263 1.11921,-0.98708 0.29564,-0.40247 0.5788,-0.81339 0.85119,-1.23199 0.28693,-0.41813 0.56624,-0.864 0.68546,-1.36154 0.0583,-0.44945 0.0842,-0.90469 0.0357,-1.3567 -0.049,-0.37112 -0.10368,-0.73689 -0.32809,-1.0492 -0.0284,-0.0378 -0.0564,-0.0757 -0.0852,-0.11324 -0.0139,-0.0848 -0.0256,-0.16982 -0.0625,-0.25193 -0.12617,-0.28511 -0.3047,-0.53154 -0.52971,-0.74806 -0.20202,-0.20762 -0.41042,-0.40957 -0.6374,-0.59011 -0.006,-0.005 -0.0128,-0.009 -0.0189,-0.0133 -0.16118,-0.18096 -0.33175,-0.35368 -0.53113,-0.49423 -0.1161,-0.0752 -0.22039,-0.13062 -0.31915,-0.16605 z m -1.13023,13.95626 c -0.0322,-0.005 -0.0717,-0.004 -0.11953,0.003 -0.0563,0.008 -0.11933,0.005 -0.1669,0.0365 -0.0814,0.0534 -0.13746,0.13899 -0.20578,0.20838 -0.002,0.0154 -0.003,0.0309 -0.005,0.0463 -0.16513,0.15193 -0.30087,0.33236 -0.39553,0.54436 0,0 -2.6e-4,10e-4 -2.6e-4,10e-4 -0.10282,0.27136 0.0822,0.46482 0.28691,0.4853 0.007,0.0973 0.0544,0.19508 0.16873,0.26804 0.14888,0.0908 0.33252,0.23986 0.53032,0.19127 0.37845,-0.093 0.41233,-0.37606 0.35899,-0.68423 -0.014,-0.0431 -0.0339,-0.0819 -0.0493,-0.12354 0.0174,-0.10835 -0.0208,-0.22079 -0.12446,-0.30639 -0.0187,-0.0427 -0.0328,-0.0863 -0.0522,-0.12951 -0.0138,-0.0307 -0.0256,-0.0632 -0.0406,-0.0934 -0.002,-0.003 -0.008,-0.0111 -0.009,-0.007 -0.0146,0.0346 -0.0227,0.0722 -0.0341,0.10799 -0.005,0.005 -0.0109,0.009 -0.0164,0.0142 0.009,-0.29215 0.0688,-0.53495 -0.12537,-0.56205 z m -0.19497,1.269 c 0.002,0.008 0.004,0.0161 0.006,0.0241 -0.003,0.0238 0.0149,0.0795 -0.008,0.0714 -0.0254,-0.009 -0.0265,-0.0547 -0.0138,-0.0785 0.003,-0.007 0.0115,-0.0106 0.0156,-0.0171 z"
           id="path122492-74-3-5-0"
           inkscape:connector-curvature="0" />
        <path
           style="color:#000000;clip-rule:nonzero;display:inline;overflow:visible;visibility:visible;opacity:1;isolation:auto;mix-blend-mode:normal;color-interpolation:sRGB;color-interpolation-filters:linearRGB;solid-color:#000000;solid-opacity:1;fill:#000000;fill-opacity:1;fill-rule:nonzero;stroke:none;stroke-width:4.6062994;stroke-miterlimit:4;stroke-dasharray:none;marker:none;color-rendering:auto;image-rendering:auto;shape-rendering:auto;text-rendering:auto;enable-background:accumulate"
           d="m 298.4205,578.40978 c -0.23206,-0.0833 -0.43703,-0.0448 -0.67705,0.0859 -0.32658,0.0485 -0.64912,0.1151 -0.96654,0.20697 -0.3395,0.14838 -0.46112,0.29904 -0.6542,0.60684 -0.1631,0.23715 -0.3332,0.4699 -0.51024,0.69684 -0.22156,0.24249 -0.0651,0.52668 0.16143,0.58423 0.004,0.0159 0.005,0.032 0.0121,0.0471 -0.0168,0.11818 0.0314,0.22966 0.11667,0.30481 -0.0324,0.32672 0.41554,0.55024 0.64462,0.20092 0.11318,-0.19423 0.2325,-0.38475 0.35169,-0.57488 0.18054,-0.11907 0.33871,-0.26561 0.46672,-0.44207 0.0283,-0.0408 0.0553,-0.0826 0.0832,-0.12372 0.14803,-0.064 0.30092,-0.11674 0.46284,-0.14277 0.25024,-0.0601 0.50964,-0.0803 0.75973,-0.007 0.15477,0.0421 0.3126,0.089 0.45297,0.16614 0.0673,0.0615 0.13532,0.12185 0.19699,0.18861 0.0258,0.0343 0.0541,0.0667 0.0795,0.10127 0.002,0.003 0.003,0.005 0.005,0.008 0.10965,0.23345 0.13781,0.49969 0.15475,0.75724 0.0518,0.33626 0.13454,0.66703 0.22846,0.99388 0.0126,0.0471 0.0357,0.0909 0.0448,0.13886 0.0256,0.13357 -0.0317,0.25353 -0.0763,0.37654 -0.13986,0.34235 -0.32474,0.6608 -0.54674,0.95709 -0.13701,0.20572 -0.25113,0.42289 -0.36512,0.64109 -0.26761,0.19963 -0.45993,0.46448 -0.64466,0.73991 -0.20265,0.27546 -0.43289,0.52771 -0.66815,0.77568 -0.20538,0.22394 -0.4164,0.44087 -0.62369,0.66305 -0.27085,0.27264 -0.37931,0.64638 -0.48867,1.00401 -0.0739,0.2488 -0.13146,0.50215 -0.1843,0.75612 -0.0395,0.16377 -0.061,0.32631 -0.0709,0.48985 -0.0554,0.23962 -0.0372,0.4801 0.02,0.72183 -0.0309,0.22276 -0.0168,0.44688 0.0269,0.66781 0.0568,0.30725 0.20765,0.56319 0.40278,0.80074 0.12725,0.15045 0.28892,0.25277 0.45196,0.35789 0.0459,0.0385 0.0952,0.0711 0.13793,0.1131 0.0985,0.0858 0.20222,0.10928 0.2957,0.0951 0.21872,0.003 0.43473,-0.20131 0.32055,-0.48791 -0.0632,-0.15657 -0.11934,-0.32032 -0.12503,-0.49034 -0.003,-0.28076 -0.0313,-0.56188 -0.0984,-0.83505 -0.0433,-0.15616 -0.10211,-0.30759 -0.15395,-0.46106 -0.0269,-0.18892 -0.0556,-0.37789 -0.0742,-0.5679 -0.008,-0.106 -0.008,-0.21236 -0.0124,-0.31882 0.0478,-0.086 0.0969,-0.17108 0.14043,-0.25946 0.20793,-0.36342 0.4301,-0.7184 0.61881,-1.09255 0.0415,-0.0264 0.0805,-0.0565 0.12439,-0.0802 0.42868,-0.26289 0.82529,-0.57263 1.11921,-0.98708 0.29564,-0.40247 0.5788,-0.81339 0.85119,-1.23199 0.28693,-0.41813 0.56624,-0.864 0.68546,-1.36154 0.0583,-0.44945 0.0842,-0.90469 0.0357,-1.3567 -0.049,-0.37112 -0.10368,-0.73689 -0.32809,-1.0492 -0.0284,-0.0378 -0.0564,-0.0757 -0.0852,-0.11324 -0.0139,-0.0848 -0.0256,-0.16982 -0.0625,-0.25193 -0.12617,-0.28511 -0.3047,-0.53154 -0.52971,-0.74806 -0.20202,-0.20762 -0.41042,-0.40957 -0.6374,-0.59011 -0.006,-0.005 -0.0128,-0.009 -0.0189,-0.0133 -0.16118,-0.18096 -0.33175,-0.35368 -0.53113,-0.49423 -0.1161,-0.0752 -0.22039,-0.13062 -0.31915,-0.16605 z m -1.13023,13.95626 c -0.0322,-0.005 -0.0717,-0.004 -0.11953,0.003 -0.0563,0.008 -0.11933,0.005 -0.1669,0.0365 -0.0814,0.0534 -0.13746,0.13899 -0.20578,0.20838 -0.002,0.0154 -0.003,0.0309 -0.005,0.0463 -0.16513,0.15193 -0.30087,0.33236 -0.39553,0.54436 0,0 -2.6e-4,0.001 -2.6e-4,0.001 -0.10282,0.27136 0.0822,0.46482 0.28691,0.4853 0.007,0.0973 0.0544,0.19508 0.16873,0.26804 0.14888,0.0908 0.33252,0.23986 0.53032,0.19127 0.37845,-0.093 0.41233,-0.37606 0.35899,-0.68423 -0.014,-0.0431 -0.0339,-0.0819 -0.0493,-0.12354 0.0174,-0.10835 -0.0208,-0.22079 -0.12446,-0.30639 -0.0187,-0.0427 -0.0328,-0.0863 -0.0522,-0.12951 -0.0138,-0.0307 -0.0256,-0.0632 -0.0406,-0.0934 -0.002,-0.003 -0.008,-0.0111 -0.009,-0.007 -0.0146,0.0346 -0.0227,0.0722 -0.0341,0.10799 -0.005,0.005 -0.0109,0.009 -0.0164,0.0142 0.009,-0.29215 0.0688,-0.53495 -0.12537,-0.56205 z m -0.19497,1.269 c 0.002,0.008 0.004,0.0161 0.006,0.0241 -0.003,0.0238 0.0149,0.0795 -0.008,0.0714 -0.0254,-0.009 -0.0265,-0.0547 -0.0138,-0.0785 0.003,-0.007 0.0115,-0.0106 0.0156,-0.0171 z"
           id="path122492-2-4-9-0-6"
           inkscape:connector-curvature="0" />
      </g>
      <path
         sodipodi:nodetypes="ccccccccccccccccccccccccccccccccccaccccccccccccccccccc"
         inkscape:connector-curvature="0"
         id="path49685-8"
         d="m 417.12684,664.66776 c -0.26505,0.0213 -0.55504,0.17112 -0.66601,0.3711 -0.004,0.006 -0.005,0.0104 -0.008,0.0156 -0.19412,0.0649 -0.37269,0.16687 -0.52539,0.33008 -0.19227,0.20463 0.16757,0.24394 0.29492,0.24023 0.0303,-6.2e-4 0.0601,-9.5e-4 0.0898,-0.002 0.006,0.0637 0.0149,0.13302 0.0254,0.22266 0.0105,0.0896 0.0544,0.15171 0.11133,0.20117 0.008,0.30602 0.014,0.61133 0.0215,0.91797 -0.004,0.0383 -0.01,0.0755 -0.0137,0.11328 -0.15518,1.01512 -0.30921,2.04258 -0.25976,3.04101 0.003,0.0593 0.008,0.11839 0.0117,0.17774 -0.0235,0.61081 -0.0352,1.22051 -0.0352,1.83008 -0.12797,0.59597 -0.25817,1.18994 -0.32617,1.77539 -0.0118,0.0983 0.0172,0.17255 0.0605,0.23437 -0.0346,0.20216 -0.0523,0.41262 -0.0313,0.67969 0.034,0.43028 1.23169,0.16685 1.19336,-0.32031 -0.0352,-0.44327 0.0707,-0.84468 0.19922,-1.24219 0.0618,-0.0699 0.10732,-0.14587 0.10547,-0.23242 -6.2e-4,-0.0303 -7.1e-4,-0.0601 -0.002,-0.0898 0.0513,-0.15085 0.10259,-0.3038 0.14648,-0.45898 0.11746,-0.41544 0.0655,-0.88874 -0.002,-1.34375 0.0767,-0.35424 0.15759,-0.70908 0.24414,-1.06641 0.0334,-0.1391 0.0538,-0.28985 0.0742,-0.43945 0.56877,0.0247 1.16663,0.0339 1.74219,-0.0273 0.0847,0.5768 0.1668,1.14085 0.18164,1.74609 0.004,0.17805 0.0245,0.35053 0.0332,0.52734 -0.0303,0.5632 -0.0408,1.08736 -0.19531,1.66602 -0.094,0.35239 0.21219,0.74538 0.46875,0.96484 6.2e-4,0.0334 9.5e-4,0.0662 0.002,0.0996 0.006,0.21205 1.2014,0.0222 1.19336,-0.32031 -0.0216,-0.87355 0.0451,-1.73944 0.13477,-2.60742 0.0383,-0.37094 0,0 0.004,-0.82788 0.1459,-0.41112 -0.0617,-0.45177 0.0242,-0.87339 0.0148,-0.0736 -0.0181,-0.20406 -0.022,-0.30637 -0.005,-0.12497 -0.0204,-0.25586 -0.002,-0.37517 0.0173,-0.0161 -0.0614,-0.0568 -0.0429,-0.071 0.0216,-0.0167 -0.0102,-0.0252 -0.0553,-0.0858 -0.0297,-0.0389 10e-4,-0.16974 -0.0249,-0.19384 0.0388,-0.48377 -0.0792,-0.52505 0.13289,-1.07341 0.007,-0.0179 0.004,-0.03 0.004,-0.0449 0.13724,-0.24482 0.21825,-0.53188 0.20898,-0.875 -0.0383,-1.42191 0.27877,-2.49443 -0.94593,-2.385 l -0.72923,-0.0603 c 0.39375,0.35766 0.21197,2.78051 0.0687,3.29372 -0.0142,0.0525 -0.0446,0.0905 -0.0645,0.13867 -0.56815,0.20958 -0.56487,0.5318 -0.67677,0.89593 -0.46243,0.10696 -0.96366,0.12111 -1.38281,0.10937 0.0179,-0.80926 -0.0785,-1.6945 -0.1582,-2.52539 0.013,-0.089 0.0262,-0.17855 0.0391,-0.26757 0.005,-3.5e-4 0.0104,-0.002 0.0156,-0.002 -0.0616,-0.4552 -0.12492,-0.87058 -0.21679,-1.29297 -0.0892,-0.14275 -0.25869,-0.19665 -0.44532,-0.18164 z" />
      <path
         inkscape:export-ydpi="277"
         inkscape:export-xdpi="277"
         id="path49635-5"
         d="m 423.03741,673.86714 c 0.2071,0.16754 0.94526,0.0297 1.08869,-0.22071 1.18204,-2.06301 1.80212,-4.42647 2.61632,-6.68731 0.20957,2.35728 0.35177,4.71704 0.6788,7.0669 0.055,0.3969 1.2043,0.0989 1.19441,-0.32024 -6.2e-4,-0.0235 -0.001,-0.047 -0.002,-0.0705 0.0556,-0.0538 0.0983,-0.11189 0.10571,-0.17743 0.21947,-2.01911 0.26955,-4.00484 -0.0334,-6.01716 -0.1051,-0.69735 -0.23678,-2.07846 -0.92919,-2.59715 -0.013,-0.10942 -0.0204,-0.21885 -0.0334,-0.32889 -0.0532,-0.45563 -1.07509,-10e-4 -1.19317,0.23863 -0.006,0.0118 -0.01,0.0229 -0.0155,0.0346 -0.78143,0.35919 -1.27107,1.3434 -1.58512,2.05374 -0.96257,2.17119 -1.69146,4.4716 -2.29052,6.77015 -0.0507,0.19289 0.14961,0.26398 0.39814,0.25533 z"
         inkscape:connector-curvature="0" />
      <path
         inkscape:export-ydpi="277"
         inkscape:export-xdpi="277"
         id="path49651-0"
         d="m 432.39033,673.36018 c 1.04418,0.19289 2.41973,-0.24234 2.79066,-1.30507 0.19907,-0.33755 0.30788,-0.75855 0.29922,-1.27848 6.2e-4,-0.008 0.009,-0.0148 0.008,-0.0235 -6.2e-4,-0.0383 -0.002,-0.0754 -0.003,-0.11376 -0.0173,-0.31776 -1.20492,-0.0822 -1.19441,0.32024 0.001,0.0383 0.002,0.0754 0.003,0.11376 0,0.006 0.007,0.009 0.008,0.013 0.006,0.0464 0.009,0.0896 0.0117,0.1323 -0.13971,0.081 -0.24048,0.19165 -0.23678,0.32518 0.005,0.19845 -0.0655,0.37279 -0.14899,0.54404 -0.34867,0.11561 -0.92548,-0.0291 -1.72978,-0.43399 -0.14034,-0.38577 -0.18176,-0.78576 -0.12488,-1.19874 0.0167,-0.25223 0.0501,-0.50879 0.0903,-0.76659 0.0797,-0.3221 0.16568,-0.63492 0.21637,-0.9125 0.14158,-0.76969 0.31406,-1.58265 0.62874,-2.29979 0.29056,-0.66149 0.43275,-0.59534 0.94835,-0.63677 0.0328,-0.002 0.0581,-0.005 0.0847,-0.007 0.0872,0.0655 0.1731,0.1323 0.25656,0.20277 0.0291,0.1527 0.14837,0.23926 0.30726,0.27017 0.0216,0.0198 0.0445,0.0383 0.0655,0.0587 0.20896,0.19226 1.31248,-0.0624 1.15484,-0.38083 -0.52797,-1.06643 -1.16041,-1.96409 -2.48402,-1.44107 -1.56287,0.6176 -1.88187,2.68988 -2.14338,4.26017 -0.007,0.0303 -0.0142,0.0631 -0.0216,0.0915 -0.35238,1.41697 -0.91806,4.07224 1.21357,4.46666 z"
         inkscape:connector-curvature="0" />
      <path
         inkscape:export-ydpi="277"
         inkscape:export-xdpi="277"
         id="path49559-4"
         d="m 444.0877,663.38097 c -0.80431,0.0118 -1.62964,0.14961 -2.42529,-0.008 -0.62193,-0.1224 -1.27168,-0.23121 -1.9066,-0.23925 -0.46305,-0.006 -1.12331,-0.13477 -1.49672,0.23987 -0.31344,0.31468 -0.5057,0.85995 -0.31838,1.27416 0.0457,0.10077 0.13477,0.15455 0.23431,0.18794 -0.0773,0.17001 -0.14961,0.33569 -0.19474,0.48221 -0.33508,1.08931 -0.60339,2.22251 -0.68252,3.35942 -0.0865,1.25809 -0.59968,3.30564 -0.004,4.57732 -0.57866,0.63986 -0.0896,1.2618 0.68313,1.40461 0.49891,0.0921 1.10477,-0.0767 1.59255,-0.16569 0.69302,-0.12612 1.45282,-0.2442 2.1545,-0.28809 0.26893,-0.0167 0.87973,-0.32457 0.60586,-0.67757 -0.1459,-0.18856 -0.34744,-0.29428 -0.57124,-0.35239 -0.13972,-0.285 -0.66953,-0.26583 -0.96628,-0.0606 -0.0445,0.002 -0.0896,0.004 -0.1323,0.006 -0.71034,0.0272 -1.38915,0.2139 -2.07723,0.32333 0.0322,-0.047 0.055,-0.0977 0.0618,-0.15208 0.1119,-0.88592 0.1354,-1.77368 0.25038,-2.65898 0.0464,-0.35857 0.19969,-0.76412 0.35548,-1.16782 0.081,-0.0155 0.16198,-0.0328 0.23925,-0.0624 0.29675,-0.11437 0.37341,-0.0785 0.83708,-0.0439 0.64604,0.0476 1.61912,0.0532 2.05744,-0.52178 0.0457,-0.06 0.0847,-0.13168 0.013,-0.19226 -0.43461,-0.37094 -0.94094,-0.48778 -1.5029,-0.45687 -0.28191,0.0155 -0.54713,0.10448 -0.80802,0.20649 -0.21081,-0.0198 -0.38886,-0.0532 -0.40555,-0.11932 -0.006,-0.0223 -0.0278,-0.0346 -0.0427,-0.0507 0.21019,-1.10415 0.0618,-2.23982 0.12179,-3.36623 0.10881,0.0142 0.21885,0.0278 0.32889,0.0291 0.0278,6.2e-4 0.055,0.004 0.0828,0.005 0.0872,0.0488 0.17682,0.089 0.27326,0.11128 0.47294,0.10942 0.96443,0.11622 1.45406,0.11251 0.0655,0.0643 0.24358,0.0773 0.32209,0.0779 0.0655,6.2e-4 0.13168,0.001 0.19722,0.001 0.0989,6.1e-4 0.34682,-0.0389 0.54898,-0.11685 0.17928,-0.0105 0.36351,-0.0513 0.52734,-0.12364 0.15023,-0.0328 0.29613,-0.0816 0.41977,-0.15332 0.17063,-0.0995 0.33941,-0.19969 0.3425,-0.41483 0.002,-0.1595 0.004,-0.319 0.006,-0.47789 0.22442,-0.22256 0.31344,-0.53352 -0.17557,-0.52734 z"
         inkscape:connector-curvature="0" />
      <path
         inkscape:export-ydpi="277"
         inkscape:export-xdpi="277"
         id="path49537-31"
         d="m 450.26688,671.75211 c 0.0761,-0.9533 -0.21205,-2.11061 -0.86983,-2.85495 -0.0223,-0.11993 -0.0383,-0.23987 -0.0618,-0.36042 -0.0414,-0.21267 -0.16383,-0.38701 -0.27078,-0.57 0.19474,-0.16383 0.38639,-0.33137 0.56568,-0.51313 0.2411,-0.24482 0.44883,-0.50694 0.69735,-0.73568 0.13539,-0.11314 0.27264,-0.22195 0.41297,-0.32519 0.0223,-0.0161 0.0445,-0.0322 0.0661,-0.0495 0.16631,-0.11684 0.3357,-0.22379 0.51313,-0.30849 0.39195,-0.18732 0.22318,-0.24172 -0.0495,-0.23245 0.0111,-0.0241 0.0284,-0.0457 0.0377,-0.0711 0.002,-0.007 0,-0.0124 0.002,-0.0192 0.0352,-0.0247 0.0686,-0.0513 0.10387,-0.0754 0.10448,-0.0797 0.0637,-0.1224 -0.0155,-0.14466 0.2442,-0.089 0.43399,-0.1867 0.33755,-0.23616 -0.10015,-0.0513 -0.20092,-0.10139 -0.30169,-0.15208 0.0587,-0.0501 0.102,-0.10881 0.11313,-0.17805 0.006,-0.0389 0.0124,-0.0779 0.0179,-0.11685 0.0142,-0.0995 -0.0303,-0.16197 -0.11932,-0.20339 -0.72703,-0.34064 -1.50537,-0.51251 -2.27876,-0.71528 -0.75918,-0.19845 -1.53691,-0.53848 -2.32452,-0.5799 -10e-4,-0.005 -10e-4,-0.0117 -0.003,-0.0161 -0.0921,-0.28315 -1.10662,0.0383 -1.18637,0.26398 -0.008,0.0223 -0.0117,0.0464 -0.0186,0.0686 -0.0921,0.0624 -0.14157,0.11808 -0.10324,0.1459 0.0173,0.013 0.0365,0.0216 0.0538,0.0334 -0.21081,0.76968 -0.20586,1.65498 -0.16321,2.52049 -0.19721,2.36347 -0.58855,4.71889 -0.889,7.06319 -0.0204,0.0618 -0.0389,0.12365 -0.06,0.18547 -0.0105,0.0303 6.2e-4,0.0544 0.026,0.0729 -6.2e-4,10e-4 -6.2e-4,0.002 -6.2e-4,0.004 -0.0464,0.37341 0.92115,0.21823 1.13876,-0.0779 0.32457,-0.0433 0.70169,-0.18608 0.72209,-0.36289 0.13601,-1.15979 0.33013,-2.31401 0.41235,-3.47874 0.11437,-0.0303 0.21638,-0.0773 0.28624,-0.14281 0.10572,-0.0995 0.22009,-0.18979 0.33075,-0.28376 0.0581,0.0643 0.11375,0.13044 0.16754,0.19721 0.12797,0.26645 0.25841,0.57309 0.42162,0.79009 0.14158,0.19041 0.2646,0.39257 0.38021,0.59782 0.0971,0.21761 0.19536,0.43152 0.30046,0.64171 0.1663,0.43338 0.36413,0.86613 0.77587,1.02934 0.26831,0.10572 0.923,-0.0723 0.95762,-0.41915 0.005,-0.0439 0.009,-0.089 0.013,-0.13354 0.0124,-0.12611 -0.047,-0.20648 -0.13849,-0.25718 z m -0.66582,-5.58564 c -0.12426,0.0921 -0.23802,0.19845 -0.34806,0.30911 -0.78205,0.48098 -1.59501,0.95083 -2.25775,1.55916 0.089,-1.13011 0.009,-2.25528 0.0284,-3.3891 0.32209,0.1323 0.65717,0.23987 0.91435,0.3561 0.78576,0.35486 1.45035,0.51807 2.24291,0.61699 -10e-4,0.002 -0.004,0.004 -0.005,0.007 -0.0934,0.25532 -0.36723,0.38639 -0.57495,0.54094 z"
         inkscape:connector-curvature="0" />
      <path
         inkscape:export-ydpi="277"
         inkscape:export-xdpi="277"
         id="path49641-5"
         d="m 456.96802,673.82682 c 1.01697,-0.0192 1.22779,-0.94897 1.29703,-1.81139 0.0618,-0.76969 0.0717,-1.55421 0.0593,-2.34368 0.18114,-0.74249 0.35424,-1.48312 0.47417,-2.2188 1.09426,-0.27079 2.68124,-0.47233 3.51213,-1.20987 0.055,-0.0445 0.10509,-0.0927 0.15208,-0.14281 0.006,-0.006 0.0111,-0.0111 0.0155,-0.0167 0.0946,-0.102 0.17804,-0.21205 0.23616,-0.33878 0.0983,-0.10077 0.18917,-0.20278 0.25965,-0.30602 0.0136,-0.0198 -0.004,-0.0346 -0.0346,-0.0457 0.1459,-0.29799 0.19907,-0.64914 0.11993,-1.06273 -0.13971,-0.72579 -0.94217,-1.16287 -1.66672,-1.33783 -0.0254,-0.0186 -0.0761,-0.0322 -0.15951,-0.0371 -0.12302,-0.0235 -0.24296,-0.0408 -0.35362,-0.0488 -1.02934,-0.0705 -1.84477,0.2714 -2.74862,0.60462 -0.16506,-0.013 -0.34744,0.0309 -0.47294,0.0835 -0.15455,0.0643 -0.2646,0.12426 -0.34929,0.19103 -0.24049,0.0686 -0.44327,0.22503 -0.4377,0.44759 0.0105,0.43399 0.0915,3.92015 0.14775,6.34915 -0.25656,0.94217 -0.53167,1.8794 -0.60338,2.84815 -0.0229,0.31035 0.3054,0.40123 0.55269,0.39628 z m 1.93874,-9.88847 c 0.0779,-0.003 0.15394,-0.013 0.22875,-0.0278 0.67015,-0.0711 1.33227,-0.0637 1.9035,0.32209 0.54404,0.36661 0.70107,1.04109 0.4884,1.62593 -0.008,0.021 -0.0216,0.0346 -0.0309,0.0544 -0.17558,0.12241 -0.37403,0.23678 -0.50633,0.34497 -0.042,0.0346 -0.0835,0.0525 -0.12488,0.0816 -0.47665,0.15517 -1.04665,0.15641 -1.4825,0.17186 -0.089,0.003 -0.2986,0.0828 -0.48468,0.17681 0.0828,-0.85129 0.0989,-2.00366 -0.251,-2.70967 0.0859,-0.0173 0.17248,-0.0371 0.25965,-0.0402 z"
         inkscape:connector-curvature="0" />
      <path
         inkscape:export-ydpi="277"
         inkscape:export-xdpi="277"
         id="path49707-5"
         d="m 468.33572,663.17162 c -0.20958,0.10262 -0.32766,0.16754 -0.42534,0.34744 -0.15702,0.0476 -0.28932,0.0983 -0.32889,0.13354 -1.50537,1.3267 -2.23487,3.22526 -3.03547,5.02182 -0.44512,0.99843 -0.92425,1.99191 -1.40275,2.98292 -0.0804,0.0903 -0.15208,0.18671 -0.23554,0.27326 -0.0661,0.0692 -0.0383,0.11128 0.0408,0.13168 -0.17248,0.35857 -0.34744,0.71714 -0.5156,1.07509 -0.0933,0.20648 1.03614,0.0977 1.17957,-0.20649 0.27573,-0.60833 0.96196,-1.17462 1.3842,-1.67414 0.49582,-0.58484 0.65161,-1.37617 0.94279,-2.07167 0.31468,-0.54094 0.6071,-1.09673 0.88468,-1.66302 0.0173,-0.0303 0.0352,-0.06 0.0532,-0.0896 -0.29118,1.94616 -0.42904,3.9387 -0.69797,5.84035 -0.0408,0.29489 0.68005,0.0804 0.79813,0.0389 1.29703,-0.45069 1.2859,-2.01046 1.5437,-3.19312 0.49952,-2.2899 0.92424,-4.66449 0.75732,-7.02301 -0.0173,-0.25162 -0.84882,0.0309 -0.94279,0.076 z"
         inkscape:connector-curvature="0" />
      <path
         inkscape:export-ydpi="277"
         inkscape:export-xdpi="277"
         id="path49571-33"
         d="m 478.2578,669.93246 c -0.21515,-0.60091 -0.4241,-0.99286 -0.85933,-1.45653 -0.26522,-0.28253 -0.719,-0.64295 -1.00585,-1.04356 1.08065,-0.78514 1.92205,-1.84292 1.83983,-3.22959 -0.0328,-0.54033 -0.27758,-0.82347 -0.63862,-0.95392 -0.0822,-0.13415 -0.17805,-0.26645 -0.29675,-0.39566 -0.17496,-0.19041 -0.38145,-0.3153 -0.60524,-0.39752 -0.0111,-0.0643 -0.0254,-0.12983 -0.0445,-0.19536 -0.0661,-0.23121 -0.33261,-0.32518 -0.55269,-0.30787 -0.58855,0.0476 -1.19997,0.33384 -1.74277,0.75547 -0.59412,0.24852 -0.9972,0.7159 -1.25994,1.27168 -0.0179,-0.002 -0.0414,-6.2e-4 -0.0581,-0.004 -0.37032,-0.0872 -0.71343,0.19227 -0.76907,0.47109 -0.63306,0.91806 -0.49211,2.04075 -0.53353,3.11151 -0.0322,0.83831 -0.31591,1.64633 -0.56753,2.43951 -0.30911,0.9737 -0.9873,2.999 0.66088,2.98292 0.24235,-0.002 0.77896,-0.10324 0.82904,-0.41544 0.0705,-0.43709 0.46923,-0.99905 0.47294,-1.36318 0.006,-0.54342 -0.0445,-1.01574 0.18485,-1.5165 0.13539,-0.29613 0.23616,-0.61204 0.31282,-0.9397 0.11251,0.0124 0.23059,0.007 0.34991,-0.0389 0.42534,-0.16568 0.88901,-0.3697 1.34773,-0.61204 0.85994,1.47941 1.31619,3.14675 1.72917,4.80235 -0.0643,0.0797 -0.13354,0.15456 -0.21638,0.21947 -0.16445,0.12983 -0.17372,0.29984 0.0816,0.30231 0.15147,0.002 0.30355,0.003 0.45501,0.004 0.17373,0.002 1.05964,-0.0983 0.97865,-0.42472 -0.0291,-0.11684 -0.0587,-0.23492 -0.0884,-0.35239 0.52487,-0.78699 0.35176,-1.71804 -0.004,-2.71338 z m -3.3044,-3.0874 c -0.0105,0.0841 -10e-4,0.16507 0.007,0.24605 -0.37959,0.27511 -0.787,0.50633 -1.18019,0.69179 0.0229,-0.21205 0.0389,-0.42533 0.0513,-0.638 0.42472,-0.57186 0.36908,-1.31434 0.0995,-1.98759 0.007,-0.055 0.0161,-0.11066 0.0247,-0.1663 0.0155,-0.0488 0.0322,-0.0983 0.0513,-0.14775 0.84511,-0.22689 1.64261,-0.70107 2.55016,-0.7258 0.0352,0.15023 0.0556,0.31406 0.0396,0.50509 -0.0593,0.72085 -0.42843,1.34649 -0.93784,1.86827 -0.31962,0.0408 -0.68438,0.18299 -0.70601,0.35424 z"
         inkscape:connector-curvature="0" />
      <path
         inkscape:export-ydpi="277"
         inkscape:export-xdpi="277"
         id="path49539-6"
         d="m 481.31147,672.87133 c 0.31901,-0.81235 0.79318,-1.5165 1.09859,-2.33132 0.38144,-1.0176 0.604,-2.09021 0.93969,-3.12326 0.14343,-0.3221 0.29922,-0.64852 0.45811,-0.97865 0.0451,0.57989 0.12302,1.15979 0.17928,1.73535 0.12612,1.2822 0.0822,2.2423 0.48407,3.48492 0.0433,0.13354 0.19412,0.18238 0.37279,0.18114 0.3122,0.15889 1.04603,-0.0593 1.04974,-0.36475 0.001,-0.0445 0.001,-0.0896 0.002,-0.13415 l 0,-6.2e-4 c 0.0179,-1.3638 0.0816,-2.69174 -0.15703,-4.03947 -0.21946,-1.23644 -0.45439,-2.60395 -0.52919,-3.88367 0.10262,-0.0958 0.14713,-0.20402 0.0593,-0.30788 -0.0297,-0.0661 -0.06,-0.13292 -0.0897,-0.19907 -0.0346,-0.28871 -0.61822,-0.22132 -0.95639,-0.007 -0.22256,0.0538 -0.42966,0.17434 -0.49396,0.33632 -0.5292,1.33598 -1.04294,2.56191 -1.493,3.95229 -0.0241,0.0742 -0.0457,0.14776 -0.0699,0.22133 -0.10263,0.21638 -0.20154,0.42843 -0.28995,0.63553 -0.47665,1.11404 -0.90322,2.07352 -1.25005,3.15726 -0.11746,0.0816 -0.20215,0.19042 -0.21637,0.3221 -0.0235,0.22256 -0.0464,0.44635 -0.0692,0.66953 -0.005,0.0445 0.009,0.0754 0.0154,0.11252 -0.0624,0.14219 -0.12797,0.28005 -0.18608,0.42781 -0.251,0.63986 0.94835,0.62379 1.14123,0.13354 z"
         inkscape:connector-curvature="0" />
      <path
         inkscape:export-ydpi="277"
         inkscape:export-xdpi="277"
         id="path49717-5-4-6-5"
         d="m 382.41614,682.8781 c 0.0396,-0.0569 0.006,-0.0971 -0.1663,-0.0989 -0.51498,-0.006 -1.03058,-0.0105 -1.54556,-0.0154 -1.03057,-0.0111 -2.06053,-0.0216 -3.09111,-0.0315 -0.25471,-0.002 -1.36442,0.48778 -0.77278,0.49396 0.11561,10e-4 0.2306,0.002 0.34621,0.004 -0.16569,0.0668 -0.31282,0.16012 -0.4241,0.28129 -0.32457,0.14219 -0.59783,0.32704 -0.2374,0.33013 0.0878,10e-4 0.17434,0.002 0.26151,0.002 0.73197,0.27388 1.51093,0.31591 2.28989,0.33199 0.59906,0.013 1.04603,-0.28871 1.51217,-0.54836 0.83213,0.0396 1.64386,-0.0359 2.35111,-0.57433 0.33569,-0.25595 -0.13478,-0.25347 -0.52364,-0.17496 z m -2.56748,0.80307 c -0.285,-0.003 -0.56938,-0.0173 -0.85438,-0.0352 -0.26893,-0.0161 -0.53353,-0.0544 -0.79565,-0.11437 -0.11437,-0.0223 -0.17311,-0.0383 -0.19474,-0.0495 0.0581,-0.006 0.1292,-0.013 0.20648,-0.0216 0.17125,0.005 0.38825,0.0185 0.43709,0.0198 0.36598,0.01 0.74001,0.0482 1.11589,0.0853 -0.10386,0.0569 -0.0797,0.0958 0.0853,0.11561 z"
         inkscape:connector-curvature="0" />
      <path
         inkscape:export-ydpi="277"
         inkscape:export-xdpi="277"
         id="path49719-9-5-2-4"
         d="m 394.16855,682.55724 c -0.57618,-0.006 -1.15113,-0.0117 -1.72731,-0.0173 0.21576,-0.14095 0.3258,-0.29056 0.006,-0.30664 -1.06087,-0.0538 -2.03642,-0.29922 -3.06947,0.0711 -0.0903,0.0328 -0.52982,0.24296 -0.34003,0.39813 0.0346,0.0284 0.0717,0.0457 0.10696,0.0705 -0.17558,0.0661 -0.35115,0.12426 -0.52797,0.20463 -0.72394,0.32828 0.38392,0.38825 0.70972,0.24049 0.14281,-0.0643 0.28377,-0.10942 0.42534,-0.15641 0.47789,0.13045 0.9941,0.10324 1.50723,0.0699 -0.12241,0.13539 -0.10016,0.27202 0.24729,0.27573 0.51498,0.006 1.02995,0.0111 1.54555,0.0155 0.2034,0.002 0.57,-0.16383 0.73136,-0.31591 0.41174,-0.0785 1.11651,-0.54218 0.38515,-0.5496 z"
         inkscape:connector-curvature="0" />
      <path
         inkscape:export-ydpi="277"
         inkscape:export-xdpi="277"
         id="path49721-4-6-3-9"
         d="m 402.03543,682.67223 c -0.002,0 -0.004,6.2e-4 -0.006,6.2e-4 0.026,-0.0173 0.0538,-0.0278 0.0797,-0.0457 0.36908,-0.26336 -0.15146,-0.26831 -0.34744,-0.24172 -0.47356,0.0643 -0.92115,0.23739 -1.40089,0.27387 -0.026,0.002 -0.12179,0.0235 -0.23987,0.0563 -0.004,6.1e-4 -0.0105,6.1e-4 -0.0142,10e-4 -0.40555,0.0717 -0.75176,0.23245 -1.08313,0.46923 -0.42781,0.30541 0.42905,0.22009 0.79318,0.094 0.86737,0.46553 2.05869,0.22442 2.98664,0.20711 0.14837,-0.002 0.63986,-0.18856 0.84943,-0.33075 0.48346,-0.10077 0.96567,-0.21205 1.4485,-0.32704 0.15517,-0.0371 0.87293,-0.44079 0.33693,-0.43152 -1.14186,0.0186 -2.26146,0.25533 -3.4027,0.27449 z"
         inkscape:connector-curvature="0" />
      <path
         inkscape:export-ydpi="277"
         inkscape:export-xdpi="277"
         id="path49723-0-7-0-3"
         d="m 417.96209,682.45029 c -0.51498,-0.005 -1.03058,-0.0105 -1.54556,-0.0155 -0.6819,-0.007 -1.33289,0.24915 -2.00799,0.30046 -0.18237,0.0136 -0.41235,0.14961 -0.54651,0.29242 -0.49025,-0.005 -0.9805,-0.0105 -1.47013,-0.0148 -0.4241,-0.004 -1.28034,0.63306 -0.4748,0.6411 0.31221,0.003 0.62379,0.007 0.93599,0.01 -0.0958,0.16074 -0.003,0.30911 0.29737,0.31158 1.15051,0.0105 2.2899,-0.0117 3.40579,-0.32085 0.17557,-0.0482 0.67262,-0.24606 0.48159,-0.50571 -0.0229,-0.0315 -0.0532,-0.0507 -0.0779,-0.0785 0.18175,0.0105 0.36042,0.0198 0.52734,0.0216 0.4241,0.004 1.28034,-0.63367 0.4748,-0.64171 z"
         inkscape:connector-curvature="0" />
      <path
         inkscape:export-ydpi="277"
         inkscape:export-xdpi="277"
         id="path49725-4-1-1-8"
         d="m 430.83595,682.36992 c 0.19351,-0.17434 0.21885,-0.41545 -0.19288,-0.40061 -0.60895,0.021 -1.18328,0.12117 -1.77925,0.24296 -0.14466,0.0297 -0.29427,0.0451 -0.44512,0.0544 -0.10819,6.2e-4 -0.21699,0 -0.32333,0.004 -0.0142,6.1e-4 -0.0278,0.003 -0.042,0.004 -0.37773,-0.002 -0.75979,-0.0297 -1.12145,-0.0334 -0.13663,-10e-4 -0.60772,0.10262 -0.77711,0.285 -0.0513,0.004 -0.10201,0.013 -0.15394,0.0142 -0.40617,0.0136 -1.28157,0.65222 -0.47912,0.6244 0.33322,-0.0117 0.66212,-0.0538 0.99039,-0.10015 0.073,0.0284 0.14838,0.0495 0.22689,0.0637 -0.14157,0.0631 -0.28376,0.12426 -0.41977,0.20154 -0.33693,0.19227 -0.25842,0.46119 0.12364,0.46305 0.80555,0.004 1.574,-0.0896 2.32576,-0.38639 0.0563,-0.0223 0.22132,-0.11128 0.31591,-0.21267 0.58731,-0.013 1.17648,0.0198 1.69207,0.0247 0.26708,0.003 0.83337,-0.12859 0.83708,-0.47232 10e-4,-0.10325 0.002,-0.20587 0.003,-0.30911 0.001,-0.19598 -0.43523,-0.19413 -0.78082,-0.0674 z m -0.34126,0.217 c -0.0451,-6.2e-4 -0.0903,0 -0.13601,-6.2e-4 0.0692,-0.0223 0.13972,-0.0414 0.20896,-0.0674 -0.0272,0.0216 -0.0538,0.0433 -0.0729,0.068 z"
         inkscape:connector-curvature="0" />
      <path
         inkscape:export-ydpi="277"
         inkscape:export-xdpi="277"
         id="path49727-0-6-6-58"
         d="m 444.87826,682.17456 c -1.22532,0.0186 -2.43332,0.2442 -3.65864,0.26893 -0.28377,-0.003 -0.56815,-0.006 -0.85253,-0.009 -0.001,0 -0.003,6.2e-4 -0.004,6.2e-4 -0.0995,-10e-4 -0.19968,-0.002 -0.29984,-0.003 -0.002,0 -0.003,-6.2e-4 -0.005,-6.2e-4 -0.30911,-0.003 -0.61822,-0.006 -0.92734,-0.009 -0.2615,-0.002 -1.36627,0.50014 -0.76906,0.50571 0.44821,0.004 0.8958,0.009 1.34463,0.013 -0.26398,0.14033 -0.4513,0.30416 -0.1119,0.30787 1.72299,0.0173 3.99063,0.3153 5.48735,-0.7975 0.27943,-0.20711 0.0278,-0.28068 -0.2034,-0.27697 z"
         inkscape:connector-curvature="0" />
      <path
         inkscape:export-ydpi="277"
         inkscape:export-xdpi="277"
         id="path49729-5-5-61-6"
         d="m 456.41677,682.1894 c -0.0482,-0.0148 -0.0952,-0.0235 -0.14343,-0.0377 0.36166,-0.21576 0.60524,-0.59597 0.0154,-0.60153 -0.78823,-0.007 -1.53875,0.0365 -2.29484,0.19968 -0.36908,0.0377 -0.73754,0.0686 -1.10909,0.0742 -0.14219,0.002 -0.30787,0.068 -0.45068,0.1595 -0.41359,0.0643 -0.8278,0.12612 -1.24943,0.13848 -0.62688,0.0173 -0.96257,0.76042 -0.14219,0.73754 0.26336,-0.007 0.52301,-0.0371 0.78205,-0.0717 0.0513,0.0507 0.14095,0.0872 0.30231,0.089 1.23645,0.013 2.47289,0.0254 3.70934,0.0383 0.33074,0.003 1.28219,-0.50323 0.58051,-0.72579 z"
         inkscape:connector-curvature="0" />
      <path
         inkscape:export-ydpi="277"
         inkscape:export-xdpi="277"
         id="path49731-3-4-8-0"
         d="m 467.40196,681.93655 c -0.0859,-6.2e-4 -0.17063,-0.002 -0.25594,-0.002 0.0266,-0.16568 -0.0631,-0.31034 -0.35857,-0.31344 -0.30911,-0.003 -0.61822,-0.006 -0.92733,-0.009 -0.26337,-0.003 -0.57371,0.0723 -0.73507,0.30108 -0.37402,-0.004 -0.74805,-0.007 -1.12146,-0.0118 -0.2683,-0.003 -0.58545,0.0736 -0.74495,0.3122 -0.49829,0.0822 -1.00956,0.72641 -0.37588,0.80184 6.1e-4,0.11684 0.076,0.22627 0.24172,0.29303 0.88221,0.35363 1.84911,0.0754 2.76284,0.0525 0.30478,-0.008 0.60338,-0.2918 0.63553,-0.52363 0.20031,-0.0383 0.40123,-0.0711 0.60648,-0.0822 0.4989,-0.026 1.00956,-0.80987 0.27263,-0.8179 z"
         inkscape:connector-curvature="0" />
      <path
         inkscape:export-ydpi="277"
         inkscape:export-xdpi="277"
         id="path49733-5-1-5-7"
         d="m 478.08793,682.53375 c 0,0 -6.2e-4,0 -10e-4,0 -1.13382,-0.0111 -2.26639,-0.0229 -3.40021,-0.0346 -0.2306,-0.002 -1.35453,0.44945 -0.78267,0.45501 0.30726,0.003 0.61513,0.006 0.92239,0.009 0.002,6.2e-4 0.003,6.2e-4 0.005,6.2e-4 0.80308,0.008 1.60737,0.0161 2.41044,0.0241 -0.32394,0.12612 -0.60338,0.28933 -0.25038,0.30664 0.59535,0.0297 1.31991,0.12736 1.96595,0.0198 0.0661,6.2e-4 0.13168,0.001 0.19783,0.002 0.22936,0.002 1.34402,-0.44574 0.78824,-0.45439 0.0662,-0.0612 0.13539,-0.11685 0.19288,-0.19289 0.0798,-0.10448 -0.16259,-0.11623 -0.19536,-0.11623 -0.61698,-0.006 -1.23459,-0.013 -1.85281,-0.0192 z"
         inkscape:connector-curvature="0" />
      <path
         inkscape:export-ydpi="277"
         inkscape:export-xdpi="277"
         id="path49735-0-9-4-9"
         d="m 491.16705,681.69482 c -1.54741,-0.56382 -2.98293,-0.10386 -4.56743,-0.0804 -0.3969,0.006 -1.29209,0.60772 -0.48036,0.61575 0.0303,0 0.0606,6.2e-4 0.0903,6.2e-4 -0.0637,0.0581 -0.1051,0.11623 -0.1119,0.16568 -0.31467,0.18052 -0.51498,0.44698 0.0148,0.45192 1.13258,0.0111 2.2664,0.0229 3.39899,0.0346 0.21081,0.002 0.55578,-0.15827 0.71899,-0.31592 0.25533,-0.0513 0.61451,-0.25656 0.69612,-0.41359 0.23183,-0.11931 0.55887,-0.34249 0.24049,-0.45872 z"
         inkscape:connector-curvature="0" />
      <path
         inkscape:export-ydpi="277"
         inkscape:export-xdpi="277"
         id="path49737-2-7-5-5"
         d="m 500.80885,681.40302 c -1.76441,-0.0408 -3.40765,-0.2374 -5.10899,0.35301 -0.39257,0.13662 -0.50076,0.61265 0.013,0.6176 0.10324,10e-4 0.20587,0.002 0.30911,0.003 0.2003,0.002 0.40061,0.004 0.60091,0.006 0,0 -6.2e-4,6.2e-4 -0.001,6.2e-4 -0.52117,0.22751 -0.38516,0.65779 0.16444,0.61142 0.31406,-0.0266 0.5935,-0.0896 0.82904,-0.25718 0.0457,-0.0124 0.0921,-0.0235 0.13848,-0.034 0.11685,6.2e-4 0.23369,0.002 0.34992,0.003 0.31405,0.003 0.62935,0.006 0.94279,0.01 0,0.009 0,0.0186 0,0.0284 -0.006,0.52178 1.19316,0.27573 1.19687,-0.14034 6.2e-4,-0.0686 10e-4,-0.13848 0.002,-0.2071 0.0365,-0.007 0.0723,-0.0111 0.1088,-0.0179 0.23555,-0.0482 0.45563,-0.26151 0.48036,-0.43523 0.33013,-0.20525 0.53167,-0.52858 -0.026,-0.54156 z"
         inkscape:connector-curvature="0" />
      <path
         inkscape:export-ydpi="277"
         inkscape:export-xdpi="277"
         id="path49739-3-0-1-7"
         d="m 511.29328,681.50317 c -0.021,0.004 -0.0426,0.007 -0.0804,0.0179 -0.14838,0.0291 -0.29861,0.0488 -0.44945,0.0692 -0.0148,-6.2e-4 -0.026,-0.002 -0.0414,-0.002 -1.02996,-0.0111 -2.05992,-0.021 -3.08988,-0.0315 -0.27264,-0.003 -0.88653,0.30787 -0.80431,0.4581 -0.10386,0.0525 -0.19659,0.11128 -0.25594,0.16754 -0.4037,0.089 -1.09487,0.51374 -0.37526,0.52178 0.41173,0.004 0.82409,0.009 1.23644,0.013 0.0927,0.001 0.22627,-0.0352 0.35857,-0.089 1.01389,-0.0754 2.0253,-0.18052 3.04413,-0.18609 0.1459,-6.1e-4 1.08622,-0.37958 0.76783,-0.50137 0.32395,-0.0971 0.59473,-0.24482 0.69921,-0.47604 0.0921,-0.20277 -0.6516,-0.16073 -1.00956,0.0389 z"
         inkscape:connector-curvature="0" />
      <path
         inkscape:export-ydpi="277"
         inkscape:export-xdpi="277"
         id="path49741-4-0-11-6"
         d="m 525.53899,681.34305 c -1.33907,-0.0136 -2.67876,-0.0278 -4.01845,-0.0402 -0.18794,-0.002 -0.42534,0.11066 -0.59411,0.24543 -0.32828,0.0204 -0.65099,0.0439 -0.95392,0.0476 -0.4173,0.005 -1.12269,0.58051 -0.63368,0.69117 -0.41297,0.17928 -0.78143,0.61513 -0.13724,0.63429 1.49424,0.0445 2.94397,0.30046 4.31457,-0.43213 0.0779,-0.0414 0.2102,-0.17001 0.2306,-0.28933 0.44203,-0.0643 0.88406,-0.13045 1.3366,-0.1459 0.30231,0.003 0.73692,-0.28871 0.79441,-0.49953 0.0396,-0.1156 -0.0402,-0.20834 -0.33878,-0.21143 z m -4.53652,0.97927 c 0.28376,0.003 0.56691,0.006 0.85067,0.009 -0.27572,0.0204 -0.5632,0.013 -0.85067,-0.009 z"
         inkscape:connector-curvature="0" />
      <path
         inkscape:export-ydpi="277"
         inkscape:export-xdpi="277"
         id="path49743-0-1-19-3"
         d="m 539.44158,681.13718 c -0.0841,-6.1e-4 -0.16816,-0.002 -0.25286,-0.002 0.013,-0.12983 -0.0439,-0.24852 -0.22503,-0.28871 -1.25561,-0.27511 -2.43456,0.19351 -3.69202,0.25224 -0.20402,0.009 -0.4105,0.14837 -0.53353,0.30663 -0.29427,-0.0111 -0.58484,-0.0124 -0.86304,-0.0154 -0.3629,-0.004 -0.82285,0.37464 -0.79503,0.60833 -0.0457,0 -0.0927,10e-4 -0.1391,6.2e-4 -0.52055,-0.006 -1.24387,0.77958 -0.43461,0.787 0.83769,0.009 1.71,-0.055 2.53965,0.0686 0.64605,0.0971 1.35082,0.21761 1.94802,-0.11499 0.20649,-0.11561 0.42287,-0.31468 0.30912,-0.51683 0.39009,-0.0581 0.75361,-0.15456 1.0689,-0.30541 0.21143,0.002 0.42287,0.004 0.63368,0.007 0.52116,0.007 1.24448,-0.77834 0.43585,-0.78638 z"
         inkscape:connector-curvature="0" />
      <path
         inkscape:export-ydpi="277"
         inkscape:export-xdpi="277"
         id="path49745-6-1-3-3"
         d="m 554.45449,680.82065 c -1.97769,-0.0192 -3.90716,0.21329 -5.87558,0.24977 -0.23555,0.005 -1.36998,0.47912 -0.77525,0.4853 0.13848,0.001 0.27634,0.003 0.41544,0.004 -0.22936,0.0767 -0.45748,0.17125 -0.68684,0.29056 -0.0872,0.0451 -0.42039,0.25038 -0.14714,0.30788 0.0674,0.0136 0.13601,0.0167 0.20339,0.0291 -0.23121,0.0723 -0.45872,0.15889 -0.68066,0.27511 -0.70044,0.36908 0.40927,0.30046 0.68685,0.15456 0.12241,-0.0643 0.25594,-0.1119 0.39504,-0.14899 0.005,0.002 0.005,0.004 0.0105,0.006 1.63767,0.47727 3.7724,0.34806 5.27839,-0.47912 0.21081,-0.11623 0.14219,-0.24606 -0.0693,-0.25904 -0.32951,-0.0192 -0.65655,-0.0631 -0.98173,-0.11004 0.6312,-0.10634 1.26055,-0.23369 1.88867,-0.37959 0.15703,-0.0371 0.87293,-0.42101 0.33816,-0.42596 z m -2.71832,1.38359 c 0.0186,-0.0124 0.0359,-0.0235 0.0495,-0.0352 0.0272,0.004 0.0538,0.009 0.081,0.0124 0.0736,0.009 0.005,0.0167 -0.13045,0.0229 z"
         inkscape:connector-curvature="0" />
      <path
         inkscape:export-ydpi="277"
         inkscape:export-xdpi="277"
         id="path49641-2"
         d="m 494.06189,673.30438 c 1.01697,-0.0192 1.22779,-0.94898 1.29703,-1.8114 0.0618,-0.76969 0.0717,-1.55421 0.0593,-2.34368 0.18114,-0.74249 0.35424,-1.48312 0.47417,-2.2188 1.09426,-0.27079 2.68124,-0.47233 3.51213,-1.20987 0.055,-0.0445 0.10509,-0.0927 0.15208,-0.14281 0.006,-0.006 0.0111,-0.0111 0.0155,-0.0167 0.0946,-0.102 0.17804,-0.21205 0.23616,-0.33878 0.0983,-0.10077 0.18917,-0.20278 0.25965,-0.30602 0.0136,-0.0198 -0.004,-0.0346 -0.0346,-0.0457 0.1459,-0.29799 0.19907,-0.64914 0.11993,-1.06273 -0.13971,-0.72579 -0.94217,-1.16287 -1.66672,-1.33783 -0.0254,-0.0186 -0.0761,-0.0322 -0.15951,-0.0371 -0.12302,-0.0235 -0.24296,-0.0408 -0.35362,-0.0488 -1.02934,-0.0705 -1.84477,0.2714 -2.74862,0.60462 -0.16506,-0.013 -0.34744,0.0309 -0.47294,0.0835 -0.15455,0.0643 -0.2646,0.12426 -0.34929,0.19103 -0.24049,0.0686 -0.44327,0.22503 -0.4377,0.44759 0.0105,0.43399 0.0915,3.92015 0.14775,6.34915 -0.25656,0.94217 -0.53167,1.8794 -0.60338,2.84816 -0.0229,0.31035 0.3054,0.40123 0.55269,0.39628 z m 1.93874,-9.88848 c 0.0779,-0.003 0.15394,-0.013 0.22875,-0.0278 0.67015,-0.0711 1.33227,-0.0637 1.9035,0.32209 0.54404,0.36661 0.70107,1.04109 0.4884,1.62593 -0.008,0.021 -0.0216,0.0346 -0.0309,0.0544 -0.17558,0.12241 -0.37403,0.23678 -0.50633,0.34497 -0.042,0.0346 -0.0835,0.0525 -0.12488,0.0816 -0.47665,0.15517 -1.04665,0.15641 -1.4825,0.17186 -0.089,0.003 -0.2986,0.0828 -0.48468,0.17681 0.0828,-0.85129 0.0989,-2.00366 -0.251,-2.70967 0.0859,-0.0173 0.17248,-0.0371 0.25965,-0.0402 z"
         inkscape:connector-curvature="0" />
      <path
         inkscape:export-ydpi="277"
         inkscape:export-xdpi="277"
         id="path49655-4"
         d="m 500.84199,666.07014 c -0.56258,1.78851 -2.12174,4.93341 0.22689,6.2731 0.25532,0.14528 0.5125,0.23802 0.76597,0.28562 0.1323,0.10386 0.26893,0.20649 0.42163,0.29984 0.28129,0.17248 1.08498,-0.0538 1.07447,-0.44018 -10e-4,-0.0359 -0.002,-0.0711 -0.003,-0.10695 0.52116,-0.28191 0.96319,-0.75547 1.25808,-1.33721 0.41174,-0.81235 0.25286,-1.94431 0.17372,-2.8123 -0.0767,-0.83336 0.068,-1.88991 -0.30231,-2.65403 -0.30293,-0.62502 -0.9434,-0.46737 -1.57028,-0.0903 0.10633,-0.14961 0.21576,-0.29551 0.32766,-0.43152 0.35795,-0.43399 -0.77896,-0.24172 -0.91992,-0.16568 -0.40555,0.21885 -0.69983,0.49396 -0.86922,0.82903 -0.26584,0.0569 -0.52982,0.17991 -0.5836,0.35054 z m 2.53162,0.055 c 0.15517,0.31962 0.10819,0.787 0.10695,1.13135 -0.002,0.94155 0.17743,1.86888 0.15332,2.81414 -0.0105,0.39629 -0.11437,0.76166 -0.23925,1.13383 -0.18176,0.54279 -0.39999,0.78576 -0.62997,0.84387 -1.51341,-1.25623 -1.44108,-3.28091 -0.7159,-5.03233 0.18856,-0.076 0.35486,-0.1762 0.41483,-0.24049 0.0989,-0.1051 0.78638,-0.90508 0.91002,-0.65037 z"
         inkscape:connector-curvature="0" />
      <path
         inkscape:export-ydpi="277"
         inkscape:export-xdpi="277"
         id="path49703-7"
         d="m 513.56831,664.51276 c -0.0173,0.0118 -0.0291,0.0229 -0.0451,0.0352 -0.0705,-0.0451 -0.1663,-0.0643 -0.25533,-0.0618 -0.0383,10e-4 -0.0754,0.002 -0.11375,0.003 -0.29551,0.008 -0.83707,0.1255 -0.82656,0.50942 0.002,0.0754 0.004,0.15084 0.006,0.22626 10e-4,0.0538 0.0266,0.0934 0.0655,0.12489 -0.0977,1.00955 -0.30663,2.00613 -0.37402,3.0262 -0.0389,0.59473 -0.16878,1.17029 -0.30973,1.74215 -0.14714,-0.51004 -0.30293,-1.01451 -0.43647,-1.52949 -0.26274,-1.0145 -0.91558,-3.03732 -2.03086,-3.52572 -0.12302,-0.1799 -0.25903,-0.36042 -0.41977,-0.56629 -0.0365,-0.0457 -0.0927,-0.0729 -0.15641,-0.0921 -0.2442,-0.20772 -0.95021,0.0971 -1.07385,0.28748 -0.14158,0.21761 -0.25718,0.40184 -0.251,0.67077 0.002,0.13415 0.076,0.21947 0.18176,0.27078 -0.32024,1.08807 -1.78543,5.9813 -1.03924,7.31914 -0.0494,0.23616 -0.10633,0.47356 -0.18732,0.71404 -0.15888,0.47356 1.05098,0.32148 1.19997,-0.12426 0.0476,-0.14157 0.0865,-0.28253 0.12303,-0.42348 0.35919,-0.30231 0.51683,-0.91064 0.60215,-1.34958 0.26831,-1.38791 0.47046,-2.71771 0.55763,-4.06172 0.1187,0.51683 0.24791,1.04108 0.47233,1.56163 0.6244,1.45158 1.65436,2.9075 1.81015,4.492 0.0371,0.37465 1.2043,0.0995 1.19441,-0.32024 -0.004,-0.18361 0.008,-0.36722 0.0266,-0.55145 0.54342,-0.30726 0.69859,-1.04727 0.80864,-1.73288 0.16877,-1.05716 0.77463,-2.02591 1.12269,-3.03547 0.39504,-1.14186 0.40988,-2.39067 0.32024,-3.58137 -0.0284,-0.36722 -0.82409,-0.12488 -0.97123,-0.0272 z"
         inkscape:connector-curvature="0" />
      <path
         inkscape:export-ydpi="277"
         inkscape:export-xdpi="277"
         id="path49547-8"
         d="m 515.98284,665.18733 c 0.005,0 0.01,0 0.0142,0 -0.15208,0.12612 -0.22071,0.26584 0.007,0.35239 0.0488,0.0186 0.0971,0.0309 0.14528,0.0476 -0.004,0.53724 0.0507,1.07015 0.094,1.60491 0.0606,0.75238 -0.034,1.7539 0.13663,2.49329 -0.004,0.68685 -0.0229,1.37307 -0.0711,2.05745 -0.0946,0.46799 -0.20895,0.93351 -0.37402,1.39161 -0.0519,0.14343 0.14095,0.19289 0.3833,0.17929 0.006,0.002 0.013,0.004 0.0185,0.006 0.076,0.0346 0.16569,0.0593 0.2813,0.0612 0.0451,6.2e-4 0.0903,10e-4 0.13539,0.002 0.16692,0.003 0.34311,-0.0779 0.47417,-0.19969 0.10386,-0.0482 0.19413,-0.10571 0.2714,-0.1731 0.23493,-0.0723 0.47974,-0.12797 0.73136,-0.16877 0.76474,-0.0662 1.52701,-0.1391 2.30164,-0.13663 0.0835,-6.2e-4 0.16754,-10e-4 0.24853,-0.002 0.5224,-0.005 0.99348,-0.82286 0.27078,-0.83151 -0.65346,-0.008 -1.35391,-0.0964 -1.99006,0.0692 -0.16383,0.0136 -0.3258,0.0309 -0.48901,0.0513 -0.16383,-10e-4 -0.32828,-0.0118 -0.47789,-0.007 -0.0556,0.002 -0.11066,0.0124 -0.16568,0.0167 0.0223,-0.2986 0.007,-0.62564 -0.0309,-0.96999 -0.0117,-0.10695 -0.0254,-0.21329 -0.0383,-0.31962 0.0216,-0.31158 0.0346,-0.62502 0.0451,-0.93723 0.0866,-0.0414 0.15023,-0.0773 0.0822,-0.0624 0.0841,-0.0222 0.16259,-0.0581 0.23925,-0.0964 0.002,-6.2e-4 0.003,-6.2e-4 0.006,-6.2e-4 0.1935,-0.0167 0.37402,-0.0575 0.55949,-0.11622 0.14157,-0.0445 0.3326,-0.009 0.48221,-0.0371 0.1898,-0.0365 0.37341,-0.0915 0.54095,-0.19103 0.23492,-0.13786 0.31158,-0.2646 0.31405,-0.52239 10e-4,-0.14034 -0.2782,-0.16383 -0.36104,-0.16445 -0.26954,-0.002 -0.57,0.0334 -0.82656,-0.0538 -0.23802,-0.081 -0.47665,-0.0933 -0.72518,-0.0964 -0.0872,-6.2e-4 -0.16568,0.007 -0.24605,0.0111 0.034,-0.6479 -0.0167,-1.29518 0.0297,-1.94493 0.021,-0.29427 0.0822,-0.50076 0.12859,-0.68561 0.4105,-0.0328 0.82965,-0.0989 1.27477,-0.17681 0.76289,-0.13292 1.82499,0.10139 1.98202,-0.95577 0.0309,-0.20525 -0.20587,-0.27264 -0.36784,-0.27326 -1.18142,-0.006 -2.36099,0.0513 -3.5418,0.0748 -0.19288,-0.1391 -0.5224,-0.12241 -0.76659,0.008 -0.0884,6.2e-4 -0.1762,0.004 -0.2646,0.003 -0.45625,-6.2e-4 -1.2686,0.68993 -0.46058,0.69302 z m 1.94926,3.91583 c 6.2e-4,6.1e-4 0.002,6.1e-4 0.003,6.1e-4 -0.001,6.2e-4 -0.002,6.2e-4 -0.004,10e-4 6.2e-4,-6.2e-4 6.2e-4,-10e-4 6.2e-4,-0.002 z"
         inkscape:connector-curvature="0" />
      <path
         inkscape:export-ydpi="277"
         inkscape:export-xdpi="277"
         id="path49537-5"
         d="m 528.58545,671.38267 c 0.0761,-0.9533 -0.21205,-2.11061 -0.86983,-2.85495 -0.0223,-0.11993 -0.0383,-0.23987 -0.0618,-0.36042 -0.0414,-0.21267 -0.16383,-0.38701 -0.27078,-0.57 0.19474,-0.16383 0.38639,-0.33137 0.56568,-0.51313 0.2411,-0.24482 0.44883,-0.50694 0.69735,-0.73568 0.13539,-0.11314 0.27264,-0.22195 0.41297,-0.32519 0.0223,-0.0161 0.0445,-0.0322 0.0661,-0.0495 0.16631,-0.11684 0.3357,-0.22379 0.51313,-0.30849 0.39195,-0.18732 0.22318,-0.24172 -0.0495,-0.23245 0.0111,-0.0241 0.0284,-0.0457 0.0377,-0.0711 0.002,-0.007 0,-0.0124 0.002,-0.0192 0.0352,-0.0247 0.0686,-0.0513 0.10387,-0.0754 0.10448,-0.0797 0.0637,-0.1224 -0.0155,-0.14466 0.2442,-0.089 0.43399,-0.1867 0.33755,-0.23616 -0.10015,-0.0513 -0.20092,-0.10139 -0.30169,-0.15208 0.0587,-0.0501 0.102,-0.10881 0.11313,-0.17805 0.006,-0.0389 0.0124,-0.0779 0.0179,-0.11685 0.0142,-0.0995 -0.0303,-0.16197 -0.11932,-0.20339 -0.72703,-0.34064 -1.50537,-0.51251 -2.27876,-0.71528 -0.75918,-0.19845 -1.53691,-0.53848 -2.32452,-0.5799 -10e-4,-0.005 -10e-4,-0.0117 -0.003,-0.0161 -0.0921,-0.28315 -1.10662,0.0383 -1.18637,0.26398 -0.008,0.0223 -0.0117,0.0464 -0.0186,0.0686 -0.0921,0.0624 -0.14157,0.11808 -0.10324,0.1459 0.0173,0.013 0.0365,0.0216 0.0538,0.0334 -0.21081,0.76968 -0.20586,1.65498 -0.16321,2.52049 -0.19721,2.36347 -0.58855,4.71889 -0.889,7.06319 -0.0204,0.0618 -0.0389,0.12365 -0.06,0.18547 -0.0105,0.0303 6.2e-4,0.0544 0.026,0.0729 -6.2e-4,10e-4 -6.2e-4,0.002 -6.2e-4,0.004 -0.0464,0.37341 0.92115,0.21823 1.13876,-0.0779 0.32457,-0.0433 0.70169,-0.18608 0.72209,-0.36289 0.13601,-1.15979 0.33013,-2.31401 0.41235,-3.47874 0.11437,-0.0303 0.21638,-0.0773 0.28624,-0.14281 0.10572,-0.0995 0.22009,-0.18979 0.33075,-0.28376 0.0581,0.0643 0.11375,0.13044 0.16754,0.19721 0.12797,0.26645 0.25841,0.57309 0.42162,0.79009 0.14158,0.19041 0.2646,0.39257 0.38021,0.59782 0.0971,0.21761 0.19536,0.43152 0.30046,0.64171 0.1663,0.43338 0.36413,0.86613 0.77587,1.02934 0.26831,0.10572 0.923,-0.0723 0.95762,-0.41915 0.005,-0.0439 0.009,-0.089 0.013,-0.13354 0.0124,-0.12611 -0.047,-0.20648 -0.13849,-0.25718 z m -0.66582,-5.58564 c -0.12426,0.0921 -0.23802,0.19845 -0.34806,0.30911 -0.78205,0.48098 -1.59501,0.95083 -2.25775,1.55916 0.089,-1.13011 0.009,-2.25528 0.0284,-3.3891 0.32209,0.1323 0.65717,0.23987 0.91435,0.3561 0.78576,0.35486 1.45035,0.51807 2.24291,0.61699 -10e-4,0.002 -0.004,0.004 -0.005,0.007 -0.0934,0.25532 -0.36723,0.38639 -0.57495,0.54094 z"
         inkscape:connector-curvature="0" />
      <path
         inkscape:export-ydpi="277"
         inkscape:export-xdpi="277"
         id="path49583-3"
         d="m 542.27672,664.39255 c 0.002,-0.15023 -0.27078,-0.17867 -0.55516,-0.12365 -0.28315,-0.24543 -1.09178,-0.0334 -1.09611,0.34064 -0.006,0.43152 0.0136,0.83028 0.0439,1.22285 -0.52919,1.57585 0.5799,3.44102 -0.17124,4.93403 -0.29613,0.042 -0.60339,0.20711 -0.63492,0.44512 -0.0284,0.21576 -0.13353,0.36104 -0.27263,0.46367 -0.0934,0.01 -0.18733,0.0291 -0.27449,0.0624 -0.28006,-0.006 -0.57619,-0.12488 -0.84017,-0.2918 -0.57804,-1.39904 -0.33879,-4.57299 -0.32333,-5.27406 0.003,-0.13539 -0.22194,-0.16816 -0.47665,-0.13353 0.0111,-0.0754 0.0179,-0.15147 0.0322,-0.22566 0.10139,-0.5465 -1.11404,-0.36907 -1.20368,0.11499 -0.19598,1.05716 -0.0414,2.12174 -0.0371,3.18632 -0.0297,0.31159 -0.0495,0.62379 -0.047,0.93599 0,10e-4 0,0.003 0,0.004 -0.11375,0.94032 -0.12921,1.85405 0.83398,2.30411 0.21514,0.10077 0.46985,0.17682 0.74249,0.22566 0.26645,0.14157 0.59411,0.20154 0.99163,0.16259 0.16568,0.25285 0.72765,0.12673 0.93228,-0.0161 0.31158,-0.21823 0.61204,-0.45563 0.89086,-0.71219 0.3938,-0.30045 0.68808,-0.67139 0.91126,-1.08992 0.21823,-0.35919 0.38577,-0.74929 0.47108,-1.1839 0.0427,-0.21885 0.0674,-0.44017 0.0797,-0.66212 0.20092,-1.56039 -0.0117,-3.31923 0.003,-4.68983 z"
         inkscape:connector-curvature="0" />
      <path
         inkscape:export-ydpi="277"
         inkscape:export-xdpi="277"
         id="path49587-0"
         d="m 550.73521,666.59342 c -0.18856,-1.25994 -0.51066,-2.47166 -0.54651,-3.75138 -0.008,-0.28624 -1.18946,-0.0655 -1.19441,0.32024 -0.0198,1.67229 -0.11622,3.24196 0.35053,4.86108 0.0958,0.33384 0.18794,0.6683 0.28253,1.00214 -0.002,0.26151 -0.007,0.52302 -0.0136,0.78453 -0.042,-0.002 -0.0816,-0.013 -0.12179,-0.0204 -0.69055,-1.46828 -0.88591,-3.2228 -2.03024,-4.33189 -0.0983,-0.14281 -0.2034,-0.28253 -0.3085,-0.42286 0.004,-0.0408 0.006,-0.0835 0.009,-0.12427 0.19103,-0.63553 0.28438,-1.28095 0.0593,-1.87259 -0.14776,-0.38825 -1.00523,-0.13107 -1.15361,0.14652 -0.10138,0.18917 -0.18608,0.38453 -0.27387,0.57865 -0.31406,0.0359 -0.66026,0.1966 -0.68746,0.41112 -0.12117,0.95948 -0.32271,1.90474 -0.54651,2.84568 -0.59411,1.52206 -1.23645,3.00518 -1.36504,4.65831 -0.0136,0.18237 0.1119,0.25594 0.28315,0.2683 -0.0198,0.13972 -0.0451,0.27821 -0.0624,0.41854 -0.0173,0.1459 0.0964,0.22998 0.23183,0.251 -0.002,0.0223 -0.004,0.0439 -0.006,0.0655 0.0192,0.1459 0.25842,0.17867 0.36537,0.18052 0.076,6.2e-4 0.15208,0.002 0.22812,0.003 0.2102,0.002 0.50015,-0.14342 0.6683,-0.30107 0.19845,-0.0773 0.36414,-0.19845 0.39072,-0.33879 0.27387,-1.45406 0.77463,-2.79251 1.19688,-4.15074 0.0736,0.1323 0.14837,0.26336 0.22503,0.39319 -0.0501,0.0643 -0.0717,0.13291 -0.026,0.19906 0.1867,0.27017 0.3938,0.54589 0.61265,0.821 0.008,0.0142 0.0148,0.0272 0.0235,0.0427 0.01,0.0173 0.0315,0.0254 0.0457,0.0389 0.13848,0.17063 0.28252,0.34002 0.42966,0.50818 0.10077,0.48283 0.19845,0.96319 0.50942,1.41202 0.31158,0.44945 0.72022,0.56258 1.24695,0.42224 0.21205,-0.0569 0.33879,-0.14219 0.42843,-0.24419 0.34744,-0.0983 0.67572,-0.30293 0.52549,-0.43894 -0.0754,-0.0674 -0.13972,-0.14219 -0.20773,-0.21514 0.005,-0.0105 0.0111,-0.0198 0.0161,-0.0303 0.24049,-0.0618 0.46181,-0.17619 0.46428,-0.37958 6.2e-4,-0.0507 0.003,-0.10201 0.004,-0.15271 0.0155,-0.0204 0.0334,-0.0334 0.0482,-0.055 0.35239,-0.51312 0.20525,-1.16967 10e-4,-1.78975 0.0111,-0.67757 -0.005,-1.35329 -0.10324,-2.01293 z"
         inkscape:connector-curvature="0" />
      <path
         inkscape:export-ydpi="277"
         inkscape:export-xdpi="277"
         id="path49569-9"
         d="m 564.72247,663.39256 c 0.0971,-0.29675 0.14837,-0.60153 0.14837,-0.91126 6.2e-4,-0.0563 -0.003,-0.11314 -0.006,-0.16878 -0.004,-0.0624 -0.005,-0.12364 -0.013,-0.18608 -0.0167,-0.13416 -0.047,-0.26707 -0.0872,-0.39937 -0.004,-0.0148 -0.009,-0.0303 -0.013,-0.0457 -0.0433,-0.13601 -0.0977,-0.27078 -0.16754,-0.4037 -0.0204,-0.042 -0.0457,-0.0847 -0.0692,-0.12674 -0.0915,-0.25347 -0.23493,-0.47356 -0.4544,-0.63491 -0.4309,-0.4952 -0.90136,-0.80184 -1.39038,-0.94712 -0.19845,-0.0909 -0.39937,-0.17063 -0.60276,-0.22689 -0.0111,-0.004 -0.0167,-0.009 -0.0291,-0.0124 -0.026,-0.006 -0.0451,-0.004 -0.0692,-0.009 -0.95083,-0.23678 -1.91464,-0.0878 -2.66578,0.46799 -0.26089,0.15641 -0.45748,0.3357 -0.60276,0.54465 -0.0625,0.0198 -0.12365,0.0408 -0.18485,0.0631 -0.15332,-0.10324 -0.68499,-0.0767 -0.89643,0.0408 -0.068,0.0383 -0.13168,0.0723 -0.19165,0.10818 -0.22317,0.0556 -0.45995,0.1626 -0.50323,0.32828 0.002,0.004 0.004,0.007 0.006,0.0111 -0.46367,0.25532 -0.10634,0.43832 0.25718,0.38948 0.27572,-0.0377 0.49519,-0.0841 0.71837,-0.1459 -0.55454,0.53229 -0.60771,1.61727 -0.0624,2.09268 -0.0507,0.0742 -0.0767,0.15394 -0.0389,0.23987 0.46985,1.07138 0.80184,2.20211 1.31063,3.25371 0.13972,0.28933 0.25718,0.5836 0.36476,0.88158 0.0272,1.05655 0.11622,2.1032 0.37402,3.11275 -0.18114,0.0761 -0.32024,0.17867 -0.31097,0.29861 0.0427,0.58422 0.0952,1.49115 0.4952,1.96347 0.17372,0.20525 0.39999,0.30664 0.64481,0.3629 0.0519,0.0773 0.23121,0.0915 0.4445,0.0594 0.0668,0.004 0.13353,0.009 0.19968,0.0117 0.15147,0.006 1.08251,-0.1187 0.98051,-0.41915 -0.25471,-0.75176 -0.61699,-1.48435 -0.65779,-2.28804 -6.2e-4,-0.0117 -0.0142,-0.0161 -0.0198,-0.026 0.0315,-0.0637 0.0476,-0.13044 0.0216,-0.20216 -0.26336,-0.74001 -0.45872,-1.49919 -0.6683,-2.25466 -0.013,-0.41173 -0.0556,-0.81234 -0.13972,-1.21728 0.0315,-0.003 0.0637,-0.006 0.0903,-0.013 0.45253,-0.11437 0.92053,-0.28747 1.35081,-0.52054 0.45996,-0.11128 0.90384,-0.2646 1.29703,-0.52673 1.01822,-0.68066 1.17277,-1.46209 1.14124,-2.5446 z m -4.13529,0.2207 c -0.0952,-0.64728 -0.27078,-1.49919 -0.69241,-2.09268 0.94279,-0.41977 2.21633,-1.04418 3.11275,-0.46058 0.003,0.002 0.005,0.004 0.008,0.007 0.0457,0.0501 0.0952,0.0995 0.13601,0.15085 0.18237,0.32395 0.30416,0.68685 0.39381,1.0448 -0.008,0.26707 -0.042,0.54156 -0.0365,0.80554 0.004,0.16321 0.0173,0.33508 0.0309,0.51065 -0.0247,0.068 -0.0513,0.13539 -0.0816,0.20154 -0.29551,0.0643 -0.60648,0.20834 -0.64234,0.35177 -0.009,0.034 -0.0204,0.0649 -0.0297,0.0983 -0.0785,0.0532 -0.16012,0.10881 -0.2442,0.16754 -0.45501,0.16445 -0.88035,0.44574 -1.22408,0.79318 -0.15641,-0.0192 -0.39195,0.003 -0.60339,0.0525 -0.0155,-0.54404 -0.0476,-1.08869 -0.12735,-1.63026 z"
         inkscape:connector-curvature="0" />
      <path
         inkscape:export-ydpi="277"
         inkscape:export-xdpi="277"
         id="path49565-6"
         d="m 572.11619,663.56611 c -0.013,-0.14713 -0.26275,-0.18917 -0.36784,-0.19041 -0.0649,-6.2e-4 -0.13045,-0.001 -0.19536,-0.002 -0.20525,-0.002 -0.47665,0.13292 -0.64605,0.285 -0.34311,0.0371 -0.77092,0.18979 -0.77401,0.41544 -10e-4,0.0655 -0.002,0.1323 -0.002,0.19784 0,0.0272 0.0185,0.047 0.0457,0.0643 -0.0278,0.0408 -0.0476,0.0853 -0.0482,0.13292 -0.0148,1.32423 0.0668,2.60519 0.37836,3.89418 0.18175,0.75053 0.1156,1.3842 -0.1898,2.07785 -0.0161,0.0377 -0.30973,0.52054 -0.58236,0.85562 -1.7131,-0.29737 -1.43799,-2.18789 -1.60305,-3.8336 -0.1187,-1.19131 -0.25409,-2.35975 -0.51127,-3.50718 -0.0643,-0.56691 -0.22195,-1.1128 -0.21638,-1.73349 0.002,-0.19783 -0.17434,-0.28191 -0.39196,-0.28809 0,-10e-4 -6.1e-4,-0.002 -6.1e-4,-0.002 -0.15641,-0.39937 -1.33475,-0.0389 -1.19441,0.32024 0.28624,0.73074 0.47727,1.45901 0.6207,2.18975 0.003,0.11375 0.0142,0.22256 0.006,0.34187 -0.0791,1.10044 -0.47232,2.05559 -0.40494,3.19003 0.0513,0.88097 0.38454,1.80707 0.92486,2.56006 0.0661,0.30973 0.0989,0.62255 0.28253,0.90384 0.22812,0.35054 0.45069,0.55022 0.82471,0.62194 -6.2e-4,0.0235 -6.2e-4,0.0476 -6.2e-4,0.0717 -10e-4,0.12859 0.28315,0.14157 0.35362,0.13725 0.10263,-0.007 0.20278,-0.021 0.30417,-0.0334 0.16445,0.0618 0.32704,0.12426 0.50447,0.14776 0.4037,0.0538 1.02069,-0.0989 1.47693,-0.35919 0.25286,-0.009 0.55269,-0.0729 0.66583,-0.16136 0.36661,-0.28314 0.39813,-0.86736 0.42534,-1.29579 0.0179,-0.28562 0.31962,-0.73507 0.44203,-0.99843 0.0705,-0.15085 0.0569,-0.42596 0.0383,-0.67881 0.3054,-1.73164 -0.0359,-3.85585 -0.16445,-5.3229 z"
         inkscape:connector-curvature="0" />
      <path
         inkscape:export-ydpi="277"
         inkscape:export-xdpi="277"
         id="path49559-3"
         d="m 581.40099,660.37897 c -0.80431,0.0118 -1.62964,0.14961 -2.42529,-0.008 -0.62193,-0.1224 -1.27168,-0.23121 -1.9066,-0.23925 -0.46305,-0.006 -1.12331,-0.13477 -1.49672,0.23987 -0.31344,0.31468 -0.5057,0.85995 -0.31838,1.27416 0.0457,0.10077 0.13477,0.15455 0.23431,0.18794 -0.0773,0.17001 -0.14961,0.33569 -0.19474,0.48221 -0.33508,1.08931 -0.60339,2.22251 -0.68252,3.35942 -0.0865,1.25809 -0.59968,3.30564 -0.004,4.57732 -0.57866,0.63986 -0.0896,1.2618 0.68313,1.40461 0.49891,0.0921 1.10477,-0.0767 1.59255,-0.16569 0.69302,-0.12612 1.45282,-0.2442 2.1545,-0.28809 0.26893,-0.0167 0.87973,-0.32457 0.60586,-0.67757 -0.1459,-0.18856 -0.34744,-0.29428 -0.57124,-0.35239 -0.13972,-0.285 -0.66953,-0.26583 -0.96628,-0.0606 -0.0445,0.002 -0.0896,0.004 -0.1323,0.006 -0.71034,0.0272 -1.38915,0.2139 -2.07723,0.32333 0.0322,-0.047 0.055,-0.0977 0.0618,-0.15208 0.1119,-0.88592 0.1354,-1.77368 0.25038,-2.65898 0.0464,-0.35857 0.19969,-0.76412 0.35548,-1.16782 0.081,-0.0155 0.16198,-0.0328 0.23925,-0.0624 0.29675,-0.11437 0.37341,-0.0785 0.83708,-0.0439 0.64604,0.0476 1.61912,0.0532 2.05744,-0.52178 0.0457,-0.06 0.0847,-0.13168 0.013,-0.19226 -0.43461,-0.37094 -0.94094,-0.48778 -1.5029,-0.45687 -0.28191,0.0155 -0.54713,0.10448 -0.80802,0.20649 -0.21081,-0.0198 -0.38886,-0.0532 -0.40555,-0.11932 -0.006,-0.0223 -0.0278,-0.0346 -0.0427,-0.0507 0.21019,-1.10415 0.0618,-2.23982 0.12179,-3.36623 0.10881,0.0142 0.21885,0.0278 0.32889,0.0291 0.0278,6.2e-4 0.055,0.004 0.0828,0.005 0.0872,0.0488 0.17682,0.089 0.27326,0.11128 0.47294,0.10942 0.96443,0.11622 1.45406,0.11251 0.0655,0.0643 0.24358,0.0773 0.32209,0.0779 0.0655,6.2e-4 0.13168,10e-4 0.19722,10e-4 0.0989,6.1e-4 0.34682,-0.0389 0.54898,-0.11685 0.17928,-0.0105 0.36351,-0.0513 0.52734,-0.12364 0.15023,-0.0328 0.29613,-0.0816 0.41977,-0.15332 0.17063,-0.0995 0.33941,-0.19969 0.3425,-0.41483 0.002,-0.1595 0.004,-0.319 0.006,-0.47789 0.22442,-0.22256 0.31344,-0.53352 -0.17557,-0.52734 z"
         inkscape:connector-curvature="0" />
      <path
         inkscape:export-ydpi="277"
         inkscape:export-xdpi="277"
         id="path49561-4"
         d="m 587.30378,664.71827 c -0.15332,-0.22812 -0.42163,-0.42966 -0.59659,-0.52919 -0.59844,-0.34064 -1.46024,-0.32272 -2.19716,-0.31221 10e-4,-0.12364 0.002,-0.24729 0.004,-0.37155 0.004,-0.28067 0.0291,-0.26769 0.17063,-0.49829 0.16877,-0.27387 0.20896,-0.67386 0.39875,-0.9298 0.0624,-0.0389 0.11623,-0.0853 0.15888,-0.13972 0.0124,0 0.0229,0.002 0.0352,0.002 0.28006,0.006 0.57495,0.0186 0.86242,0.0111 0.27078,0.3425 0.54898,0.68932 0.96443,0.78453 0.2918,0.0661 0.75052,-0.0482 0.92115,-0.31344 0.11623,-0.18114 0.15147,-0.3833 0.13106,-0.59226 0.251,-0.12179 0.47171,-0.31158 0.19042,-0.49829 -0.13972,-0.0927 -0.285,-0.14466 -0.43276,-0.18052 -0.31715,-0.52611 -0.8754,-0.97926 -1.32423,-1.08992 -0.74558,-0.183 -1.4689,-0.0284 -2.07723,0.34064 -0.32889,-0.0859 -0.89024,0.0878 -0.98112,0.43584 -0.0229,0.0884 -0.0525,0.18176 -0.0853,0.27759 -0.0637,0.0569 -0.1051,0.11684 -0.10881,0.17743 -0.77402,0.59967 -1.25314,1.69393 -1.00152,2.64908 0.0322,0.12179 0.0804,0.23369 0.14034,0.33631 0.06,0.51807 0.38329,0.92301 1.21048,1.08622 0.19164,0.0377 0.36536,0.0241 0.52858,-0.0136 0.56258,0.25903 1.15978,0.46737 1.71,0.76227 1.5913,0.855 1.51774,2.23302 0.79936,3.62711 -0.0266,0.0513 -0.0575,0.10881 -0.0903,0.16939 -0.26584,0.32766 -0.5564,0.63183 -0.89457,0.89272 -2.02715,0.5125 -2.72883,0.029 -2.10566,-1.45159 0.14899,-0.43585 0.22812,-0.48716 0.23368,-0.92857 0.006,-0.47294 -0.67757,-0.4884 -1.01944,-0.2374 -0.1558,0.0556 -0.28933,0.13786 -0.34435,0.24605 -1.32547,2.60519 1.12207,5.62954 3.65678,3.47256 0.50818,-0.43214 0.9737,-0.95515 1.35576,-1.53196 0.26646,-0.29242 0.502,-0.57618 0.69489,-0.81481 0.889,-1.10106 0.27263,-3.87502 -0.90755,-4.8376 z"
         inkscape:connector-curvature="0" />
      <path
         inkscape:export-ydpi="277"
         inkscape:export-xdpi="277"
         id="path49653-1"
         d="m 594.00702,662.16491 c 0.21267,0.0389 0.42349,0.0909 0.62874,0.17434 0.83707,0.34002 1.58388,0.57989 2.33131,-0.0525 0.29799,-0.25286 0.24791,-0.70045 -0.19597,-0.73383 -0.91745,-0.0692 -1.78543,-0.34435 -2.73131,-0.38206 -0.89951,-0.0371 -1.74215,-0.10263 -2.65032,-0.0618 -0.21638,0.01 -0.37897,0.11005 -0.48531,0.23678 -0.10138,0.002 -0.20154,0.0124 -0.30292,0.01 -0.6955,0.0173 -0.90446,0.88777 -0.0977,0.90446 0.72641,0.0142 1.48002,-0.11004 2.22189,-0.15393 -0.12488,0.58793 -0.183,1.17709 -0.24173,1.76688 -0.11375,0.34867 -0.24172,0.69859 -0.40246,1.06643 -0.27573,0.62873 -0.31529,1.46519 -0.2986,2.14338 0.003,0.12612 -0.0142,0.25223 -0.0223,0.37773 -0.19165,0.83213 -0.34991,1.6624 -0.4717,2.55388 -0.0649,0.47665 1.12455,0.251 1.19441,-0.14961 0.11128,-0.64048 0.20463,-1.29209 0.40246,-1.91216 0.10448,-0.32581 0.11375,-0.67077 0.11375,-1.0176 0.10015,-0.40493 0.21329,-0.81111 0.35795,-1.22099 0.20896,-0.59164 0.28748,-1.18142 0.33941,-1.7712 0.0247,-0.0488 0.0433,-0.0952 0.0692,-0.14591 0.0525,-0.10509 0.23801,-1.18884 0.2411,-1.6321 z"
         inkscape:connector-curvature="0" />
      <path
         inkscape:export-ydpi="277"
         inkscape:export-xdpi="277"
         id="path49655-8"
         d="m 597.03508,663.86935 c -0.56258,1.78851 -2.12174,4.93341 0.22689,6.2731 0.25532,0.14528 0.5125,0.23802 0.76597,0.28562 0.1323,0.10386 0.26893,0.20649 0.42163,0.29984 0.28129,0.17248 1.08498,-0.0538 1.07447,-0.44018 -10e-4,-0.0359 -0.002,-0.0711 -0.003,-0.10695 0.52116,-0.28191 0.96319,-0.75547 1.25808,-1.33721 0.41174,-0.81235 0.25286,-1.94431 0.17372,-2.8123 -0.0767,-0.83336 0.068,-1.88991 -0.30231,-2.65403 -0.30293,-0.62502 -0.9434,-0.46737 -1.57028,-0.0903 0.10633,-0.14961 0.21576,-0.29551 0.32766,-0.43152 0.35795,-0.43399 -0.77896,-0.24172 -0.91992,-0.16568 -0.40555,0.21885 -0.69983,0.49396 -0.86922,0.82903 -0.26584,0.0569 -0.52982,0.17991 -0.5836,0.35054 z m 2.53162,0.055 c 0.15517,0.31962 0.10819,0.787 0.10695,1.13135 -0.002,0.94155 0.17743,1.86888 0.15332,2.81414 -0.0105,0.39629 -0.11437,0.76166 -0.23925,1.13383 -0.18176,0.54279 -0.39999,0.78576 -0.62997,0.84387 -1.51341,-1.25623 -1.44108,-3.28091 -0.7159,-5.03233 0.18856,-0.076 0.35486,-0.1762 0.41483,-0.24049 0.0989,-0.1051 0.78638,-0.90508 0.91002,-0.65037 z"
         inkscape:connector-curvature="0" />
      <g
         id="g123730-4-5-9"
         transform="translate(307.81368,80.140378)">
        <path
           style="color:#000000;clip-rule:nonzero;display:inline;overflow:visible;visibility:visible;opacity:1;isolation:auto;mix-blend-mode:normal;color-interpolation:sRGB;color-interpolation-filters:linearRGB;solid-color:#000000;solid-opacity:1;fill:#000000;fill-opacity:1;fill-rule:nonzero;stroke:none;stroke-width:4.6062994;stroke-miterlimit:4;stroke-dasharray:none;marker:none;color-rendering:auto;image-rendering:auto;shape-rendering:auto;text-rendering:auto;enable-background:accumulate"
           d="m 298.78993,578.22507 c -0.23206,-0.0833 -0.43703,-0.0448 -0.67705,0.0859 -0.32658,0.0485 -0.64912,0.1151 -0.96654,0.20697 -0.3395,0.14838 -0.46112,0.29904 -0.6542,0.60684 -0.1631,0.23715 -0.3332,0.4699 -0.51024,0.69684 -0.22156,0.24249 -0.0651,0.52668 0.16143,0.58423 0.004,0.0159 0.005,0.032 0.0121,0.0471 -0.0168,0.11818 0.0314,0.22966 0.11667,0.30481 -0.0324,0.32672 0.41554,0.55024 0.64462,0.20092 0.11318,-0.19423 0.2325,-0.38475 0.35169,-0.57488 0.18054,-0.11907 0.33871,-0.26561 0.46672,-0.44207 0.0283,-0.0408 0.0553,-0.0826 0.0832,-0.12372 0.14803,-0.064 0.30092,-0.11674 0.46284,-0.14277 0.25024,-0.0601 0.50964,-0.0803 0.75973,-0.007 0.15477,0.0421 0.3126,0.089 0.45297,0.16614 0.0673,0.0615 0.13532,0.12185 0.19699,0.18861 0.0258,0.0343 0.0541,0.0667 0.0795,0.10127 0.002,0.003 0.003,0.005 0.005,0.008 0.10965,0.23345 0.13781,0.49969 0.15475,0.75724 0.0518,0.33626 0.13454,0.66703 0.22846,0.99388 0.0126,0.0471 0.0357,0.0909 0.0448,0.13886 0.0256,0.13357 -0.0317,0.25353 -0.0763,0.37654 -0.13986,0.34235 -0.32474,0.6608 -0.54674,0.95709 -0.13701,0.20572 -0.25113,0.42289 -0.36512,0.64109 -0.26761,0.19963 -0.45993,0.46448 -0.64466,0.73991 -0.20265,0.27546 -0.43289,0.52771 -0.66815,0.77568 -0.20538,0.22394 -0.4164,0.44087 -0.62369,0.66305 -0.27085,0.27264 -0.37931,0.64638 -0.48867,1.00401 -0.0739,0.2488 -0.13146,0.50215 -0.1843,0.75612 -0.0395,0.16377 -0.061,0.32631 -0.0709,0.48985 -0.0554,0.23962 -0.0372,0.4801 0.02,0.72183 -0.0309,0.22276 -0.0168,0.44688 0.0269,0.66781 0.0568,0.30725 0.20765,0.56319 0.40278,0.80074 0.12725,0.15045 0.28892,0.25277 0.45196,0.35789 0.0459,0.0385 0.0952,0.0711 0.13793,0.1131 0.0985,0.0858 0.20222,0.10928 0.2957,0.0951 0.21872,0.003 0.43473,-0.20131 0.32055,-0.48791 -0.0632,-0.15657 -0.11934,-0.32032 -0.12503,-0.49034 -0.003,-0.28076 -0.0313,-0.56188 -0.0984,-0.83505 -0.0433,-0.15616 -0.10211,-0.30759 -0.15395,-0.46106 -0.0269,-0.18892 -0.0556,-0.37789 -0.0742,-0.5679 -0.008,-0.106 -0.008,-0.21236 -0.0124,-0.31882 0.0478,-0.086 0.0969,-0.17108 0.14043,-0.25946 0.20793,-0.36342 0.4301,-0.7184 0.61881,-1.09255 0.0415,-0.0264 0.0805,-0.0565 0.12439,-0.0802 0.42868,-0.26289 0.82529,-0.57263 1.11921,-0.98708 0.29564,-0.40247 0.5788,-0.81339 0.85119,-1.23199 0.28693,-0.41813 0.56624,-0.864 0.68546,-1.36154 0.0583,-0.44945 0.0842,-0.90469 0.0357,-1.3567 -0.049,-0.37112 -0.10368,-0.73689 -0.32809,-1.0492 -0.0284,-0.0378 -0.0564,-0.0757 -0.0852,-0.11324 -0.0139,-0.0848 -0.0256,-0.16982 -0.0625,-0.25193 -0.12617,-0.28511 -0.3047,-0.53154 -0.52971,-0.74806 -0.20202,-0.20762 -0.41042,-0.40957 -0.6374,-0.59011 -0.006,-0.005 -0.0128,-0.009 -0.0189,-0.0133 -0.16118,-0.18096 -0.33175,-0.35368 -0.53113,-0.49423 -0.1161,-0.0752 -0.22039,-0.13062 -0.31915,-0.16605 z m -1.13023,13.95626 c -0.0322,-0.005 -0.0717,-0.004 -0.11953,0.003 -0.0563,0.008 -0.11933,0.005 -0.1669,0.0365 -0.0814,0.0534 -0.13746,0.13899 -0.20578,0.20838 -0.002,0.0154 -0.003,0.0309 -0.005,0.0463 -0.16513,0.15193 -0.30087,0.33236 -0.39553,0.54436 0,0 -2.6e-4,10e-4 -2.6e-4,10e-4 -0.10282,0.27136 0.0822,0.46482 0.28691,0.4853 0.007,0.0973 0.0544,0.19508 0.16873,0.26804 0.14888,0.0908 0.33252,0.23986 0.53032,0.19127 0.37845,-0.093 0.41233,-0.37606 0.35899,-0.68423 -0.014,-0.0431 -0.0339,-0.0819 -0.0493,-0.12354 0.0174,-0.10835 -0.0208,-0.22079 -0.12446,-0.30639 -0.0187,-0.0427 -0.0328,-0.0863 -0.0522,-0.12951 -0.0138,-0.0307 -0.0256,-0.0632 -0.0406,-0.0934 -0.002,-0.003 -0.008,-0.0111 -0.009,-0.007 -0.0146,0.0346 -0.0227,0.0722 -0.0341,0.10799 -0.005,0.005 -0.0109,0.009 -0.0164,0.0142 0.009,-0.29215 0.0688,-0.53495 -0.12537,-0.56205 z m -0.19497,1.269 c 0.002,0.008 0.004,0.0161 0.006,0.0241 -0.003,0.0238 0.0149,0.0795 -0.008,0.0714 -0.0254,-0.009 -0.0265,-0.0547 -0.0138,-0.0785 0.003,-0.007 0.0115,-0.0106 0.0156,-0.0171 z"
           id="path122492-74-38-0"
           inkscape:connector-curvature="0" />
        <path
           style="color:#000000;clip-rule:nonzero;display:inline;overflow:visible;visibility:visible;opacity:1;isolation:auto;mix-blend-mode:normal;color-interpolation:sRGB;color-interpolation-filters:linearRGB;solid-color:#000000;solid-opacity:1;fill:#000000;fill-opacity:1;fill-rule:nonzero;stroke:none;stroke-width:4.6062994;stroke-miterlimit:4;stroke-dasharray:none;marker:none;color-rendering:auto;image-rendering:auto;shape-rendering:auto;text-rendering:auto;enable-background:accumulate"
           d="m 298.4205,578.40978 c -0.23206,-0.0833 -0.43703,-0.0448 -0.67705,0.0859 -0.32658,0.0485 -0.64912,0.1151 -0.96654,0.20697 -0.3395,0.14838 -0.46112,0.29904 -0.6542,0.60684 -0.1631,0.23715 -0.3332,0.4699 -0.51024,0.69684 -0.22156,0.24249 -0.0651,0.52668 0.16143,0.58423 0.004,0.0159 0.005,0.032 0.0121,0.0471 -0.0168,0.11818 0.0314,0.22966 0.11667,0.30481 -0.0324,0.32672 0.41554,0.55024 0.64462,0.20092 0.11318,-0.19423 0.2325,-0.38475 0.35169,-0.57488 0.18054,-0.11907 0.33871,-0.26561 0.46672,-0.44207 0.0283,-0.0408 0.0553,-0.0826 0.0832,-0.12372 0.14803,-0.064 0.30092,-0.11674 0.46284,-0.14277 0.25024,-0.0601 0.50964,-0.0803 0.75973,-0.007 0.15477,0.0421 0.3126,0.089 0.45297,0.16614 0.0673,0.0615 0.13532,0.12185 0.19699,0.18861 0.0258,0.0343 0.0541,0.0667 0.0795,0.10127 0.002,0.003 0.003,0.005 0.005,0.008 0.10965,0.23345 0.13781,0.49969 0.15475,0.75724 0.0518,0.33626 0.13454,0.66703 0.22846,0.99388 0.0126,0.0471 0.0357,0.0909 0.0448,0.13886 0.0256,0.13357 -0.0317,0.25353 -0.0763,0.37654 -0.13986,0.34235 -0.32474,0.6608 -0.54674,0.95709 -0.13701,0.20572 -0.25113,0.42289 -0.36512,0.64109 -0.26761,0.19963 -0.45993,0.46448 -0.64466,0.73991 -0.20265,0.27546 -0.43289,0.52771 -0.66815,0.77568 -0.20538,0.22394 -0.4164,0.44087 -0.62369,0.66305 -0.27085,0.27264 -0.37931,0.64638 -0.48867,1.00401 -0.0739,0.2488 -0.13146,0.50215 -0.1843,0.75612 -0.0395,0.16377 -0.061,0.32631 -0.0709,0.48985 -0.0554,0.23962 -0.0372,0.4801 0.02,0.72183 -0.0309,0.22276 -0.0168,0.44688 0.0269,0.66781 0.0568,0.30725 0.20765,0.56319 0.40278,0.80074 0.12725,0.15045 0.28892,0.25277 0.45196,0.35789 0.0459,0.0385 0.0952,0.0711 0.13793,0.1131 0.0985,0.0858 0.20222,0.10928 0.2957,0.0951 0.21872,0.003 0.43473,-0.20131 0.32055,-0.48791 -0.0632,-0.15657 -0.11934,-0.32032 -0.12503,-0.49034 -0.003,-0.28076 -0.0313,-0.56188 -0.0984,-0.83505 -0.0433,-0.15616 -0.10211,-0.30759 -0.15395,-0.46106 -0.0269,-0.18892 -0.0556,-0.37789 -0.0742,-0.5679 -0.008,-0.106 -0.008,-0.21236 -0.0124,-0.31882 0.0478,-0.086 0.0969,-0.17108 0.14043,-0.25946 0.20793,-0.36342 0.4301,-0.7184 0.61881,-1.09255 0.0415,-0.0264 0.0805,-0.0565 0.12439,-0.0802 0.42868,-0.26289 0.82529,-0.57263 1.11921,-0.98708 0.29564,-0.40247 0.5788,-0.81339 0.85119,-1.23199 0.28693,-0.41813 0.56624,-0.864 0.68546,-1.36154 0.0583,-0.44945 0.0842,-0.90469 0.0357,-1.3567 -0.049,-0.37112 -0.10368,-0.73689 -0.32809,-1.0492 -0.0284,-0.0378 -0.0564,-0.0757 -0.0852,-0.11324 -0.0139,-0.0848 -0.0256,-0.16982 -0.0625,-0.25193 -0.12617,-0.28511 -0.3047,-0.53154 -0.52971,-0.74806 -0.20202,-0.20762 -0.41042,-0.40957 -0.6374,-0.59011 -0.006,-0.005 -0.0128,-0.009 -0.0189,-0.0133 -0.16118,-0.18096 -0.33175,-0.35368 -0.53113,-0.49423 -0.1161,-0.0752 -0.22039,-0.13062 -0.31915,-0.16605 z m -1.13023,13.95626 c -0.0322,-0.005 -0.0717,-0.004 -0.11953,0.003 -0.0563,0.008 -0.11933,0.005 -0.1669,0.0365 -0.0814,0.0534 -0.13746,0.13899 -0.20578,0.20838 -0.002,0.0154 -0.003,0.0309 -0.005,0.0463 -0.16513,0.15193 -0.30087,0.33236 -0.39553,0.54436 0,0 -2.6e-4,0.001 -2.6e-4,0.001 -0.10282,0.27136 0.0822,0.46482 0.28691,0.4853 0.007,0.0973 0.0544,0.19508 0.16873,0.26804 0.14888,0.0908 0.33252,0.23986 0.53032,0.19127 0.37845,-0.093 0.41233,-0.37606 0.35899,-0.68423 -0.014,-0.0431 -0.0339,-0.0819 -0.0493,-0.12354 0.0174,-0.10835 -0.0208,-0.22079 -0.12446,-0.30639 -0.0187,-0.0427 -0.0328,-0.0863 -0.0522,-0.12951 -0.0138,-0.0307 -0.0256,-0.0632 -0.0406,-0.0934 -0.002,-0.003 -0.008,-0.0111 -0.009,-0.007 -0.0146,0.0346 -0.0227,0.0722 -0.0341,0.10799 -0.005,0.005 -0.0109,0.009 -0.0164,0.0142 0.009,-0.29215 0.0688,-0.53495 -0.12537,-0.56205 z m -0.19497,1.269 c 0.002,0.008 0.004,0.0161 0.006,0.0241 -0.003,0.0238 0.0149,0.0795 -0.008,0.0714 -0.0254,-0.009 -0.0265,-0.0547 -0.0138,-0.0785 0.003,-0.007 0.0115,-0.0106 0.0156,-0.0171 z"
           id="path122492-2-4-96-4"
           inkscape:connector-curvature="0" />
      </g>
      <path
         inkscape:export-ydpi="277"
         inkscape:export-xdpi="277"
         id="path49737-2-7-5-5-4"
         d="m 565.08919,681.40302 c -1.76441,-0.0408 -3.40765,-0.2374 -5.10899,0.35301 -0.39257,0.13662 -0.50076,0.61265 0.013,0.6176 0.10324,10e-4 0.20587,0.002 0.30911,0.003 0.2003,0.002 0.40061,0.004 0.60091,0.006 0,0 -6.2e-4,6.2e-4 -10e-4,6.2e-4 -0.52117,0.22751 -0.38516,0.65779 0.16444,0.61142 0.31406,-0.0266 0.5935,-0.0896 0.82904,-0.25718 0.0457,-0.0124 0.0921,-0.0235 0.13848,-0.034 0.11685,6.2e-4 0.23369,0.002 0.34992,0.003 0.31405,0.003 0.62935,0.006 0.94279,0.01 0,0.009 0,0.0186 0,0.0284 -0.006,0.52178 1.19316,0.27573 1.19687,-0.14034 6.2e-4,-0.0686 10e-4,-0.13848 0.002,-0.2071 0.0365,-0.007 0.0723,-0.0111 0.1088,-0.0179 0.23555,-0.0482 0.45563,-0.26151 0.48036,-0.43523 0.33013,-0.20525 0.53167,-0.52858 -0.026,-0.54156 z"
         inkscape:connector-curvature="0" />
      <path
         inkscape:export-ydpi="277"
         inkscape:export-xdpi="277"
         id="path49739-3-0-1-7-9"
         d="m 575.57362,681.50317 c -0.021,0.004 -0.0426,0.007 -0.0804,0.0179 -0.14838,0.0291 -0.29861,0.0488 -0.44945,0.0692 -0.0148,-6.2e-4 -0.026,-0.002 -0.0414,-0.002 -1.02996,-0.0111 -2.05992,-0.021 -3.08988,-0.0315 -0.27264,-0.003 -0.88653,0.30787 -0.80431,0.4581 -0.10386,0.0525 -0.19659,0.11128 -0.25594,0.16754 -0.4037,0.089 -1.09487,0.51374 -0.37526,0.52178 0.41173,0.004 0.82409,0.009 1.23644,0.013 0.0927,0.001 0.22627,-0.0352 0.35857,-0.089 1.01389,-0.0754 2.0253,-0.18052 3.04413,-0.18609 0.1459,-6.1e-4 1.08622,-0.37958 0.76783,-0.50137 0.32395,-0.0971 0.59473,-0.24482 0.69921,-0.47604 0.0921,-0.20277 -0.6516,-0.16073 -1.00956,0.0389 z"
         inkscape:connector-curvature="0" />
      <path
         inkscape:export-ydpi="277"
         inkscape:export-xdpi="277"
         id="path49741-4-0-11-6-9"
         d="m 589.81933,681.34305 c -1.33907,-0.0136 -2.67876,-0.0278 -4.01845,-0.0402 -0.18794,-0.002 -0.42534,0.11066 -0.59411,0.24543 -0.32828,0.0204 -0.65099,0.0439 -0.95392,0.0476 -0.4173,0.005 -1.12269,0.58051 -0.63368,0.69117 -0.41297,0.17928 -0.78143,0.61513 -0.13724,0.63429 1.49424,0.0445 2.94397,0.30046 4.31457,-0.43213 0.0779,-0.0414 0.2102,-0.17001 0.2306,-0.28933 0.44203,-0.0643 0.88406,-0.13045 1.3366,-0.1459 0.30231,0.003 0.73692,-0.28871 0.79441,-0.49953 0.0396,-0.1156 -0.0402,-0.20834 -0.33878,-0.21143 z m -4.53652,0.97927 c 0.28376,0.003 0.56691,0.006 0.85067,0.009 -0.27572,0.0204 -0.5632,0.013 -0.85067,-0.009 z"
         inkscape:connector-curvature="0" />
      <path
         inkscape:export-ydpi="277"
         inkscape:export-xdpi="277"
         id="path49743-0-1-19-3-4"
         d="m 603.72192,681.13718 c -0.0841,-6.1e-4 -0.16816,-0.002 -0.25286,-0.002 0.013,-0.12983 -0.0439,-0.24852 -0.22503,-0.28871 -1.25561,-0.27511 -2.43456,0.19351 -3.69202,0.25224 -0.20402,0.009 -0.4105,0.14837 -0.53353,0.30663 -0.29427,-0.0111 -0.58484,-0.0124 -0.86304,-0.0154 -0.3629,-0.004 -0.82285,0.37464 -0.79503,0.60833 -0.0457,0 -0.0927,10e-4 -0.1391,6.2e-4 -0.52055,-0.006 -1.24387,0.77958 -0.43461,0.787 0.83769,0.009 1.71,-0.055 2.53965,0.0686 0.64605,0.0971 1.35082,0.21761 1.94802,-0.11499 0.20649,-0.11561 0.42287,-0.31468 0.30912,-0.51683 0.39009,-0.0581 0.75361,-0.15456 1.0689,-0.30541 0.21143,0.002 0.42287,0.004 0.63368,0.007 0.52116,0.007 1.24448,-0.77834 0.43585,-0.78638 z"
         inkscape:connector-curvature="0" />
      <path
         inkscape:export-ydpi="277"
         inkscape:export-xdpi="277"
         id="path49745-6-1-3-3-4"
         d="m 618.73483,680.82065 c -1.97769,-0.0192 -3.90716,0.21329 -5.87558,0.24977 -0.23555,0.005 -1.36998,0.47912 -0.77525,0.4853 0.13848,0.001 0.27634,0.003 0.41544,0.004 -0.22936,0.0767 -0.45748,0.17125 -0.68684,0.29056 -0.0872,0.0451 -0.42039,0.25038 -0.14714,0.30788 0.0674,0.0136 0.13601,0.0167 0.20339,0.0291 -0.23121,0.0723 -0.45872,0.15889 -0.68066,0.27511 -0.70044,0.36908 0.40927,0.30046 0.68685,0.15456 0.12241,-0.0643 0.25594,-0.1119 0.39504,-0.14899 0.005,0.002 0.005,0.004 0.0105,0.006 1.63767,0.47727 3.7724,0.34806 5.27839,-0.47912 0.21081,-0.11623 0.14219,-0.24606 -0.0693,-0.25904 -0.32951,-0.0192 -0.65655,-0.0631 -0.98173,-0.11004 0.6312,-0.10634 1.26055,-0.23369 1.88867,-0.37959 0.15703,-0.0371 0.87293,-0.42101 0.33816,-0.42596 z m -2.71832,1.38359 c 0.0186,-0.0124 0.0359,-0.0235 0.0495,-0.0352 0.0272,0.004 0.0538,0.009 0.081,0.0124 0.0736,0.009 0.005,0.0167 -0.13045,0.0229 z"
         inkscape:connector-curvature="0" />
    </g>
  </g>
</svg>
