<?xml version="1.0" encoding="UTF-8" standalone="no"?>
<!-- Created with Inkscape (http://www.inkscape.org/) -->

<svg
   xmlns:dc="http://purl.org/dc/elements/1.1/"
   xmlns:cc="http://creativecommons.org/ns#"
   xmlns:rdf="http://www.w3.org/1999/02/22-rdf-syntax-ns#"
   xmlns:svg="http://www.w3.org/2000/svg"
   xmlns="http://www.w3.org/2000/svg"
   xmlns:sodipodi="http://sodipodi.sourceforge.net/DTD/sodipodi-0.dtd"
   xmlns:inkscape="http://www.inkscape.org/namespaces/inkscape"
   width="50.318935mm"
   height="6.8999968mm"
   viewBox="0 0 178.29544 24.448807"
   id="svg51980"
   version="1.1"
   inkscape:version="0.91 r13725"
   sodipodi:docname="topatu.svg">
  <defs
     id="defs51982" />
  <sodipodi:namedview
     id="base"
     pagecolor="#ffffff"
     bordercolor="#666666"
     borderopacity="1.0"
     inkscape:pageopacity="0.0"
     inkscape:pageshadow="2"
     inkscape:zoom="0.47851563"
     inkscape:cx="-432.00715"
     inkscape:cy="-81.112462"
     inkscape:document-units="px"
     inkscape:current-layer="layer1"
     showgrid="false"
     inkscape:window-width="1598"
     inkscape:window-height="879"
     inkscape:window-x="0"
     inkscape:window-y="19"
     inkscape:window-maximized="1"
     fit-margin-top="0"
     fit-margin-left="0"
     fit-margin-right="0"
     fit-margin-bottom="0" />
  <metadata
     id="metadata51985">
    <rdf:RDF>
      <cc:Work
         rdf:about="">
        <dc:format>image/svg+xml</dc:format>
        <dc:type
           rdf:resource="http://purl.org/dc/dcmitype/StillImage" />
        <dc:title></dc:title>
      </cc:Work>
    </rdf:RDF>
  </metadata>
  <g
     inkscape:label="Capa 1"
     inkscape:groupmode="layer"
     id="layer1"
     transform="translate(-124.01178,-578.18108)">
    <g
       id="g125195">
      <path
         id="path49865-0"
         d="m 131.4489,591.14622 c -0.0129,-0.002 -0.0279,0.002 -0.0416,0.002 -0.41785,0.0214 -0.83707,0.0398 -1.25492,0.0584 -0.0389,0.002 -0.0852,0.0306 -0.13496,0.0688 -0.0423,0.0214 -0.0811,0.0438 -0.12202,0.0624 0,-0.002 6.9e-4,0 6.9e-4,0 -0.007,0 -0.0143,0.0214 -0.0218,0.0214 -0.0743,0.0398 -0.15541,0.0624 -0.22562,0.1169 0.2263,-0.94913 0.4417,-1.90242 0.51123,-3.11232 0.0416,-0.51314 0.0975,-1.00128 0.15065,-1.49774 0.18063,-0.71548 0.34764,-1.46438 0.51191,-2.23621 0.11997,-0.56528 -0.0981,-0.65917 -0.26175,-0.6383 0.0416,-0.21697 0.0266,-0.4172 -0.075,-0.50482 0.1336,-0.33794 0.15201,-0.64874 -0.16632,-0.60283 -0.82002,0.1169 -1.62982,0.55904 -2.44984,0.67169 -0.12474,0.0214 -0.33333,0.28154 -0.4867,0.57364 -0.24403,0.0214 -0.48874,0.0245 -0.73345,0.0355 -0.30129,0.0214 -1.07223,1.43516 -0.41172,1.40596 0.20177,-0.0214 0.40354,-0.0214 0.60531,-0.0306 -0.30334,0.41931 -0.59304,1.14107 -0.1043,1.11812 0.22222,-0.0214 0.44444,-0.0214 0.66734,-0.0334 0.0273,0.0214 0.0525,0.0214 0.0791,0.0306 -0.23858,0.39845 -0.44784,1.15775 -6.8e-4,1.07638 0.0395,0 0.0777,-0.0306 0.11724,-0.0395 0.0368,0.0214 0.0736,0.0312 0.12815,0.0306 0.4233,-0.0245 0.84456,-0.0918 1.2515,-0.3045 -0.15405,0.51731 -0.25834,1.15356 -0.28765,2.00048 -0.0102,0.28583 0.0389,0.42761 0.11861,0.47559 -0.0423,0.36714 -0.0777,0.74679 -0.10225,1.18694 -0.007,0.12303 0.004,0.21698 0.0259,0.28797 -0.006,0.0939 -0.015,0.16893 -0.0204,0.269 -0.002,0.0355 0.005,0.0502 0.005,0.0814 -0.0545,0.2338 -0.10907,0.46935 -0.16428,0.703 -0.0409,0.0355 -0.0818,0.0584 -0.1227,0.0979 -0.0457,0.0438 -0.31765,0.41928 -0.41444,0.75719 -0.20518,0.26502 -0.31628,0.76974 -0.17587,0.98668 -0.1002,0.33586 -0.0968,0.66961 0.20041,0.65501 0.43216,-0.0245 0.8616,-0.0667 1.28968,-0.13985 0.0266,0.0306 0.0532,0.052 0.0757,0.0646 0.71368,0.39845 1.36057,-0.42555 2.06471,-0.64041 0.27198,-0.0836 1.09064,-1.43724 0.41171,-1.40597 -0.18472,0 -0.36945,0.0214 -0.55418,0.0275 0.15883,-0.0667 0.31629,-0.15423 0.47102,-0.2794 0.0484,0 0.0982,-0.0245 0.14656,-0.0306 0.29379,-0.0376 1.077,-1.43516 0.41171,-1.40596 -0.30469,0.0214 -0.60871,0.0312 -0.91204,0.0459 z"
         inkscape:connector-curvature="0"
         style="fill:#000000" />
      <path
         id="path49627-0"
         d="m 139.27195,594.22998 c -0.81791,-0.15208 -1.62964,-0.12055 -2.44878,-0.0835 -0.0853,-0.26583 -0.84635,-0.22132 -1.06644,0.042 -0.11684,0.14158 -0.20154,0.22442 -0.2207,0.40988 0,6.2e-4 0,0.001 0,0.002 -0.0903,-0.034 -0.15209,-0.0977 -0.19598,-0.18114 0.0272,-0.0408 0.0538,-0.0828 0.0618,-0.13044 0.0569,-0.32766 0.11623,-0.65656 0.17496,-0.98607 0.1731,-0.79627 0.25965,-1.61356 0.47294,-2.41663 0.10386,0.0655 0.24296,0.0921 0.38268,0.089 0.59164,-0.0142 1.18266,-0.029 1.7743,-0.0433 0.56135,-0.013 0.96319,-0.74311 0.25409,-0.89148 -0.68437,-0.14343 -1.39224,-0.0927 -2.08898,-0.0699 0.0303,-0.0692 0.0544,-0.14034 0.0884,-0.20896 0.35115,-0.71528 0.28562,-1.39347 0.21885,-2.15945 -0.0315,-0.36661 -0.13786,-0.70787 -0.24791,-1.05098 0.0767,-0.63924 0.14652,-1.2723 0.17249,-1.91649 0.37464,0.0371 0.76536,0.0155 0.94526,0.0118 0.27758,-0.007 0.62626,-0.0791 0.78576,-0.33755 0.009,-0.013 0.0105,-0.0247 0.0155,-0.0371 0.21019,-0.0389 0.41792,-0.12611 0.52981,-0.30911 0.14405,-0.23678 -0.12179,-0.40184 -0.33631,-0.3969 -0.26274,0.007 -0.52611,0.013 -0.78823,0.0192 -0.06,-0.004 -0.11932,-0.008 -0.17743,-0.0179 -0.34373,-0.0612 -0.65656,-0.11128 -0.98792,-0.0723 -0.007,-0.11004 -0.009,-0.21885 -0.0198,-0.33013 -0.047,-0.48716 -1.17338,-0.22318 -1.19935,0.21452 -0.0457,0.76165 -0.34744,1.63767 -0.29984,2.3882 0.007,0.10262 0.0216,0.20092 0.0346,0.30045 -0.51621,2.91059 -1.93998,6.066 -1.22284,8.99823 0.0581,0.23864 0.34126,0.29984 0.54898,0.29489 0.0371,-10e-4 0.0742,-0.002 0.11128,-0.004 0.0797,-0.002 0.15147,-0.0185 0.21823,-0.0414 0.20525,0.0476 0.43585,0.0532 0.66088,0.042 1.14681,-0.055 2.26455,-0.37464 3.41692,-0.4241 0.30602,-0.013 1.06582,-0.58546 0.43276,-0.70354 z"
         inkscape:connector-curvature="0" />
      <path
         id="path49629-0"
         d="m 144.48665,582.88313 c -0.0507,-0.006 -0.102,-0.009 -0.1527,-0.013 -0.64975,-0.0501 -1.29765,-0.0284 -1.79841,-0.0161 -0.0402,6.2e-4 -0.2139,0.0439 -0.39504,0.11066 -0.32024,0.0111 -0.6615,0.1898 -0.66521,0.47912 -0.004,0.39196 -0.0223,0.80246 -0.0476,1.22038 -0.19536,0.15146 -0.25904,0.38886 -0.14714,0.55145 -0.0291,0.73383 -0.0791,1.4621 -0.14157,2.18851 -0.0878,0.59287 -0.18794,1.17339 -0.30046,1.71618 -0.15023,0.7258 -0.25409,1.56844 -0.15146,2.3103 -0.13168,0.64728 -0.23307,1.29889 -0.27944,1.9573 -0.005,0.0247 -0.0192,0.0464 -0.0185,0.0729 0.001,0.0371 0.002,0.0736 0.003,0.11128 0.005,0.18113 0.11189,0.28747 0.25409,0.34373 -0.004,0.32642 -0.007,0.65346 6.1e-4,0.98235 0.0124,0.48036 0.72085,0.47665 1.00029,0.22318 0.99039,-0.89766 0.72517,-2.08712 0.35548,-3.20919 -0.0235,-0.0705 -0.0334,-0.14281 -0.0513,-0.21453 0.0241,-0.33074 0.0495,-0.66149 0.0785,-0.99162 0.17743,-0.78824 0.3802,-1.57338 0.55578,-2.35729 0.0903,-0.4037 0.1459,-0.80121 0.18052,-1.19502 0.47294,0.009 0.98174,-0.0173 1.48312,-0.10201 0.0136,0.0309 0.0241,0.0637 0.0377,0.0946 0.0835,0.93599 0.10448,1.86765 0.13106,2.81477 0.0167,0.63429 0.10448,1.19069 0.319,1.78728 0.1966,0.54589 0.1694,1.07694 0.4272,1.59872 0.002,0.005 0.009,0.007 0.0111,0.0111 0.0519,0.21391 0.0927,0.42905 0.11623,0.65284 0.0513,0.39814 1.24077,0.12303 1.19441,-0.32024 -0.16754,-1.29394 -0.27017,-2.58108 -0.42781,-3.87502 -0.11252,-0.92177 -0.20649,-2.03704 -0.57619,-2.9551 -0.005,-0.0587 -0.0124,-0.11746 -0.0173,-0.17619 0.45069,-0.21205 0.84759,-0.502 1.12208,-0.91806 0.0161,-0.0247 0.0235,-0.0495 0.0383,-0.0742 0.32209,-0.26831 0.50756,-0.604 0.44141,-1.03861 -0.19227,-1.25252 -1.36813,-1.65375 -2.57985,-1.77059 z m -1.78728,0.72332 c 0.75176,0.0414 1.51341,0.21452 2.12669,0.66335 1.29456,0.94526 -1.18452,1.64509 -1.77183,1.67909 -0.0779,0.004 -0.16135,0.0155 -0.24543,0.0315 -0.006,-0.78205 -0.0649,-1.56596 -0.10943,-2.37397 z"
         inkscape:connector-curvature="0" />
      <path
         inkscape:export-ydpi="277"
         inkscape:export-xdpi="277"
         id="path49653-7"
         d="m 157.44449,585.57568 c 0.21267,0.0389 0.42349,0.0909 0.62874,0.17434 0.83707,0.34002 1.58388,0.57989 2.33131,-0.0525 0.29799,-0.25286 0.24791,-0.70045 -0.19597,-0.73383 -0.91745,-0.0692 -1.78543,-0.34435 -2.73131,-0.38206 -0.89951,-0.0371 -1.74215,-0.10263 -2.65032,-0.0618 -0.21638,0.01 -0.37897,0.11005 -0.48531,0.23678 -0.10138,0.002 -0.20154,0.0124 -0.30292,0.01 -0.6955,0.0173 -0.90446,0.88777 -0.0977,0.90446 0.72641,0.0142 1.48002,-0.11004 2.22189,-0.15393 -0.12488,0.58793 -0.183,1.17709 -0.24173,1.76688 -0.11375,0.34867 -0.24172,0.69859 -0.40246,1.06643 -0.27573,0.62873 -0.31529,1.46519 -0.2986,2.14338 0.003,0.12612 -0.0142,0.25223 -0.0223,0.37773 -0.19165,0.83213 -0.34991,1.6624 -0.4717,2.55388 -0.0649,0.47665 1.12455,0.251 1.19441,-0.14961 0.11128,-0.64048 0.20463,-1.29209 0.40246,-1.91216 0.10448,-0.32581 0.11375,-0.67077 0.11375,-1.0176 0.10015,-0.40493 0.21329,-0.81111 0.35795,-1.22099 0.20896,-0.59164 0.28748,-1.18142 0.33941,-1.7712 0.0247,-0.0488 0.0433,-0.0952 0.0692,-0.14591 0.0525,-0.10509 0.23801,-1.18884 0.2411,-1.6321 z"
         inkscape:connector-curvature="0" />
      <path
         inkscape:export-ydpi="277"
         inkscape:export-xdpi="277"
         id="path49655-3"
         d="m 161.4247,586.65538 c -0.56258,1.78851 -2.12174,4.93341 0.22689,6.2731 0.25532,0.14528 0.5125,0.23802 0.76597,0.28562 0.1323,0.10386 0.26893,0.20649 0.42163,0.29984 0.28129,0.17248 1.08498,-0.0538 1.07447,-0.44018 -0.001,-0.0359 -0.002,-0.0711 -0.003,-0.10695 0.52116,-0.28191 0.96319,-0.75547 1.25808,-1.33721 0.41174,-0.81235 0.25286,-1.94431 0.17372,-2.8123 -0.0767,-0.83336 0.068,-1.88991 -0.30231,-2.65403 -0.30293,-0.62502 -0.9434,-0.46737 -1.57028,-0.0903 0.10633,-0.14961 0.21576,-0.29551 0.32766,-0.43152 0.35795,-0.43399 -0.77896,-0.24172 -0.91992,-0.16568 -0.40555,0.21885 -0.69983,0.49396 -0.86922,0.82903 -0.26584,0.0569 -0.52982,0.17991 -0.5836,0.35054 z m 2.53162,0.055 c 0.15517,0.31962 0.10819,0.787 0.10695,1.13135 -0.002,0.94155 0.17743,1.86888 0.15332,2.81414 -0.0105,0.39629 -0.11437,0.76166 -0.23925,1.13383 -0.18176,0.54279 -0.39999,0.78576 -0.62997,0.84387 -1.51341,-1.25623 -1.44108,-3.28091 -0.7159,-5.03233 0.18856,-0.076 0.35486,-0.1762 0.41483,-0.24049 0.0989,-0.1051 0.78638,-0.90508 0.91002,-0.65037 z"
         inkscape:connector-curvature="0" />
      <path
         inkscape:export-ydpi="277"
         inkscape:export-xdpi="277"
         id="path49641-6"
         d="m 166.96472,594.5651 c 1.01697,-0.0192 1.22779,-0.94897 1.29703,-1.81139 0.0618,-0.76969 0.0717,-1.55421 0.0593,-2.34368 0.18114,-0.74249 0.35424,-1.48312 0.47417,-2.2188 1.09426,-0.27079 2.68124,-0.47233 3.51213,-1.20987 0.055,-0.0445 0.10509,-0.0927 0.15208,-0.14281 0.006,-0.006 0.0111,-0.0111 0.0155,-0.0167 0.0946,-0.102 0.17804,-0.21205 0.23616,-0.33878 0.0983,-0.10077 0.18917,-0.20278 0.25965,-0.30602 0.0136,-0.0198 -0.004,-0.0346 -0.0346,-0.0457 0.1459,-0.29799 0.19907,-0.64914 0.11993,-1.06273 -0.13971,-0.72579 -0.94217,-1.16287 -1.66672,-1.33783 -0.0254,-0.0186 -0.0761,-0.0322 -0.15951,-0.0371 -0.12302,-0.0235 -0.24296,-0.0408 -0.35362,-0.0488 -1.02934,-0.0705 -1.84477,0.2714 -2.74862,0.60462 -0.16506,-0.013 -0.34744,0.0309 -0.47294,0.0835 -0.15455,0.0643 -0.2646,0.12426 -0.34929,0.19103 -0.24049,0.0686 -0.44327,0.22503 -0.4377,0.44759 0.0105,0.43399 0.0915,3.92015 0.14775,6.34915 -0.25656,0.94217 -0.53167,1.8794 -0.60338,2.84815 -0.0229,0.31035 0.3054,0.40123 0.55269,0.39628 z m 1.93874,-9.88847 c 0.0779,-0.003 0.15394,-0.013 0.22875,-0.0278 0.67015,-0.0711 1.33227,-0.0637 1.9035,0.32209 0.54404,0.36661 0.70107,1.04109 0.4884,1.62593 -0.008,0.021 -0.0216,0.0346 -0.0309,0.0544 -0.17558,0.12241 -0.37403,0.23678 -0.50633,0.34497 -0.042,0.0346 -0.0835,0.0525 -0.12488,0.0816 -0.47665,0.15517 -1.04665,0.15641 -1.4825,0.17186 -0.089,0.003 -0.2986,0.0828 -0.48468,0.17681 0.0828,-0.85129 0.0989,-2.00366 -0.251,-2.70967 0.0859,-0.0173 0.17248,-0.0371 0.25965,-0.0402 z"
         inkscape:connector-curvature="0" />
      <path
         inkscape:export-ydpi="277"
         inkscape:export-xdpi="277"
         id="path49635-3"
         d="m 172.56575,593.14729 c 0.2071,0.16754 0.94526,0.0297 1.08869,-0.22071 1.18204,-2.06301 1.80212,-4.42647 2.61632,-6.68731 0.20957,2.35728 0.35177,4.71704 0.6788,7.0669 0.055,0.3969 1.2043,0.0989 1.19441,-0.32024 -6.2e-4,-0.0235 -0.001,-0.047 -0.002,-0.0705 0.0556,-0.0538 0.0983,-0.11189 0.10571,-0.17743 0.21947,-2.01911 0.26955,-4.00484 -0.0334,-6.01716 -0.1051,-0.69735 -0.23678,-2.07846 -0.92919,-2.59715 -0.013,-0.10942 -0.0204,-0.21885 -0.0334,-0.32889 -0.0532,-0.45563 -1.07509,-10e-4 -1.19317,0.23863 -0.006,0.0118 -0.01,0.0229 -0.0155,0.0346 -0.78143,0.35919 -1.27107,1.3434 -1.58512,2.05374 -0.96257,2.17119 -1.69146,4.4716 -2.29052,6.77015 -0.0507,0.19289 0.14961,0.26398 0.39814,0.25533 z"
         inkscape:connector-curvature="0" />
      <path
         inkscape:export-ydpi="277"
         inkscape:export-xdpi="277"
         id="path49653-6"
         d="m 183.30439,584.4674 c 0.21267,0.0389 0.42349,0.0909 0.62874,0.17434 0.83707,0.34002 1.58388,0.57989 2.33131,-0.0525 0.29799,-0.25286 0.24791,-0.70045 -0.19597,-0.73383 -0.91745,-0.0692 -1.78543,-0.34435 -2.73131,-0.38206 -0.89951,-0.0371 -1.74215,-0.10263 -2.65032,-0.0618 -0.21638,0.01 -0.37897,0.11005 -0.48531,0.23678 -0.10138,0.002 -0.20154,0.0124 -0.30292,0.01 -0.6955,0.0173 -0.90446,0.88777 -0.0977,0.90446 0.72641,0.0142 1.48002,-0.11004 2.22189,-0.15393 -0.12488,0.58793 -0.183,1.17709 -0.24173,1.76688 -0.11375,0.34867 -0.24172,0.69859 -0.40246,1.06643 -0.27573,0.62873 -0.31529,1.46519 -0.2986,2.14338 0.003,0.12612 -0.0142,0.25223 -0.0223,0.37773 -0.19165,0.83213 -0.34991,1.6624 -0.4717,2.55388 -0.0649,0.47665 1.12455,0.251 1.19441,-0.14961 0.11128,-0.64048 0.20463,-1.29209 0.40246,-1.91216 0.10448,-0.32581 0.11375,-0.67077 0.11375,-1.0176 0.10015,-0.40493 0.21329,-0.81111 0.35795,-1.22099 0.20896,-0.59164 0.28748,-1.18142 0.33941,-1.7712 0.0247,-0.0488 0.0433,-0.0952 0.0692,-0.14591 0.0525,-0.10509 0.23801,-1.18884 0.2411,-1.6321 z"
         inkscape:connector-curvature="0" />
      <path
         inkscape:export-ydpi="277"
         inkscape:export-xdpi="277"
         id="path49649-9"
         d="m 189.82528,592.96715 c -0.002,-0.0754 -0.004,-0.15147 -0.006,-0.22689 -0.002,-0.0767 -0.06,-0.12179 -0.1391,-0.15209 0.0247,-0.19288 0.0402,-0.38824 0.0488,-0.5836 0.92239,-1.67909 0.57495,-4.37021 0.71343,-6.11113 0.0167,-0.49519 -1.16288,-0.24976 -1.19441,0.14838 -0.0445,1.2791 -0.44574,2.4902 -0.58793,3.75755 -0.0797,0.70849 -0.0649,1.4961 -0.11004,2.24971 -0.10077,0.17682 -0.22874,0.32457 -0.3901,0.42843 -0.35857,-0.0699 -0.73383,-0.11313 -1.09054,-0.10077 0.0661,-0.14775 -0.12427,-0.23925 -0.36537,-0.26027 0.0297,-0.17248 0.055,-0.34991 0.0828,-0.5292 0.29242,-1.8763 0.3969,-3.80392 0.36846,-5.69939 -0.002,-0.12612 -0.22936,-0.14157 -0.48345,-0.0995 0.007,-0.0544 0.0105,-0.10942 0.0167,-0.16382 0.0433,-0.36723 -1.14618,-0.13107 -1.18328,0.18979 -0.21823,1.85096 -0.36908,3.69697 -0.50509,5.55411 -0.042,0.56815 -0.38638,2.09207 0.45934,2.11247 0.0816,0.889 3.65741,-0.0198 3.68585,-0.0223 0.2578,-0.0235 0.68746,-0.17928 0.67942,-0.49148 z"
         inkscape:connector-curvature="0" />
      <path
         inkscape:export-ydpi="277"
         inkscape:export-xdpi="277"
         id="path49579-8-2"
         d="m 198.267,583.65218 c -0.84387,0.56196 -1.41573,1.4454 -2.18418,2.1069 -0.29922,0.25718 -0.74248,0.99163 -1.20244,1.59439 0.0921,-1.83797 0.0507,-3.67842 0.0377,-5.33835 -0.003,-0.36475 -1.11033,-0.1663 -1.18204,0.19969 -0.002,-0.001 -0.003,-0.004 -0.005,-0.005 -0.24543,-0.18979 -0.68561,-0.12426 -0.9261,0.0519 -0.0767,0.0563 -0.15331,0.11252 -0.23059,0.16816 -0.11376,0.0835 -0.3357,0.26274 -0.18114,0.42039 0.0748,0.0767 0.15084,0.15394 0.22565,0.23122 0.0204,0.021 0.0538,0.0309 0.0822,0.0451 -6.1e-4,0 -0.001,0 -0.002,0 -0.23987,-0.002 -0.95516,0.1595 -0.8142,0.55454 0.34064,0.95763 0.55084,1.91896 0.67634,2.89328 -0.14034,0.79937 -0.27079,1.49548 -0.27573,1.81511 -0.0284,1.70691 -0.47912,3.93993 0.16692,5.56214 0.17681,0.44451 1.03057,0.0977 1.18575,-0.21947 0.33322,-0.002 0.70601,-0.15331 0.7023,-0.44573 -0.007,-0.61019 0.004,-1.21667 0.0204,-1.82129 0.12735,-0.55702 0.22751,-1.12887 0.3054,-1.71062 0.62626,0.76721 1.39348,1.42191 1.95606,2.26208 0.2003,0.29922 1.32485,-0.0729 1.15237,-0.39072 -0.013,-0.0235 -0.0303,-0.0464 -0.0433,-0.0699 6.2e-4,0 0.001,-6.2e-4 0.002,-6.2e-4 -0.004,-0.006 -0.009,-0.0117 -0.013,-0.0173 -0.59411,-1.02934 -1.79222,-2.05559 -2.13287,-3.19435 0.62255,-0.36352 1.11342,-0.80555 1.57895,-1.41326 0.73444,-0.95886 1.55544,-2.09516 2.06671,-3.18879 0.18114,-0.39319 -0.85376,-0.16445 -0.96628,-0.0896 z"
         inkscape:connector-curvature="0" />
      <path
         inkscape:export-ydpi="277"
         inkscape:export-xdpi="277"
         id="path49573-4-7"
         d="m 204.00295,585.34583 c 0.37403,-0.19721 0.59844,-0.55578 -0.0742,-0.41544 -0.17187,0.0365 -0.34497,0.0903 -0.51622,0.15455 -0.65903,-0.20463 -1.4114,-0.17001 -2.07599,0.12488 -0.068,-0.0124 -0.13601,-0.0167 -0.19289,-0.0173 -0.076,-6.2e-4 -0.15208,-10e-4 -0.22812,-0.002 -0.50571,-0.004 -0.77278,0.47232 -0.52982,0.71157 -0.13044,0.14652 -0.25285,0.30479 -0.35486,0.48654 -0.88591,1.57585 -2.01788,5.0175 0.34559,5.58626 0.35177,0.35424 0.81482,0.58422 1.4318,0.58855 1.12022,0.007 2.00861,-1.1604 2.43765,-2.05312 0.27635,-0.57556 0.49953,-1.14804 0.60648,-1.71309 0.10201,-0.36908 0.17125,-0.74434 0.21143,-1.10971 0.12179,-1.11589 -0.35115,-1.90536 -1.06087,-2.34183 z m -2.57242,4.95258 c -0.42348,-1.19378 0.32704,-3.44411 1.47137,-4.41287 0.0835,0.0668 0.16321,0.14343 0.23925,0.22689 -0.17125,0.12797 -0.24976,0.30293 -0.10077,0.47479 0.87849,1.01327 0.82533,2.03519 0.32704,3.21909 -0.0136,0.0334 -0.0297,0.0699 -0.0451,0.10695 -0.46614,0.88159 -1.41202,1.73844 -1.89176,0.38515 z"
         inkscape:connector-curvature="0" />
      <path
         inkscape:export-ydpi="277"
         inkscape:export-xdpi="277"
         id="path49647-2"
         d="m 216.84638,590.09584 c 0.0661,-0.055 0.11808,-0.12364 0.11623,-0.21576 -0.001,-0.0383 -0.002,-0.0754 -0.003,-0.11375 -6.2e-4,-0.0111 -0.0124,-0.0167 -0.0148,-0.0266 0.0649,-0.29304 0.11005,-0.60277 0.12055,-0.93785 0.0989,-3.11028 -2.61013,-4.25708 -5.18812,-3.55601 -0.67201,0.18299 -0.57742,0.64171 0.0414,0.52239 0,0.002 -0.002,0.003 -0.002,0.005 6.2e-4,0.0297 0.001,0.0593 0.002,0.089 -0.22194,0.0427 -0.43523,0.13972 -0.51992,0.27882 -0.19598,0.32333 -0.14405,0.39443 -0.13416,0.83893 0.0198,0.82038 -0.0921,1.64571 -0.28067,2.44507 -0.33322,1.41078 -0.25533,3.20734 -0.22565,4.65398 0.006,0.29736 0.34064,0.35981 0.59535,0.31282 0.11251,0.35486 0.71899,0.2578 0.96504,0.0785 0.65037,-0.47417 1.24819,-0.91187 1.79285,-1.42624 1.26364,-0.672 2.30164,-1.57461 2.73501,-2.9483 z m -1.00584,-0.89457 c -0.0556,0.0643 -0.0965,0.13416 -0.094,0.21576 0.009,0.3425 -0.33075,0.5564 -0.50818,0.81482 -0.28562,0.41668 -0.64543,0.76845 -0.95516,1.16411 -0.62564,0.46738 -1.23026,0.97865 -1.85157,1.4621 0.0494,-0.32519 0.0742,-0.65841 0.10819,-0.95639 0.11499,-1.00338 0.45439,-1.99191 0.56011,-3.01445 0.11066,-1.07509 0.0445,-2.15884 0.0185,-3.2364 -6.2e-4,-0.009 -0.007,-0.0142 -0.007,-0.0229 1.79099,0.0903 2.71586,1.80088 2.72946,3.57332 z"
         inkscape:connector-curvature="0" />
      <path
         inkscape:export-ydpi="277"
         inkscape:export-xdpi="277"
         id="path49701-0"
         d="m 224.23141,586.0151 c -0.35362,-0.0402 -0.9397,0.18485 -0.93166,0.51374 0.0785,1.26488 -0.36104,2.56748 -0.45872,3.83298 -0.0575,0.74805 -0.21823,2.43332 -0.8414,3.3724 -0.53044,0.20587 -1.1128,0.30108 -1.59069,0.53291 -0.12179,-0.0797 -0.24729,-0.17434 -0.37835,-0.2918 -0.37279,-0.3326 -0.60771,-0.74125 -0.75114,-1.1975 -0.068,-0.54341 -0.0661,-1.16534 -0.11066,-1.79037 -0.009,-0.12241 -0.01,-0.23987 -0.0142,-0.3598 0.18979,-1.69084 0.82656,-3.53129 0.8958,-4.83265 0.10016,-0.22689 0.20711,-0.45377 0.32395,-0.68314 0.0754,-0.14837 -1.02563,-0.076 -1.17586,0.21886 -0.007,0.013 -0.013,0.0247 -0.0185,0.0377 -0.18052,0.0816 -0.32148,0.20896 -0.32333,0.37155 -0.001,0.10015 -0.007,0.20587 -0.0148,0.31467 -0.44079,0.92425 -0.79504,1.859 -0.86551,2.90627 -0.0828,1.22717 0.0414,2.45681 0.008,3.68399 -0.0297,1.07199 0.40494,1.68527 1.05469,2.00366 0.43523,0.38391 1.03862,0.64171 1.87198,0.71713 1.53381,0.1391 2.4191,-0.72579 2.93594,-1.97089 0.13106,-0.1323 0.25038,-0.27078 0.35424,-0.41483 1.47137,-2.0525 1.16164,-4.63048 1.08251,-7.01682 -0.0111,-0.31406 -0.74125,-0.22689 -1.05222,0.0519 z"
         inkscape:connector-curvature="0" />
      <path
         inkscape:export-ydpi="277"
         inkscape:export-xdpi="277"
         id="path49699-8"
         d="m 232.91151,591.71723 c 0.0773,-0.21205 -0.0785,-0.2918 -0.30663,-0.28933 -0.005,-0.094 -0.0111,-0.18794 -0.013,-0.2782 -0.0136,-0.5836 -0.97308,-0.51498 -1.17215,-0.0903 -0.34929,0.0569 -0.69921,0.10943 -1.05098,0.15703 -0.10324,0.0136 -0.22132,0.0661 -0.32827,0.13787 -0.0179,0.004 -0.0408,0.009 -0.0581,0.013 -0.57372,0.12982 -0.685,0.74125 0.0111,0.67572 0.0556,-0.006 0.11128,-0.013 0.16692,-0.0192 0.26708,0.56567 0.36352,0.99534 0.30046,1.30012 -0.48036,0.18238 -0.97061,0.34435 -1.46704,0.45007 -0.005,10e-4 -0.0105,0.005 -0.0148,0.006 -0.42966,-0.31035 -0.70168,-0.71034 -0.81049,-1.20368 -0.01,-0.0284 -0.0148,-0.0581 -0.0235,-0.0865 0.21699,-0.82471 0.27078,-1.66982 0.55702,-2.51246 0.27758,-0.81791 0.62316,-1.59501 0.87478,-2.4123 0.0637,-0.0328 0.12736,-0.0643 0.20772,-0.0865 0.34868,-0.0927 0.55331,-0.2918 0.6751,-0.57186 0.11128,0.034 0.24111,0.0451 0.37403,0.0204 0.16506,-0.0303 0.31467,-0.0853 0.44883,-0.15517 0.14652,-0.0124 0.29303,-0.0544 0.39566,-0.13106 0.19536,-0.1459 0.31715,-0.31715 0.32209,-0.48531 0.36723,-0.19845 0.44822,-0.63615 -0.10695,-0.66706 -0.11746,-0.24111 -0.38392,-0.43894 -0.83584,-0.51993 -0.7567,-0.13662 -1.46024,0.12241 -1.99995,0.58855 -0.73321,0.3629 -1.09858,1.20615 -1.37987,1.92267 -0.61451,1.56782 -0.98792,3.32233 -0.79812,5.00142 0.009,0.0804 0.0266,0.15023 0.0396,0.22504 -0.0124,0.042 -0.0198,0.0853 -0.0328,0.12735 -0.0402,0.1323 0.0192,0.21514 0.1255,0.26151 0.27263,0.87355 0.8754,1.32794 1.5981,1.45839 0.0402,0.0309 0.0921,0.0569 0.16012,0.0748 1.10229,0.29737 2.14585,0.16754 3.12697,-0.41235 0.6819,-0.40185 1.35762,-1.47755 1.1604,-2.29052 -0.0235,-0.0946 -0.0791,-0.15826 -0.1459,-0.20834 z"
         inkscape:connector-curvature="0" />
      <path
         inkscape:export-ydpi="277"
         inkscape:export-xdpi="277"
         id="path49701-4"
         d="m 240.4699,585.64567 c -0.35362,-0.0402 -0.9397,0.18485 -0.93166,0.51374 0.0785,1.26488 -0.36104,2.56748 -0.45872,3.83298 -0.0575,0.74805 -0.21823,2.43332 -0.8414,3.3724 -0.53044,0.20587 -1.1128,0.30108 -1.59069,0.53291 -0.12179,-0.0797 -0.24729,-0.17434 -0.37835,-0.2918 -0.37279,-0.3326 -0.60771,-0.74125 -0.75114,-1.1975 -0.068,-0.54341 -0.0661,-1.16534 -0.11066,-1.79037 -0.009,-0.12241 -0.01,-0.23987 -0.0142,-0.3598 0.18979,-1.69084 0.82656,-3.53129 0.8958,-4.83265 0.10016,-0.22689 0.20711,-0.45377 0.32395,-0.68314 0.0754,-0.14837 -1.02563,-0.076 -1.17586,0.21886 -0.007,0.013 -0.013,0.0247 -0.0185,0.0377 -0.18052,0.0816 -0.32148,0.20896 -0.32333,0.37155 -10e-4,0.10015 -0.007,0.20587 -0.0148,0.31467 -0.44079,0.92425 -0.79504,1.859 -0.86551,2.90627 -0.0828,1.22717 0.0414,2.45681 0.008,3.68399 -0.0297,1.07199 0.40494,1.68527 1.05469,2.00366 0.43523,0.38391 1.03862,0.64171 1.87198,0.71713 1.53381,0.1391 2.4191,-0.72579 2.93594,-1.97089 0.13106,-0.1323 0.25038,-0.27078 0.35424,-0.41483 1.47137,-2.0525 1.16164,-4.63048 1.08251,-7.01682 -0.0111,-0.31406 -0.74125,-0.22689 -1.05222,0.0519 z"
         inkscape:connector-curvature="0" />
      <path
         inkscape:export-ydpi="277"
         inkscape:export-xdpi="277"
         id="path49605-5"
         d="m 255.00947,588.79438 c -0.33075,-0.2442 -0.6955,-0.40864 -1.07571,-0.52178 0.26893,-0.0433 0.53291,-0.10324 0.78638,-0.2003 0.53723,-0.20587 1.71989,-0.6275 1.90845,-1.26921 0.20772,-0.70787 -0.24667,-1.14433 -0.81853,-1.42006 -0.55701,-0.45625 -1.44849,-0.59349 -2.10319,-0.7159 -0.62317,-0.11623 -1.25375,-0.16259 -1.88125,-0.23864 0.006,-0.0927 0.0136,-0.18546 0.0148,-0.28129 0.004,-0.33569 -1.03305,0.06 -1.1431,0.18485 -1.21728,1.38049 -1.10476,3.11275 -0.85685,4.88952 -0.16816,1.81449 -0.34806,3.62712 -0.44945,5.42305 -0.0186,0.33137 0.49829,0.33508 0.85809,0.18423 0.0544,0.006 0.11128,0.0111 0.18114,0.004 0.75052,-0.076 1.75699,-0.1799 2.74429,-0.41173 1.02316,-0.17063 2.0457,-0.45254 2.64414,-1.05222 0.33384,-0.11066 0.51807,-0.42286 0.42843,-0.62935 0.24481,-0.34188 0.41359,-0.73754 0.46614,-1.20739 0.13044,-1.14927 -0.87355,-2.12607 -1.70382,-2.73749 z m -1.74401,0.40556 c 0.17125,0.047 0.59844,0.58607 0.74681,0.70848 0.4445,0.36537 0.77278,0.7938 1.0176,1.31558 0.29922,0.63924 0.25594,1.11403 0.001,1.47384 -0.71095,0.18237 -1.40831,0.45872 -2.14523,0.46799 -0.11622,0.002 -0.821,0.15889 -0.48345,0.13354 -0.17001,0.013 -0.68994,0.28438 -0.84016,0.13601 -0.0729,-0.0717 -0.18918,-0.11746 -0.31901,-0.13972 0.24606,-1.28528 -0.0117,-2.70472 -0.21823,-4.09882 0.002,-0.0154 0.003,-0.0315 0.005,-0.047 0.19968,-0.0519 0.51498,-0.13786 0.89333,-0.25162 0.10757,0.002 0.21514,0.006 0.32333,0.0155 0.3122,0.12302 0.61389,0.17496 1.01883,0.28624 z m -0.92424,-1.42068 c -0.19536,0.0124 -0.40803,0.0711 -0.55208,0.16877 -0.2207,0.0359 -0.44202,0.0798 -0.66149,0.13292 0.002,-0.0253 0.005,-0.0513 0.007,-0.0767 0.16259,-0.0711 0.29365,-0.17124 0.28685,-0.30849 -0.0396,-0.85191 0.14652,-1.57214 0.28438,-2.3239 0.93785,0.10634 1.8794,0.17929 2.77459,0.51127 1.04727,0.38886 0.21699,0.88406 -0.45811,1.18761 -0.54712,0.24667 -1.10971,0.49025 -1.68094,0.70848 z"
         inkscape:connector-curvature="0" />
      <path
         inkscape:export-ydpi="277"
         inkscape:export-xdpi="277"
         id="path49547-3"
         d="m 257.89841,585.03372 c 0.005,0 0.01,0 0.0142,0 -0.15208,0.12612 -0.22071,0.26584 0.007,0.35239 0.0488,0.0186 0.0971,0.0309 0.14528,0.0476 -0.004,0.53724 0.0507,1.07015 0.094,1.60491 0.0606,0.75238 -0.034,1.7539 0.13663,2.49329 -0.004,0.68685 -0.0229,1.37307 -0.0711,2.05745 -0.0946,0.46799 -0.20895,0.93351 -0.37402,1.39161 -0.0519,0.14343 0.14095,0.19289 0.3833,0.17929 0.006,0.002 0.013,0.004 0.0185,0.006 0.076,0.0346 0.16569,0.0593 0.2813,0.0612 0.0451,6.2e-4 0.0903,0.001 0.13539,0.002 0.16692,0.003 0.34311,-0.0779 0.47417,-0.19969 0.10386,-0.0482 0.19413,-0.10571 0.2714,-0.1731 0.23493,-0.0723 0.47974,-0.12797 0.73136,-0.16877 0.76474,-0.0662 1.52701,-0.1391 2.30164,-0.13663 0.0835,-6.2e-4 0.16754,-0.001 0.24853,-0.002 0.5224,-0.005 0.99348,-0.82286 0.27078,-0.83151 -0.65346,-0.008 -1.35391,-0.0964 -1.99006,0.0692 -0.16383,0.0136 -0.3258,0.0309 -0.48901,0.0513 -0.16383,-10e-4 -0.32828,-0.0118 -0.47789,-0.007 -0.0556,0.002 -0.11066,0.0124 -0.16568,0.0167 0.0223,-0.2986 0.007,-0.62564 -0.0309,-0.96999 -0.0117,-0.10695 -0.0254,-0.21329 -0.0383,-0.31962 0.0216,-0.31158 0.0346,-0.62502 0.0451,-0.93723 0.0866,-0.0414 0.15023,-0.0773 0.0822,-0.0624 0.0841,-0.0222 0.16259,-0.0581 0.23925,-0.0964 0.002,-6.2e-4 0.003,-6.2e-4 0.006,-6.2e-4 0.1935,-0.0167 0.37402,-0.0575 0.55949,-0.11622 0.14157,-0.0445 0.3326,-0.009 0.48221,-0.0371 0.1898,-0.0365 0.37341,-0.0915 0.54095,-0.19103 0.23492,-0.13786 0.31158,-0.2646 0.31405,-0.52239 0.001,-0.14034 -0.2782,-0.16383 -0.36104,-0.16445 -0.26954,-0.002 -0.57,0.0334 -0.82656,-0.0538 -0.23802,-0.081 -0.47665,-0.0933 -0.72518,-0.0964 -0.0872,-6.2e-4 -0.16568,0.007 -0.24605,0.0111 0.034,-0.6479 -0.0167,-1.29518 0.0297,-1.94493 0.021,-0.29427 0.0822,-0.50076 0.12859,-0.68561 0.4105,-0.0328 0.82965,-0.0989 1.27477,-0.17681 0.76289,-0.13292 1.82499,0.10139 1.98202,-0.95577 0.0309,-0.20525 -0.20587,-0.27264 -0.36784,-0.27326 -1.18142,-0.006 -2.36099,0.0513 -3.5418,0.0748 -0.19288,-0.1391 -0.5224,-0.12241 -0.76659,0.008 -0.0884,6.2e-4 -0.1762,0.004 -0.2646,0.003 -0.45625,-6.2e-4 -1.2686,0.68993 -0.46058,0.69302 z m 1.94926,3.91583 c 6.2e-4,6.1e-4 0.002,6.1e-4 0.003,6.1e-4 -10e-4,6.2e-4 -0.002,6.2e-4 -0.004,10e-4 6.2e-4,-6.2e-4 6.2e-4,-10e-4 6.2e-4,-0.002 z"
         inkscape:connector-curvature="0" />
      <path
         inkscape:export-ydpi="277"
         inkscape:export-xdpi="277"
         id="path49643-5"
         d="m 265.56336,593.17344 c 0.003,-0.69797 0.0693,-1.3842 0.16507,-2.0661 0.0525,-0.2782 0.10077,-0.55701 0.14343,-0.8346 0.20587,-0.57432 0.39937,-1.14494 0.51003,-1.70938 6.2e-4,-0.004 0.002,-0.009 0.002,-0.013 0.29551,0.0315 0.59473,0.0451 0.89395,0.0383 0.13045,0.27449 0.24297,0.56876 0.41545,0.79379 0.12426,0.4037 0.28933,0.79318 0.40741,1.22408 0.10881,0.39814 0.21019,0.78947 0.32518,1.17772 6.2e-4,0.002 10e-4,0.004 0.002,0.005 0.12488,0.4204 0.26769,0.83584 0.4581,1.24634 0.19536,0.42101 1.25932,0.15023 1.19441,-0.32024 -0.0692,-0.50199 -0.25286,-0.90137 -0.48593,-1.34896 -0.23492,-0.45068 0.0173,-0.99039 -0.0699,-1.46333 -0.0569,-0.3054 -0.38577,-0.59597 -0.57927,-0.81173 -0.034,-0.0383 -0.0624,-0.0884 -0.0934,-0.1323 -0.0544,-0.19412 -0.0946,-0.39442 -0.11437,-0.60215 0.821,-0.26027 1.54061,-0.75485 1.99377,-1.58388 0.53229,-0.97741 -0.005,-1.45221 -0.82904,-1.7063 -0.17434,-0.0859 -0.34497,-0.15764 -0.48098,-0.21452 -0.32889,-0.13663 -0.6751,-0.23369 -1.01821,-0.32642 -0.24667,-0.0668 -0.49643,-0.0835 -0.75176,-0.0952 -0.0544,-0.002 -0.54094,-0.0192 -0.8346,-0.10139 0,-0.0111 0.002,-0.0216 0.002,-0.0328 6.2e-4,-0.0192 -0.009,-0.0309 -0.0105,-0.0482 0,-0.0235 0.002,-0.047 10e-4,-0.0705 -6.2e-4,-0.0142 -0.0161,-0.0223 -0.0229,-0.034 -0.021,-0.0593 -0.0544,-0.10758 -0.0995,-0.14467 -6.2e-4,-0.004 -0.008,-0.006 -0.01,-0.01 -0.0124,-0.0105 -0.0204,-0.0247 -0.0346,-0.0334 -0.0186,-0.0111 -0.0427,-0.0192 -0.0729,-0.026 -0.17372,-0.0674 -0.40185,-0.0513 -0.59906,0.0359 -0.18423,0.0396 -0.35239,0.0983 -0.4241,0.17001 -0.28624,0.28809 -0.19227,0.47665 0.0321,0.60215 -0.0754,1.20306 -0.29428,2.38015 -0.53229,3.55292 -0.0692,0.0563 -0.12241,0.1187 -0.12736,0.19289 -0.0173,0.25903 -0.0457,0.54156 -0.0779,0.83213 -0.0946,0.47232 -0.18238,0.94464 -0.25842,1.42067 -0.40617,1.10538 -0.81296,2.31895 -0.77216,3.44412 0.0118,0.31838 1.10106,-0.005 1.18946,-0.25347 0.0334,-0.0933 0.0631,-0.19536 0.0946,-0.29304 0.22441,-0.0668 0.46738,-0.23431 0.46799,-0.46058 z m 4.105,-6.67371 c -0.0383,0.1966 -0.11684,0.39628 -0.21514,0.57371 -0.27078,0.30726 -0.75485,0.502 -1.2723,0.62503 -0.0476,-0.009 -0.10324,-0.0155 -0.17496,-0.0136 -0.0383,6.2e-4 -0.0754,10e-4 -0.11375,0.002 -0.12797,0.002 -0.40123,0.0569 -0.6003,0.16321 -0.31343,0.0359 -0.59349,0.0532 -0.79688,0.0637 0.14899,-0.87355 0.25903,-1.76318 0.29922,-2.64971 0.60153,0.055 1.25499,0.0495 1.83488,0.17001 0.4717,0.19907 1.02563,0.53662 1.03923,1.0652 z"
         inkscape:connector-curvature="0" />
      <path
         inkscape:export-ydpi="277"
         inkscape:export-xdpi="277"
         id="path49653-5"
         d="m 274.89609,584.09797 c 0.21267,0.0389 0.42349,0.0909 0.62874,0.17434 0.83707,0.34002 1.58388,0.57989 2.33131,-0.0525 0.29799,-0.25286 0.24791,-0.70045 -0.19597,-0.73383 -0.91745,-0.0692 -1.78543,-0.34435 -2.73131,-0.38206 -0.89951,-0.0371 -1.74215,-0.10263 -2.65032,-0.0618 -0.21638,0.01 -0.37897,0.11005 -0.48531,0.23678 -0.10138,0.002 -0.20154,0.0124 -0.30292,0.01 -0.6955,0.0173 -0.90446,0.88777 -0.0977,0.90446 0.72641,0.0142 1.48002,-0.11004 2.22189,-0.15393 -0.12488,0.58793 -0.183,1.17709 -0.24173,1.76688 -0.11375,0.34867 -0.24172,0.69859 -0.40246,1.06643 -0.27573,0.62873 -0.31529,1.46519 -0.2986,2.14338 0.003,0.12612 -0.0142,0.25223 -0.0223,0.37773 -0.19165,0.83213 -0.34991,1.6624 -0.4717,2.55388 -0.0649,0.47665 1.12455,0.251 1.19441,-0.14961 0.11128,-0.64048 0.20463,-1.29209 0.40246,-1.91216 0.10448,-0.32581 0.11375,-0.67077 0.11375,-1.0176 0.10015,-0.40493 0.21329,-0.81111 0.35795,-1.22099 0.20896,-0.59164 0.28748,-1.18142 0.33941,-1.7712 0.0247,-0.0488 0.0433,-0.0952 0.0692,-0.14591 0.0525,-0.10509 0.23801,-1.18884 0.2411,-1.6321 z"
         inkscape:connector-curvature="0" />
      <path
         inkscape:export-ydpi="277"
         inkscape:export-xdpi="277"
         id="path49635-4"
         d="m 276.99233,592.52592 c 0.2071,0.16754 0.94526,0.0297 1.08869,-0.22071 1.18204,-2.06301 1.80212,-4.42647 2.61632,-6.68731 0.20957,2.35728 0.35177,4.71704 0.6788,7.0669 0.055,0.3969 1.2043,0.0989 1.19441,-0.32024 -6.2e-4,-0.0235 -0.001,-0.047 -0.002,-0.0705 0.0556,-0.0538 0.0983,-0.11189 0.10571,-0.17743 0.21947,-2.01911 0.26955,-4.00484 -0.0334,-6.01716 -0.1051,-0.69735 -0.23678,-2.07846 -0.92919,-2.59715 -0.013,-0.10942 -0.0204,-0.21885 -0.0334,-0.32889 -0.0532,-0.45563 -1.07509,-0.001 -1.19317,0.23863 -0.006,0.0118 -0.01,0.0229 -0.0155,0.0346 -0.78143,0.35919 -1.27107,1.3434 -1.58512,2.05374 -0.96257,2.17119 -1.69146,4.4716 -2.29052,6.77015 -0.0507,0.19289 0.14961,0.26398 0.39814,0.25533 z"
         inkscape:connector-curvature="0" />
      <path
         inkscape:export-ydpi="277"
         inkscape:export-xdpi="277"
         id="path49587-2"
         d="m 291.72191,586.27469 c -0.18856,-1.25994 -0.51066,-2.47166 -0.54651,-3.75138 -0.008,-0.28624 -1.18946,-0.0655 -1.19441,0.32024 -0.0198,1.67229 -0.11622,3.24196 0.35053,4.86108 0.0958,0.33384 0.18794,0.6683 0.28253,1.00214 -0.002,0.26151 -0.007,0.52302 -0.0136,0.78453 -0.042,-0.002 -0.0816,-0.013 -0.12179,-0.0204 -0.69055,-1.46828 -0.88591,-3.2228 -2.03024,-4.33189 -0.0983,-0.14281 -0.2034,-0.28253 -0.3085,-0.42286 0.004,-0.0408 0.006,-0.0835 0.009,-0.12427 0.19103,-0.63553 0.28438,-1.28095 0.0593,-1.87259 -0.14776,-0.38825 -1.00523,-0.13107 -1.15361,0.14652 -0.10138,0.18917 -0.18608,0.38453 -0.27387,0.57865 -0.31406,0.0359 -0.66026,0.1966 -0.68746,0.41112 -0.12117,0.95948 -0.32271,1.90474 -0.54651,2.84568 -0.59411,1.52206 -1.23645,3.00518 -1.36504,4.65831 -0.0136,0.18237 0.1119,0.25594 0.28315,0.2683 -0.0198,0.13972 -0.0451,0.27821 -0.0624,0.41854 -0.0173,0.1459 0.0964,0.22998 0.23183,0.251 -0.002,0.0223 -0.004,0.0439 -0.006,0.0655 0.0192,0.1459 0.25842,0.17867 0.36537,0.18052 0.076,6.2e-4 0.15208,0.002 0.22812,0.003 0.2102,0.002 0.50015,-0.14342 0.6683,-0.30107 0.19845,-0.0773 0.36414,-0.19845 0.39072,-0.33879 0.27387,-1.45406 0.77463,-2.79251 1.19688,-4.15074 0.0736,0.1323 0.14837,0.26336 0.22503,0.39319 -0.0501,0.0643 -0.0717,0.13291 -0.026,0.19906 0.1867,0.27017 0.3938,0.54589 0.61265,0.821 0.008,0.0142 0.0148,0.0272 0.0235,0.0427 0.01,0.0173 0.0315,0.0254 0.0457,0.0389 0.13848,0.17063 0.28252,0.34002 0.42966,0.50818 0.10077,0.48283 0.19845,0.96319 0.50942,1.41202 0.31158,0.44945 0.72022,0.56258 1.24695,0.42224 0.21205,-0.0569 0.33879,-0.14219 0.42843,-0.24419 0.34744,-0.0983 0.67572,-0.30293 0.52549,-0.43894 -0.0754,-0.0674 -0.13972,-0.14219 -0.20773,-0.21514 0.005,-0.0105 0.0111,-0.0198 0.0161,-0.0303 0.24049,-0.0618 0.46181,-0.17619 0.46428,-0.37958 6.2e-4,-0.0507 0.003,-0.10201 0.004,-0.15271 0.0155,-0.0204 0.0334,-0.0334 0.0482,-0.055 0.35239,-0.51312 0.20525,-1.16967 0.001,-1.78975 0.0111,-0.67757 -0.005,-1.35329 -0.10324,-2.01293 z"
         inkscape:connector-curvature="0" />
      <path
         inkscape:export-ydpi="277"
         inkscape:export-xdpi="277"
         id="path49717-5"
         d="m 130.0736,601.33191 c 0.0396,-0.0569 0.006,-0.0971 -0.1663,-0.0989 -0.51498,-0.006 -1.03058,-0.0105 -1.54556,-0.0154 -1.03057,-0.0111 -2.06053,-0.0216 -3.09111,-0.0315 -0.25471,-0.002 -1.36442,0.48778 -0.77278,0.49396 0.11561,10e-4 0.2306,0.002 0.34621,0.004 -0.16569,0.0668 -0.31282,0.16012 -0.4241,0.28129 -0.32457,0.14219 -0.59783,0.32704 -0.2374,0.33013 0.0878,10e-4 0.17434,0.002 0.26151,0.002 0.73197,0.27388 1.51093,0.31591 2.28989,0.33199 0.59906,0.013 1.04603,-0.28871 1.51217,-0.54836 0.83213,0.0396 1.64386,-0.0359 2.35111,-0.57433 0.33569,-0.25595 -0.13478,-0.25347 -0.52364,-0.17496 z m -2.56748,0.80307 c -0.285,-0.003 -0.56938,-0.0173 -0.85438,-0.0352 -0.26893,-0.0161 -0.53353,-0.0544 -0.79565,-0.11437 -0.11437,-0.0223 -0.17311,-0.0383 -0.19474,-0.0495 0.0581,-0.006 0.1292,-0.013 0.20648,-0.0216 0.17125,0.005 0.38825,0.0185 0.43709,0.0198 0.36598,0.01 0.74001,0.0482 1.11589,0.0853 -0.10386,0.0569 -0.0797,0.0958 0.0853,0.11561 z"
         inkscape:connector-curvature="0" />
      <path
         inkscape:export-ydpi="277"
         inkscape:export-xdpi="277"
         id="path49719-9"
         d="m 141.82601,601.01105 c -0.57618,-0.006 -1.15113,-0.0117 -1.72731,-0.0173 0.21576,-0.14095 0.3258,-0.29056 0.006,-0.30664 -1.06087,-0.0538 -2.03642,-0.29922 -3.06947,0.0711 -0.0903,0.0328 -0.52982,0.24296 -0.34003,0.39813 0.0346,0.0284 0.0717,0.0457 0.10696,0.0705 -0.17558,0.0661 -0.35115,0.12426 -0.52797,0.20463 -0.72394,0.32828 0.38392,0.38825 0.70972,0.24049 0.14281,-0.0643 0.28377,-0.10942 0.42534,-0.15641 0.47789,0.13045 0.9941,0.10324 1.50723,0.0699 -0.12241,0.13539 -0.10016,0.27202 0.24729,0.27573 0.51498,0.006 1.02995,0.0111 1.54555,0.0155 0.2034,0.002 0.57,-0.16383 0.73136,-0.31591 0.41174,-0.0785 1.11651,-0.54218 0.38515,-0.5496 z"
         inkscape:connector-curvature="0" />
      <path
         inkscape:export-ydpi="277"
         inkscape:export-xdpi="277"
         id="path49721-4"
         d="m 149.69289,601.12604 c -0.002,0 -0.004,6.2e-4 -0.006,6.2e-4 0.026,-0.0173 0.0538,-0.0278 0.0797,-0.0457 0.36908,-0.26336 -0.15146,-0.26831 -0.34744,-0.24172 -0.47356,0.0643 -0.92115,0.23739 -1.40089,0.27387 -0.026,0.002 -0.12179,0.0235 -0.23987,0.0563 -0.004,6.1e-4 -0.0105,6.1e-4 -0.0142,10e-4 -0.40555,0.0717 -0.75176,0.23245 -1.08313,0.46923 -0.42781,0.30541 0.42905,0.22009 0.79318,0.094 0.86737,0.46553 2.05869,0.22442 2.98664,0.20711 0.14837,-0.002 0.63986,-0.18856 0.84943,-0.33075 0.48346,-0.10077 0.96567,-0.21205 1.4485,-0.32704 0.15517,-0.0371 0.87293,-0.44079 0.33693,-0.43152 -1.14186,0.0186 -2.26146,0.25533 -3.4027,0.27449 z"
         inkscape:connector-curvature="0" />
      <path
         inkscape:export-ydpi="277"
         inkscape:export-xdpi="277"
         id="path49723-0"
         d="m 165.61955,600.9041 c -0.51498,-0.005 -1.03058,-0.0105 -1.54556,-0.0155 -0.6819,-0.007 -1.33289,0.24915 -2.00799,0.30046 -0.18237,0.0136 -0.41235,0.14961 -0.54651,0.29242 -0.49025,-0.005 -0.9805,-0.0105 -1.47013,-0.0148 -0.4241,-0.004 -1.28034,0.63306 -0.4748,0.6411 0.31221,0.003 0.62379,0.007 0.93599,0.01 -0.0958,0.16074 -0.003,0.30911 0.29737,0.31158 1.15051,0.0105 2.2899,-0.0117 3.40579,-0.32085 0.17557,-0.0482 0.67262,-0.24606 0.48159,-0.50571 -0.0229,-0.0315 -0.0532,-0.0507 -0.0779,-0.0785 0.18175,0.0105 0.36042,0.0198 0.52734,0.0216 0.4241,0.004 1.28034,-0.63367 0.4748,-0.64171 z"
         inkscape:connector-curvature="0" />
      <path
         inkscape:export-ydpi="277"
         inkscape:export-xdpi="277"
         id="path49725-4"
         d="m 178.49341,600.82373 c 0.19351,-0.17434 0.21885,-0.41545 -0.19288,-0.40061 -0.60895,0.021 -1.18328,0.12117 -1.77925,0.24296 -0.14466,0.0297 -0.29427,0.0451 -0.44512,0.0544 -0.10819,6.2e-4 -0.21699,0 -0.32333,0.004 -0.0142,6.1e-4 -0.0278,0.003 -0.042,0.004 -0.37773,-0.002 -0.75979,-0.0297 -1.12145,-0.0334 -0.13663,-10e-4 -0.60772,0.10262 -0.77711,0.285 -0.0513,0.004 -0.10201,0.013 -0.15394,0.0142 -0.40617,0.0136 -1.28157,0.65222 -0.47912,0.6244 0.33322,-0.0117 0.66212,-0.0538 0.99039,-0.10015 0.073,0.0284 0.14838,0.0495 0.22689,0.0637 -0.14157,0.0631 -0.28376,0.12426 -0.41977,0.20154 -0.33693,0.19227 -0.25842,0.46119 0.12364,0.46305 0.80555,0.004 1.574,-0.0896 2.32576,-0.38639 0.0563,-0.0223 0.22132,-0.11128 0.31591,-0.21267 0.58731,-0.013 1.17648,0.0198 1.69207,0.0247 0.26708,0.003 0.83337,-0.12859 0.83708,-0.47232 0.001,-0.10325 0.002,-0.20587 0.003,-0.30911 0.001,-0.19598 -0.43523,-0.19413 -0.78082,-0.0674 z m -0.34126,0.217 c -0.0451,-6.2e-4 -0.0903,0 -0.13601,-6.2e-4 0.0692,-0.0223 0.13972,-0.0414 0.20896,-0.0674 -0.0272,0.0216 -0.0538,0.0433 -0.0729,0.068 z"
         inkscape:connector-curvature="0" />
      <path
         inkscape:export-ydpi="277"
         inkscape:export-xdpi="277"
         id="path49727-0"
         d="m 192.53572,600.62837 c -1.22532,0.0186 -2.43332,0.2442 -3.65864,0.26893 -0.28377,-0.003 -0.56815,-0.006 -0.85253,-0.009 -0.001,0 -0.003,6.2e-4 -0.004,6.2e-4 -0.0995,-10e-4 -0.19968,-0.002 -0.29984,-0.003 -0.002,0 -0.003,-6.2e-4 -0.005,-6.2e-4 -0.30911,-0.003 -0.61822,-0.006 -0.92734,-0.009 -0.2615,-0.002 -1.36627,0.50014 -0.76906,0.50571 0.44821,0.004 0.8958,0.009 1.34463,0.013 -0.26398,0.14033 -0.4513,0.30416 -0.1119,0.30787 1.72299,0.0173 3.99063,0.3153 5.48735,-0.7975 0.27943,-0.20711 0.0278,-0.28068 -0.2034,-0.27697 z"
         inkscape:connector-curvature="0" />
      <path
         inkscape:export-ydpi="277"
         inkscape:export-xdpi="277"
         id="path49729-5"
         d="m 204.07423,600.64321 c -0.0482,-0.0148 -0.0952,-0.0235 -0.14343,-0.0377 0.36166,-0.21576 0.60524,-0.59597 0.0154,-0.60153 -0.78823,-0.007 -1.53875,0.0365 -2.29484,0.19968 -0.36908,0.0377 -0.73754,0.0686 -1.10909,0.0742 -0.14219,0.002 -0.30787,0.068 -0.45068,0.1595 -0.41359,0.0643 -0.8278,0.12612 -1.24943,0.13848 -0.62688,0.0173 -0.96257,0.76042 -0.14219,0.73754 0.26336,-0.007 0.52301,-0.0371 0.78205,-0.0717 0.0513,0.0507 0.14095,0.0872 0.30231,0.089 1.23645,0.013 2.47289,0.0254 3.70934,0.0383 0.33074,0.003 1.28219,-0.50323 0.58051,-0.72579 z"
         inkscape:connector-curvature="0" />
      <path
         inkscape:export-ydpi="277"
         inkscape:export-xdpi="277"
         id="path49731-3"
         d="m 215.05942,600.39036 c -0.0859,-6.2e-4 -0.17063,-0.002 -0.25594,-0.002 0.0266,-0.16568 -0.0631,-0.31034 -0.35857,-0.31344 -0.30911,-0.003 -0.61822,-0.006 -0.92733,-0.009 -0.26337,-0.003 -0.57371,0.0723 -0.73507,0.30108 -0.37402,-0.004 -0.74805,-0.007 -1.12146,-0.0118 -0.2683,-0.003 -0.58545,0.0736 -0.74495,0.3122 -0.49829,0.0822 -1.00956,0.72641 -0.37588,0.80184 6.1e-4,0.11684 0.076,0.22627 0.24172,0.29303 0.88221,0.35363 1.84911,0.0754 2.76284,0.0525 0.30478,-0.008 0.60338,-0.2918 0.63553,-0.52363 0.20031,-0.0383 0.40123,-0.0711 0.60648,-0.0822 0.4989,-0.026 1.00956,-0.80987 0.27263,-0.8179 z"
         inkscape:connector-curvature="0" />
      <path
         inkscape:export-ydpi="277"
         inkscape:export-xdpi="277"
         id="path49733-5"
         d="m 225.74539,600.98756 c 0,0 -6.2e-4,0 -10e-4,0 -1.13382,-0.0111 -2.26639,-0.0229 -3.40021,-0.0346 -0.2306,-0.002 -1.35453,0.44945 -0.78267,0.45501 0.30726,0.003 0.61513,0.006 0.92239,0.009 0.002,6.2e-4 0.003,6.2e-4 0.005,6.2e-4 0.80308,0.008 1.60737,0.0161 2.41044,0.0241 -0.32394,0.12612 -0.60338,0.28933 -0.25038,0.30664 0.59535,0.0297 1.31991,0.12736 1.96595,0.0198 0.0661,6.2e-4 0.13168,10e-4 0.19783,0.002 0.22936,0.002 1.34402,-0.44574 0.78824,-0.45439 0.0662,-0.0612 0.13539,-0.11685 0.19288,-0.19289 0.0798,-0.10448 -0.16259,-0.11623 -0.19536,-0.11623 -0.61698,-0.006 -1.23459,-0.013 -1.85281,-0.0192 z"
         inkscape:connector-curvature="0" />
      <path
         inkscape:export-ydpi="277"
         inkscape:export-xdpi="277"
         id="path49735-0"
         d="m 238.82451,600.14863 c -1.54741,-0.56382 -2.98293,-0.10386 -4.56743,-0.0804 -0.3969,0.006 -1.29209,0.60772 -0.48036,0.61575 0.0303,0 0.0606,6.2e-4 0.0903,6.2e-4 -0.0637,0.0581 -0.1051,0.11623 -0.1119,0.16568 -0.31467,0.18052 -0.51498,0.44698 0.0148,0.45192 1.13258,0.0111 2.2664,0.0229 3.39899,0.0346 0.21081,0.002 0.55578,-0.15827 0.71899,-0.31592 0.25533,-0.0513 0.61451,-0.25656 0.69612,-0.41359 0.23183,-0.11931 0.55887,-0.34249 0.24049,-0.45872 z"
         inkscape:connector-curvature="0" />
      <path
         inkscape:export-ydpi="277"
         inkscape:export-xdpi="277"
         id="path49737-2"
         d="m 248.46631,599.85683 c -1.76441,-0.0408 -3.40765,-0.2374 -5.10899,0.35301 -0.39257,0.13662 -0.50076,0.61265 0.013,0.6176 0.10324,10e-4 0.20587,0.002 0.30911,0.003 0.2003,0.002 0.40061,0.004 0.60091,0.006 0,0 -6.2e-4,6.2e-4 -0.001,6.2e-4 -0.52117,0.22751 -0.38516,0.65779 0.16444,0.61142 0.31406,-0.0266 0.5935,-0.0896 0.82904,-0.25718 0.0457,-0.0124 0.0921,-0.0235 0.13848,-0.034 0.11685,6.2e-4 0.23369,0.002 0.34992,0.003 0.31405,0.003 0.62935,0.006 0.94279,0.01 0,0.009 0,0.0186 0,0.0284 -0.006,0.52178 1.19316,0.27573 1.19687,-0.14034 6.2e-4,-0.0686 0.001,-0.13848 0.002,-0.2071 0.0365,-0.007 0.0723,-0.0111 0.1088,-0.0179 0.23555,-0.0482 0.45563,-0.26151 0.48036,-0.43523 0.33013,-0.20525 0.53167,-0.52858 -0.026,-0.54156 z"
         inkscape:connector-curvature="0" />
      <path
         inkscape:export-ydpi="277"
         inkscape:export-xdpi="277"
         id="path49739-3"
         d="m 258.95074,599.95698 c -0.021,0.004 -0.0426,0.007 -0.0804,0.0179 -0.14838,0.0291 -0.29861,0.0488 -0.44945,0.0692 -0.0148,-6.2e-4 -0.026,-0.002 -0.0414,-0.002 -1.02996,-0.0111 -2.05992,-0.021 -3.08988,-0.0315 -0.27264,-0.003 -0.88653,0.30787 -0.80431,0.4581 -0.10386,0.0525 -0.19659,0.11128 -0.25594,0.16754 -0.4037,0.089 -1.09487,0.51374 -0.37526,0.52178 0.41173,0.004 0.82409,0.009 1.23644,0.013 0.0927,10e-4 0.22627,-0.0352 0.35857,-0.089 1.01389,-0.0754 2.0253,-0.18052 3.04413,-0.18609 0.1459,-6.1e-4 1.08622,-0.37958 0.76783,-0.50137 0.32395,-0.0971 0.59473,-0.24482 0.69921,-0.47604 0.0921,-0.20277 -0.6516,-0.16073 -1.00956,0.0389 z"
         inkscape:connector-curvature="0" />
      <path
         inkscape:export-ydpi="277"
         inkscape:export-xdpi="277"
         id="path49741-4"
         d="m 273.19645,599.79686 c -1.33907,-0.0136 -2.67876,-0.0278 -4.01845,-0.0402 -0.18794,-0.002 -0.42534,0.11066 -0.59411,0.24543 -0.32828,0.0204 -0.65099,0.0439 -0.95392,0.0476 -0.4173,0.005 -1.12269,0.58051 -0.63368,0.69117 -0.41297,0.17928 -0.78143,0.61513 -0.13724,0.63429 1.49424,0.0445 2.94397,0.30046 4.31457,-0.43213 0.0779,-0.0414 0.2102,-0.17001 0.2306,-0.28933 0.44203,-0.0643 0.88406,-0.13045 1.3366,-0.1459 0.30231,0.003 0.73692,-0.28871 0.79441,-0.49953 0.0396,-0.1156 -0.0402,-0.20834 -0.33878,-0.21143 z m -4.53652,0.97927 c 0.28376,0.003 0.56691,0.006 0.85067,0.009 -0.27572,0.0204 -0.5632,0.013 -0.85067,-0.009 z"
         inkscape:connector-curvature="0" />
      <path
         inkscape:export-ydpi="277"
         inkscape:export-xdpi="277"
         id="path49743-0"
         d="m 287.09904,599.59099 c -0.0841,-6.1e-4 -0.16816,-0.002 -0.25286,-0.002 0.013,-0.12983 -0.0439,-0.24852 -0.22503,-0.28871 -1.25561,-0.27511 -2.43456,0.19351 -3.69202,0.25224 -0.20402,0.009 -0.4105,0.14837 -0.53353,0.30663 -0.29427,-0.0111 -0.58484,-0.0124 -0.86304,-0.0154 -0.3629,-0.004 -0.82285,0.37464 -0.79503,0.60833 -0.0457,0 -0.0927,10e-4 -0.1391,6.2e-4 -0.52055,-0.006 -1.24387,0.77958 -0.43461,0.787 0.83769,0.009 1.71,-0.055 2.53965,0.0686 0.64605,0.0971 1.35082,0.21761 1.94802,-0.11499 0.20649,-0.11561 0.42287,-0.31468 0.30912,-0.51683 0.39009,-0.0581 0.75361,-0.15456 1.0689,-0.30541 0.21143,0.002 0.42287,0.004 0.63368,0.007 0.52116,0.007 1.24448,-0.77834 0.43585,-0.78638 z"
         inkscape:connector-curvature="0" />
      <path
         inkscape:export-ydpi="277"
         inkscape:export-xdpi="277"
         id="path49745-6"
         d="m 302.11195,599.27446 c -1.97769,-0.0192 -3.90716,0.21329 -5.87558,0.24977 -0.23555,0.005 -1.36998,0.47912 -0.77525,0.4853 0.13848,10e-4 0.27634,0.003 0.41544,0.004 -0.22936,0.0767 -0.45748,0.17125 -0.68684,0.29056 -0.0872,0.0451 -0.42039,0.25038 -0.14714,0.30788 0.0674,0.0136 0.13601,0.0167 0.20339,0.0291 -0.23121,0.0723 -0.45872,0.15889 -0.68066,0.27511 -0.70044,0.36908 0.40927,0.30046 0.68685,0.15456 0.12241,-0.0643 0.25594,-0.1119 0.39504,-0.14899 0.005,0.002 0.005,0.004 0.0105,0.006 1.63767,0.47727 3.7724,0.34806 5.27839,-0.47912 0.21081,-0.11623 0.14219,-0.24606 -0.0693,-0.25904 -0.32951,-0.0192 -0.65655,-0.0631 -0.98173,-0.11004 0.6312,-0.10634 1.26055,-0.23369 1.88867,-0.37959 0.15703,-0.0371 0.87293,-0.42101 0.33816,-0.42596 z m -2.71832,1.38359 c 0.0186,-0.0124 0.0359,-0.0235 0.0495,-0.0352 0.0272,0.004 0.0538,0.009 0.081,0.0124 0.0736,0.009 0.005,0.0167 -0.13045,0.0229 z"
         inkscape:connector-curvature="0" />
      <g
         id="g123730">
        <path
           style="color:#000000;clip-rule:nonzero;display:inline;overflow:visible;visibility:visible;opacity:1;isolation:auto;mix-blend-mode:normal;color-interpolation:sRGB;color-interpolation-filters:linearRGB;solid-color:#000000;solid-opacity:1;fill:#000000;fill-opacity:1;fill-rule:nonzero;stroke:none;stroke-width:4.6062994;stroke-miterlimit:4;stroke-dasharray:none;marker:none;color-rendering:auto;image-rendering:auto;shape-rendering:auto;text-rendering:auto;enable-background:accumulate"
           d="m 298.78993,578.22507 c -0.23206,-0.0833 -0.43703,-0.0448 -0.67705,0.0859 -0.32658,0.0485 -0.64912,0.1151 -0.96654,0.20697 -0.3395,0.14838 -0.46112,0.29904 -0.6542,0.60684 -0.1631,0.23715 -0.3332,0.4699 -0.51024,0.69684 -0.22156,0.24249 -0.0651,0.52668 0.16143,0.58423 0.004,0.0159 0.005,0.032 0.0121,0.0471 -0.0168,0.11818 0.0314,0.22966 0.11667,0.30481 -0.0324,0.32672 0.41554,0.55024 0.64462,0.20092 0.11318,-0.19423 0.2325,-0.38475 0.35169,-0.57488 0.18054,-0.11907 0.33871,-0.26561 0.46672,-0.44207 0.0283,-0.0408 0.0553,-0.0826 0.0832,-0.12372 0.14803,-0.064 0.30092,-0.11674 0.46284,-0.14277 0.25024,-0.0601 0.50964,-0.0803 0.75973,-0.007 0.15477,0.0421 0.3126,0.089 0.45297,0.16614 0.0673,0.0615 0.13532,0.12185 0.19699,0.18861 0.0258,0.0343 0.0541,0.0667 0.0795,0.10127 0.002,0.003 0.003,0.005 0.005,0.008 0.10965,0.23345 0.13781,0.49969 0.15475,0.75724 0.0518,0.33626 0.13454,0.66703 0.22846,0.99388 0.0126,0.0471 0.0357,0.0909 0.0448,0.13886 0.0256,0.13357 -0.0317,0.25353 -0.0763,0.37654 -0.13986,0.34235 -0.32474,0.6608 -0.54674,0.95709 -0.13701,0.20572 -0.25113,0.42289 -0.36512,0.64109 -0.26761,0.19963 -0.45993,0.46448 -0.64466,0.73991 -0.20265,0.27546 -0.43289,0.52771 -0.66815,0.77568 -0.20538,0.22394 -0.4164,0.44087 -0.62369,0.66305 -0.27085,0.27264 -0.37931,0.64638 -0.48867,1.00401 -0.0739,0.2488 -0.13146,0.50215 -0.1843,0.75612 -0.0395,0.16377 -0.061,0.32631 -0.0709,0.48985 -0.0554,0.23962 -0.0372,0.4801 0.02,0.72183 -0.0309,0.22276 -0.0168,0.44688 0.0269,0.66781 0.0568,0.30725 0.20765,0.56319 0.40278,0.80074 0.12725,0.15045 0.28892,0.25277 0.45196,0.35789 0.0459,0.0385 0.0952,0.0711 0.13793,0.1131 0.0985,0.0858 0.20222,0.10928 0.2957,0.0951 0.21872,0.003 0.43473,-0.20131 0.32055,-0.48791 -0.0632,-0.15657 -0.11934,-0.32032 -0.12503,-0.49034 -0.003,-0.28076 -0.0313,-0.56188 -0.0984,-0.83505 -0.0433,-0.15616 -0.10211,-0.30759 -0.15395,-0.46106 -0.0269,-0.18892 -0.0556,-0.37789 -0.0742,-0.5679 -0.008,-0.106 -0.008,-0.21236 -0.0124,-0.31882 0.0478,-0.086 0.0969,-0.17108 0.14043,-0.25946 0.20793,-0.36342 0.4301,-0.7184 0.61881,-1.09255 0.0415,-0.0264 0.0805,-0.0565 0.12439,-0.0802 0.42868,-0.26289 0.82529,-0.57263 1.11921,-0.98708 0.29564,-0.40247 0.5788,-0.81339 0.85119,-1.23199 0.28693,-0.41813 0.56624,-0.864 0.68546,-1.36154 0.0583,-0.44945 0.0842,-0.90469 0.0357,-1.3567 -0.049,-0.37112 -0.10368,-0.73689 -0.32809,-1.0492 -0.0284,-0.0378 -0.0564,-0.0757 -0.0852,-0.11324 -0.0139,-0.0848 -0.0256,-0.16982 -0.0625,-0.25193 -0.12617,-0.28511 -0.3047,-0.53154 -0.52971,-0.74806 -0.20202,-0.20762 -0.41042,-0.40957 -0.6374,-0.59011 -0.006,-0.005 -0.0128,-0.009 -0.0189,-0.0133 -0.16118,-0.18096 -0.33175,-0.35368 -0.53113,-0.49423 -0.1161,-0.0752 -0.22039,-0.13062 -0.31915,-0.16605 z m -1.13023,13.95626 c -0.0322,-0.005 -0.0717,-0.004 -0.11953,0.003 -0.0563,0.008 -0.11933,0.005 -0.1669,0.0365 -0.0814,0.0534 -0.13746,0.13899 -0.20578,0.20838 -0.002,0.0154 -0.003,0.0309 -0.005,0.0463 -0.16513,0.15193 -0.30087,0.33236 -0.39553,0.54436 0,0 -2.6e-4,10e-4 -2.6e-4,10e-4 -0.10282,0.27136 0.0822,0.46482 0.28691,0.4853 0.007,0.0973 0.0544,0.19508 0.16873,0.26804 0.14888,0.0908 0.33252,0.23986 0.53032,0.19127 0.37845,-0.093 0.41233,-0.37606 0.35899,-0.68423 -0.014,-0.0431 -0.0339,-0.0819 -0.0493,-0.12354 0.0174,-0.10835 -0.0208,-0.22079 -0.12446,-0.30639 -0.0187,-0.0427 -0.0328,-0.0863 -0.0522,-0.12951 -0.0138,-0.0307 -0.0256,-0.0632 -0.0406,-0.0934 -0.002,-0.003 -0.008,-0.0111 -0.009,-0.007 -0.0146,0.0346 -0.0227,0.0722 -0.0341,0.10799 -0.005,0.005 -0.0109,0.009 -0.0164,0.0142 0.009,-0.29215 0.0688,-0.53495 -0.12537,-0.56205 z m -0.19497,1.269 c 0.002,0.008 0.004,0.0161 0.006,0.0241 -0.003,0.0238 0.0149,0.0795 -0.008,0.0714 -0.0254,-0.009 -0.0265,-0.0547 -0.0138,-0.0785 0.003,-0.007 0.0115,-0.0106 0.0156,-0.0171 z"
           id="path122492"
           inkscape:connector-curvature="0" />
        <path
           style="color:#000000;clip-rule:nonzero;display:inline;overflow:visible;visibility:visible;opacity:1;isolation:auto;mix-blend-mode:normal;color-interpolation:sRGB;color-interpolation-filters:linearRGB;solid-color:#000000;solid-opacity:1;fill:#000000;fill-opacity:1;fill-rule:nonzero;stroke:none;stroke-width:4.6062994;stroke-miterlimit:4;stroke-dasharray:none;marker:none;color-rendering:auto;image-rendering:auto;shape-rendering:auto;text-rendering:auto;enable-background:accumulate"
           d="m 298.4205,578.40978 c -0.23206,-0.0833 -0.43703,-0.0448 -0.67705,0.0859 -0.32658,0.0485 -0.64912,0.1151 -0.96654,0.20697 -0.3395,0.14838 -0.46112,0.29904 -0.6542,0.60684 -0.1631,0.23715 -0.3332,0.4699 -0.51024,0.69684 -0.22156,0.24249 -0.0651,0.52668 0.16143,0.58423 0.004,0.0159 0.005,0.032 0.0121,0.0471 -0.0168,0.11818 0.0314,0.22966 0.11667,0.30481 -0.0324,0.32672 0.41554,0.55024 0.64462,0.20092 0.11318,-0.19423 0.2325,-0.38475 0.35169,-0.57488 0.18054,-0.11907 0.33871,-0.26561 0.46672,-0.44207 0.0283,-0.0408 0.0553,-0.0826 0.0832,-0.12372 0.14803,-0.064 0.30092,-0.11674 0.46284,-0.14277 0.25024,-0.0601 0.50964,-0.0803 0.75973,-0.007 0.15477,0.0421 0.3126,0.089 0.45297,0.16614 0.0673,0.0615 0.13532,0.12185 0.19699,0.18861 0.0258,0.0343 0.0541,0.0667 0.0795,0.10127 0.002,0.003 0.003,0.005 0.005,0.008 0.10965,0.23345 0.13781,0.49969 0.15475,0.75724 0.0518,0.33626 0.13454,0.66703 0.22846,0.99388 0.0126,0.0471 0.0357,0.0909 0.0448,0.13886 0.0256,0.13357 -0.0317,0.25353 -0.0763,0.37654 -0.13986,0.34235 -0.32474,0.6608 -0.54674,0.95709 -0.13701,0.20572 -0.25113,0.42289 -0.36512,0.64109 -0.26761,0.19963 -0.45993,0.46448 -0.64466,0.73991 -0.20265,0.27546 -0.43289,0.52771 -0.66815,0.77568 -0.20538,0.22394 -0.4164,0.44087 -0.62369,0.66305 -0.27085,0.27264 -0.37931,0.64638 -0.48867,1.00401 -0.0739,0.2488 -0.13146,0.50215 -0.1843,0.75612 -0.0395,0.16377 -0.061,0.32631 -0.0709,0.48985 -0.0554,0.23962 -0.0372,0.4801 0.02,0.72183 -0.0309,0.22276 -0.0168,0.44688 0.0269,0.66781 0.0568,0.30725 0.20765,0.56319 0.40278,0.80074 0.12725,0.15045 0.28892,0.25277 0.45196,0.35789 0.0459,0.0385 0.0952,0.0711 0.13793,0.1131 0.0985,0.0858 0.20222,0.10928 0.2957,0.0951 0.21872,0.003 0.43473,-0.20131 0.32055,-0.48791 -0.0632,-0.15657 -0.11934,-0.32032 -0.12503,-0.49034 -0.003,-0.28076 -0.0313,-0.56188 -0.0984,-0.83505 -0.0433,-0.15616 -0.10211,-0.30759 -0.15395,-0.46106 -0.0269,-0.18892 -0.0556,-0.37789 -0.0742,-0.5679 -0.008,-0.106 -0.008,-0.21236 -0.0124,-0.31882 0.0478,-0.086 0.0969,-0.17108 0.14043,-0.25946 0.20793,-0.36342 0.4301,-0.7184 0.61881,-1.09255 0.0415,-0.0264 0.0805,-0.0565 0.12439,-0.0802 0.42868,-0.26289 0.82529,-0.57263 1.11921,-0.98708 0.29564,-0.40247 0.5788,-0.81339 0.85119,-1.23199 0.28693,-0.41813 0.56624,-0.864 0.68546,-1.36154 0.0583,-0.44945 0.0842,-0.90469 0.0357,-1.3567 -0.049,-0.37112 -0.10368,-0.73689 -0.32809,-1.0492 -0.0284,-0.0378 -0.0564,-0.0757 -0.0852,-0.11324 -0.0139,-0.0848 -0.0256,-0.16982 -0.0625,-0.25193 -0.12617,-0.28511 -0.3047,-0.53154 -0.52971,-0.74806 -0.20202,-0.20762 -0.41042,-0.40957 -0.6374,-0.59011 -0.006,-0.005 -0.0128,-0.009 -0.0189,-0.0133 -0.16118,-0.18096 -0.33175,-0.35368 -0.53113,-0.49423 -0.1161,-0.0752 -0.22039,-0.13062 -0.31915,-0.16605 z m -1.13023,13.95626 c -0.0322,-0.005 -0.0717,-0.004 -0.11953,0.003 -0.0563,0.008 -0.11933,0.005 -0.1669,0.0365 -0.0814,0.0534 -0.13746,0.13899 -0.20578,0.20838 -0.002,0.0154 -0.003,0.0309 -0.005,0.0463 -0.16513,0.15193 -0.30087,0.33236 -0.39553,0.54436 0,0 -2.6e-4,0.001 -2.6e-4,0.001 -0.10282,0.27136 0.0822,0.46482 0.28691,0.4853 0.007,0.0973 0.0544,0.19508 0.16873,0.26804 0.14888,0.0908 0.33252,0.23986 0.53032,0.19127 0.37845,-0.093 0.41233,-0.37606 0.35899,-0.68423 -0.014,-0.0431 -0.0339,-0.0819 -0.0493,-0.12354 0.0174,-0.10835 -0.0208,-0.22079 -0.12446,-0.30639 -0.0187,-0.0427 -0.0328,-0.0863 -0.0522,-0.12951 -0.0138,-0.0307 -0.0256,-0.0632 -0.0406,-0.0934 -0.002,-0.003 -0.008,-0.0111 -0.009,-0.007 -0.0146,0.0346 -0.0227,0.0722 -0.0341,0.10799 -0.005,0.005 -0.0109,0.009 -0.0164,0.0142 0.009,-0.29215 0.0688,-0.53495 -0.12537,-0.56205 z m -0.19497,1.269 c 0.002,0.008 0.004,0.0161 0.006,0.0241 -0.003,0.0238 0.0149,0.0795 -0.008,0.0714 -0.0254,-0.009 -0.0265,-0.0547 -0.0138,-0.0785 0.003,-0.007 0.0115,-0.0106 0.0156,-0.0171 z"
           id="path122492-2"
           inkscape:connector-curvature="0" />
      </g>
    </g>
  </g>
</svg>
